{
DisplayStrings = (
"\U00FE\U00DF/longs"
);
classes = (
{
automatic = 1;
code = "A Aacute Abreve Abreveacute Abrevedotbelow Abrevegrave Abrevehookabove Abrevetilde Acircumflex Acircumflexacute Acircumflexdotbelow Acircumflexgrave Acircumflexhookabove Acircumflextilde Adieresis Adotbelow Agrave Ahookabove Amacron Aogonek Aring Aringacute Atilde AE AEacute B C Cacute Ccaron Ccedilla Ccircumflex Cdotaccent D DZ DZcaron Eth Dcaron Dcroat Ddotbelow Dz Dzcaron E Eacute Ebreve Ecaron Ecircumflex Ecircumflexacute Ecircumflexdotbelow Ecircumflexgrave Ecircumflexhookabove Ecircumflextilde Edieresis Edotaccent Edotbelow Egrave Ehookabove Emacron Eogonek Etilde F G Gbreve Gcircumflex Gcommaaccent Gdotaccent H Hbar Hcircumflex Hdotbelow I IJ Iacute Ibreve Icircumflex Idieresis Idotaccent Idotbelow Igrave Ihookabove Imacron Iogonek Itilde J Jcircumflex K Kcommaaccent L LJ Lacute Lcaron Lcommaaccent Ldot Lj Lslash M N NJ Nacute Ncaron Ncommaaccent Ndotaccent Eng Nj Ntilde O Oacute Obreve Ocircumflex Ocircumflexacute Ocircumflexdotbelow Ocircumflexgrave Ocircumflexhookabove Ocircumflextilde Odieresis Odotbelow Ograve Ohookabove Ohorn Ohornacute Ohorndotbelow Ohorngrave Ohornhookabove Ohorntilde Ohungarumlaut Omacron Oogonek Oslash Oslashacute Otilde OE P Thorn Q R Racute Rcaron Rcommaaccent Rdotbelow S Sacute Scaron Scedilla Scircumflex Scommaaccent Sdotbelow Germandbls Schwa T Tbar Tcaron Tcedilla Tcommaaccent Tdotbelow U Uacute Ubreve Ucircumflex Udieresis Udotbelow Ugrave Uhookabove Uhorn Uhornacute Uhorndotbelow Uhorngrave Uhornhookabove Uhorntilde Uhungarumlaut Umacron Uogonek Uring Utilde V W Wacute Wcircumflex Wdieresis Wgrave X Y Yacute Ycircumflex Ydieresis Ydotbelow Ygrave Yhookabove Ytilde Z Zacute Zcaron Zdotaccent Zdotbelow Iacute_J.loclNLD Y.loclGUA Yacute.loclGUA Ycircumflex.loclGUA Ydieresis.loclGUA Ydotbelow.loclGUA Ygrave.loclGUA Yhookabove.loclGUA Ytilde.loclGUA Cacute.loclPLK Nacute.loclPLK Oacute.loclPLK Sacute.loclPLK Zacute.loclPLK Delta Omega";

glyphs = (
{
color = 10;
glyphname = A;
lastChange = "2013-08-29 18:56:36 +0000";
layers = (
{
anchors = (
{
name = bottom;
position = "{310, 0}";
},
{
name = ogonek;
position = "{584, 0}";
},
{
name = top;
position = "{307, 700}";
}
);
layerId = UUID0;
name = Regular;
paths = (
{
closed = 1;
nodes = (
"292 702 LINE SMOOTH",
"272 702 OFFCURVE",
"256 698 OFFCURVE",
"252 686 CURVE SMOOTH",
"15 29 LINE SMOOTH",
"13 23 OFFCURVE",
"12 19 OFFCURVE",
"12 15 CURVE SMOOTH",
"12 4 OFFCURVE",
"25 -2 OFFCURVE",
"55 -2 CURVE SMOOTH",
"60 -2 LINE SMOOTH",
"80 -2 OFFCURVE",
"96 2 OFFCURVE",
"100 14 CURVE SMOOTH",
"157 178 LINE",
"451 178 LINE",
"510 14 LINE SMOOTH",
"514 2 OFFCURVE",
"530 -2 OFFCURVE",
"550 -2 CURVE SMOOTH",
"558 -2 LINE SMOOTH",
"588 -2 OFFCURVE",
"601 5 OFFCURVE",
"601 15 CURVE SMOOTH",
"601 19 OFFCURVE",
"600 23 OFFCURVE",
"598 28 CURVE SMOOTH",
"361 686 LINE SMOOTH",
"357 698 OFFCURVE",
"341 702 OFFCURVE",
"321 702 CURVE SMOOTH"
);
},
{
closed = 1;
nodes = (
"310 591 OFFCURVE",
"313 570 OFFCURVE",
"319 552 CURVE SMOOTH",
"424 254 LINE",
"185 254 LINE",
"290 552 LINE SMOOTH",
"297 571 OFFCURVE",
"301 591 OFFCURVE",
"305 610 CURVE",
"307 610 LINE"
);
}
);
width = 613;
},
{
anchors = (
{
name = bottom;
position = "{310, 0}";
},
{
name = ogonek;
position = "{552, 0}";
},
{
name = top;
position = "{307, 700}";
}
);
layerId = "2C16E7AF-C861-4509-900A-75D3055B0FF7";
name = Bold;
paths = (
{
closed = 1;
nodes = (
"281 702 LINE SMOOTH",
"252 702 OFFCURVE",
"230 697 OFFCURVE",
"224 681 CURVE SMOOTH",
"4 38 LINE SMOOTH",
"2 31 OFFCURVE",
"0 25 OFFCURVE",
"0 20 CURVE SMOOTH",
"0 6 OFFCURVE",
"19 -2 OFFCURVE",
"61 -2 CURVE SMOOTH",
"101 -2 LINE SMOOTH",
"125 -2 OFFCURVE",
"142 4 OFFCURVE",
"147 19 CURVE SMOOTH",
"187 141 LINE",
"423 141 LINE",
"463 19 LINE SMOOTH",
"468 3 OFFCURVE",
"490 -2 OFFCURVE",
"519 -2 CURVE SMOOTH",
"563 -2 LINE SMOOTH",
"598 -2 OFFCURVE",
"613 6 OFFCURVE",
"613 20 CURVE SMOOTH",
"613 25 OFFCURVE",
"612 31 OFFCURVE",
"610 38 CURVE SMOOTH",
"390 681 LINE SMOOTH",
"384 697 OFFCURVE",
"362 702 OFFCURVE",
"333 702 CURVE SMOOTH"
);
},
{
closed = 1;
nodes = (
"312 494 OFFCURVE",
"316 472 OFFCURVE",
"323 451 CURVE SMOOTH",
"380 273 LINE",
"230 273 LINE",
"289 451 LINE SMOOTH",
"297 472 OFFCURVE",
"300 494 OFFCURVE",
"304 515 CURVE",
"308 515 LINE"
);
}
);
width = 613;
}
);
unicode = 0041;
},
{
color = 10;
glyphname = Aringacute;
lastChange = "2013-08-29 18:05:17 +0000";
layers = (
{
components = (
{
disableAlignment = 1;
name = ring;
transform = "{1, 0, 0, 1, 147, 60}";
}
);
layerId = UUID0;
name = Regular;
paths = (
{
closed = 1;
nodes = (
"334 929 OFFCURVE",
"315 923 OFFCURVE",
"304 903 CURVE SMOOTH",
"292 881 OFFCURVE",
"285 868 OFFCURVE",
"267 832 CURVE SMOOTH",
"267 825 OFFCURVE",
"274 822 OFFCURVE",
"290 822 CURVE SMOOTH",
"311 822 OFFCURVE",
"330 828 OFFCURVE",
"341 840 CURVE SMOOTH",
"405 904 OFFCURVE",
"414 909 OFFCURVE",
"414 916 CURVE SMOOTH",
"414 926 OFFCURVE",
"398 929 OFFCURVE",
"366 929 CURVE SMOOTH"
);
},
{
closed = 1;
nodes = (
"292 642 LINE",
"252 686 LINE",
"15 29 LINE SMOOTH",
"13 23 OFFCURVE",
"12 19 OFFCURVE",
"12 15 CURVE SMOOTH",
"12 4 OFFCURVE",
"25 -2 OFFCURVE",
"55 -2 CURVE SMOOTH",
"60 -2 LINE SMOOTH",
"80 -2 OFFCURVE",
"96 2 OFFCURVE",
"100 14 CURVE SMOOTH",
"157 178 LINE",
"451 178 LINE",
"510 14 LINE SMOOTH",
"514 2 OFFCURVE",
"530 -2 OFFCURVE",
"550 -2 CURVE SMOOTH",
"558 -2 LINE SMOOTH",
"588 -2 OFFCURVE",
"601 5 OFFCURVE",
"601 15 CURVE SMOOTH",
"601 19 OFFCURVE",
"600 23 OFFCURVE",
"598 28 CURVE SMOOTH",
"361 686 LINE",
"321 642 LINE"
);
},
{
closed = 1;
nodes = (
"310 591 OFFCURVE",
"313 570 OFFCURVE",
"319 552 CURVE SMOOTH",
"424 254 LINE",
"185 254 LINE",
"290 552 LINE SMOOTH",
"297 571 OFFCURVE",
"301 591 OFFCURVE",
"305 610 CURVE",
"307 610 LINE"
);
}
);
width = 613;
},
{
components = (
{
disableAlignment = 1;
name = ring;
transform = "{1, 0, 0, 1, 147, 47}";
}
);
layerId = "2C16E7AF-C861-4509-900A-75D3055B0FF7";
name = Bold;
paths = (
{
closed = 1;
nodes = (
"347 931 OFFCURVE",
"314 925 OFFCURVE",
"302 904 CURVE SMOOTH",
"287 881 OFFCURVE",
"277 864 OFFCURVE",
"261 827 CURVE SMOOTH",
"261 816 OFFCURVE",
"268 812 OFFCURVE",
"292 812 CURVE SMOOTH",
"339 812 OFFCURVE",
"356 825 OFFCURVE",
"367 837 CURVE SMOOTH",
"442 907 OFFCURVE",
"447 909 OFFCURVE",
"447 917 CURVE SMOOTH",
"447 928 OFFCURVE",
"427 931 OFFCURVE",
"387 931 CURVE SMOOTH"
);
},
{
closed = 1;
nodes = (
"281 632 LINE",
"224 681 LINE",
"4 38 LINE SMOOTH",
"2 31 OFFCURVE",
"0 25 OFFCURVE",
"0 20 CURVE SMOOTH",
"0 6 OFFCURVE",
"19 -2 OFFCURVE",
"61 -2 CURVE SMOOTH",
"101 -2 LINE SMOOTH",
"125 -2 OFFCURVE",
"142 4 OFFCURVE",
"147 19 CURVE SMOOTH",
"187 141 LINE",
"423 141 LINE",
"463 19 LINE SMOOTH",
"468 3 OFFCURVE",
"490 -2 OFFCURVE",
"519 -2 CURVE SMOOTH",
"563 -2 LINE SMOOTH",
"598 -2 OFFCURVE",
"613 6 OFFCURVE",
"613 20 CURVE SMOOTH",
"613 25 OFFCURVE",
"612 31 OFFCURVE",
"610 38 CURVE SMOOTH",
"390 681 LINE",
"333 632 LINE"
);
},
{
closed = 1;
nodes = (
"312 494 OFFCURVE",
"316 472 OFFCURVE",
"323 451 CURVE SMOOTH",
"380 273 LINE",
"230 273 LINE",
"289 451 LINE SMOOTH",
"297 472 OFFCURVE",
"300 494 OFFCURVE",
"304 515 CURVE",
"308 515 LINE"
);
}
);
width = 613;
}
);
unicode = 01FA;
},
{
color = 10;
glyphname = AE;
lastChange = "2013-08-29 18:05:17 +0000";
layers = (
{
anchors = (
{
name = top;
position = "{458, 700}";
}
);
layerId = UUID0;
name = Regular;
paths = (
{
closed = 1;
nodes = (
"357 700 LINE SMOOTH",
"336 700 OFFCURVE",
"323 692 OFFCURVE",
"314 673 CURVE SMOOTH",
"-7 31 LINE SMOOTH",
"-10 25 OFFCURVE",
"-11 19 OFFCURVE",
"-11 15 CURVE SMOOTH",
"-11 4 OFFCURVE",
"-2 -2 OFFCURVE",
"28 -2 CURVE SMOOTH",
"33 -2 LINE SMOOTH",
"52 -2 OFFCURVE",
"67 3 OFFCURVE",
"73 14 CURVE SMOOTH",
"153 178 LINE",
"448 178 LINE",
"480 29 LINE SMOOTH",
"484 9 OFFCURVE",
"495 0 OFFCURVE",
"516 0 CURVE SMOOTH",
"803 0 LINE SMOOTH",
"817 0 OFFCURVE",
"823 9 OFFCURVE",
"823 30 CURVE SMOOTH",
"823 46 LINE SMOOTH",
"823 67 OFFCURVE",
"817 76 OFFCURVE",
"803 76 CURVE SMOOTH",
"559 76 LINE",
"506 320 LINE",
"772 320 LINE SMOOTH",
"786 320 OFFCURVE",
"792 329 OFFCURVE",
"792 350 CURVE SMOOTH",
"792 366 LINE SMOOTH",
"792 387 OFFCURVE",
"786 396 OFFCURVE",
"772 396 CURVE SMOOTH",
"490 396 LINE",
"440 624 LINE",
"802 624 LINE SMOOTH",
"816 624 OFFCURVE",
"822 633 OFFCURVE",
"822 654 CURVE SMOOTH",
"822 670 LINE SMOOTH",
"822 691 OFFCURVE",
"816 700 OFFCURVE",
"802 700 CURVE SMOOTH"
);
},
{
closed = 1;
nodes = (
"367 552 LINE",
"431 253 LINE",
"192 253 LINE",
"340 552 LINE",
"361 610 LINE",
"363 610 LINE"
);
}
);
width = 915;
},
{
anchors = (
{
name = top;
position = "{458, 700}";
}
);
layerId = "2C16E7AF-C861-4509-900A-75D3055B0FF7";
name = Bold;
paths = (
{
closed = 1;
nodes = (
"370 700 LINE SMOOTH",
"349 700 OFFCURVE",
"336 692 OFFCURVE",
"326 673 CURVE SMOOTH",
"5 38 LINE SMOOTH",
"2 32 OFFCURVE",
"1 25 OFFCURVE",
"1 20 CURVE SMOOTH",
"1 6 OFFCURVE",
"20 -2 OFFCURVE",
"62 -2 CURVE SMOOTH",
"99 -2 LINE SMOOTH",
"123 -2 OFFCURVE",
"138 5 OFFCURVE",
"145 19 CURVE SMOOTH",
"205 141 LINE",
"448 141 LINE",
"469 30 LINE SMOOTH",
"473 9 OFFCURVE",
"482 0 OFFCURVE",
"504 0 CURVE SMOOTH",
"835 0 LINE SMOOTH",
"856 0 OFFCURVE",
"865 15 OFFCURVE",
"865 50 CURVE SMOOTH",
"865 81 LINE SMOOTH",
"865 116 OFFCURVE",
"856 131 OFFCURVE",
"835 131 CURVE SMOOTH",
"602 131 LINE",
"571 293 LINE",
"807 293 LINE SMOOTH",
"828 293 OFFCURVE",
"837 308 OFFCURVE",
"837 343 CURVE SMOOTH",
"837 374 LINE SMOOTH",
"837 409 OFFCURVE",
"828 424 OFFCURVE",
"807 424 CURVE SMOOTH",
"545 424 LINE",
"517 569 LINE",
"834 569 LINE SMOOTH",
"855 569 OFFCURVE",
"864 584 OFFCURVE",
"864 619 CURVE SMOOTH",
"864 650 LINE SMOOTH",
"864 685 OFFCURVE",
"855 700 OFFCURVE",
"834 700 CURVE SMOOTH"
);
},
{
closed = 1;
nodes = (
"391 454 LINE",
"424 273 LINE",
"270 273 LINE",
"359 455 LINE",
"387 537 LINE",
"391 537 LINE"
);
}
);
width = 915;
}
);
unicode = 00C6;
},
{
color = 10;
glyphname = B;
lastChange = "2013-08-29 18:05:17 +0000";
layers = (
{
layerId = UUID0;
name = Regular;
paths = (
{
closed = 1;
nodes = (
"127 700 LINE SMOOTH",
"106 700 OFFCURVE",
"97 691 OFFCURVE",
"97 670 CURVE SMOOTH",
"97 30 LINE SMOOTH",
"97 9 OFFCURVE",
"106 0 OFFCURVE",
"127 0 CURVE SMOOTH",
"299 0 LINE SMOOTH",
"467 0 OFFCURVE",
"560 62 OFFCURVE",
"560 201 CURVE SMOOTH",
"560 333 OFFCURVE",
"420 367 OFFCURVE",
"420 367 CURVE",
"420 371 LINE",
"478 387 OFFCURVE",
"530 456 OFFCURVE",
"530 523 CURVE SMOOTH",
"530 628 OFFCURVE",
"455 700 OFFCURVE",
"306 700 CURVE SMOOTH"
);
},
{
closed = 1;
nodes = (
"417 322 OFFCURVE",
"469 278 OFFCURVE",
"469 205 CURVE SMOOTH",
"469 126 OFFCURVE",
"420 76 OFFCURVE",
"331 76 CURVE SMOOTH",
"185 76 LINE",
"185 322 LINE",
"314 322 LINE SMOOTH"
);
},
{
closed = 1;
nodes = (
"397 624 OFFCURVE",
"439 589 OFFCURVE",
"439 515 CURVE SMOOTH",
"439 450 OFFCURVE",
"382 398 OFFCURVE",
"301 398 CURVE SMOOTH",
"185 398 LINE",
"185 624 LINE",
"297 624 LINE SMOOTH"
);
}
);
width = 593;
},
{
layerId = "2C16E7AF-C861-4509-900A-75D3055B0FF7";
name = Bold;
paths = (
{
closed = 1;
nodes = (
"109 700 LINE SMOOTH",
"81 700 OFFCURVE",
"69 688 OFFCURVE",
"69 660 CURVE SMOOTH",
"69 40 LINE SMOOTH",
"69 12 OFFCURVE",
"81 0 OFFCURVE",
"109 0 CURVE SMOOTH",
"321 0 LINE SMOOTH",
"490 0 OFFCURVE",
"571 74 OFFCURVE",
"571 203 CURVE SMOOTH",
"571 280 OFFCURVE",
"516 351 OFFCURVE",
"436 367 CURVE",
"435 371 LINE",
"495 396 OFFCURVE",
"543 455 OFFCURVE",
"543 523 CURVE SMOOTH",
"543 628 OFFCURVE",
"476 700 OFFCURVE",
"307 700 CURVE SMOOTH"
);
},
{
closed = 1;
nodes = (
"374 290 OFFCURVE",
"413 264 OFFCURVE",
"413 212 CURVE SMOOTH",
"413 160 OFFCURVE",
"379 131 OFFCURVE",
"321 131 CURVE SMOOTH",
"223 131 LINE",
"223 290 LINE",
"305 290 LINE SMOOTH"
);
},
{
closed = 1;
nodes = (
"355 570 OFFCURVE",
"385 545 OFFCURVE",
"385 496 CURVE SMOOTH",
"385 454 OFFCURVE",
"352 421 OFFCURVE",
"292 421 CURVE SMOOTH",
"223 421 LINE",
"223 570 LINE",
"294 570 LINE SMOOTH"
);
}
);
width = 593;
}
);
unicode = 0042;
},
{
color = 10;
glyphname = C;
lastChange = "2013-08-29 18:05:17 +0000";
layers = (
{
anchors = (
{
name = bottom;
position = "{361, 0}";
},
{
name = top;
position = "{355, 700}";
}
);
layerId = UUID0;
name = Regular;
paths = (
{
closed = 1;
nodes = (
"167 706 OFFCURVE",
"57 589 OFFCURVE",
"57 350 CURVE SMOOTH",
"57 106 OFFCURVE",
"160 -6 OFFCURVE",
"379 -6 CURVE SMOOTH",
"496 -6 OFFCURVE",
"586 39 OFFCURVE",
"586 66 CURVE SMOOTH",
"586 78 OFFCURVE",
"564 120 OFFCURVE",
"551 120 CURVE SMOOTH",
"538 120 OFFCURVE",
"482 70 OFFCURVE",
"379 70 CURVE SMOOTH",
"222 70 OFFCURVE",
"148 157 OFFCURVE",
"148 349 CURVE SMOOTH",
"148 546 OFFCURVE",
"223 630 OFFCURVE",
"383 630 CURVE SMOOTH",
"479 630 OFFCURVE",
"527 586 OFFCURVE",
"538 586 CURVE SMOOTH",
"551 586 OFFCURVE",
"572 627 OFFCURVE",
"572 644 CURVE SMOOTH",
"572 671 OFFCURVE",
"480 706 OFFCURVE",
"381 706 CURVE SMOOTH"
);
}
);
width = 619;
},
{
anchors = (
{
name = bottom;
position = "{373, 0}";
},
{
name = top;
position = "{368, 700}";
}
);
layerId = "2C16E7AF-C861-4509-900A-75D3055B0FF7";
name = Bold;
paths = (
{
closed = 1;
nodes = (
"157 708 OFFCURVE",
"45 590 OFFCURVE",
"45 352 CURVE SMOOTH",
"45 105 OFFCURVE",
"150 -8 OFFCURVE",
"374 -8 CURVE SMOOTH",
"454 -8 OFFCURVE",
"597 16 OFFCURVE",
"597 76 CURVE SMOOTH",
"597 93 OFFCURVE",
"570 163 OFFCURVE",
"538 163 CURVE SMOOTH",
"523 163 OFFCURVE",
"469 123 OFFCURVE",
"374 123 CURVE SMOOTH",
"259 123 OFFCURVE",
"203 201 OFFCURVE",
"203 351 CURVE SMOOTH",
"203 501 OFFCURVE",
"258 576 OFFCURVE",
"376 576 CURVE SMOOTH",
"471 576 OFFCURVE",
"511 544 OFFCURVE",
"523 544 CURVE SMOOTH",
"548 544 OFFCURVE",
"588 610 OFFCURVE",
"588 638 CURVE SMOOTH",
"588 680 OFFCURVE",
"467 708 OFFCURVE",
"379 708 CURVE SMOOTH"
);
}
);
width = 619;
}
);
unicode = 0043;
},
{
color = 10;
glyphname = D;
lastChange = "2013-08-29 18:05:17 +0000";
layers = (
{
anchors = (
{
name = bottom;
position = "{327, 0}";
},
{
name = center;
position = "{348, 350}";
},
{
name = top;
position = "{312, 700}";
}
);
layerId = UUID0;
name = Regular;
paths = (
{
closed = 1;
nodes = (
"127 700 LINE SMOOTH",
"106 700 OFFCURVE",
"97 691 OFFCURVE",
"97 670 CURVE SMOOTH",
"97 30 LINE SMOOTH",
"97 9 OFFCURVE",
"106 0 OFFCURVE",
"127 0 CURVE SMOOTH",
"329 0 LINE SMOOTH",
"501 0 OFFCURVE",
"638 90 OFFCURVE",
"638 350 CURVE SMOOTH",
"638 609 OFFCURVE",
"501 700 OFFCURVE",
"329 700 CURVE SMOOTH"
);
},
{
closed = 1;
nodes = (
"447 624 OFFCURVE",
"547 549 OFFCURVE",
"547 350 CURVE SMOOTH",
"547 150 OFFCURVE",
"447 76 OFFCURVE",
"322 76 CURVE SMOOTH",
"185 76 LINE",
"185 624 LINE",
"322 624 LINE SMOOTH"
);
}
);
width = 695;
},
{
anchors = (
{
name = bottom;
position = "{331, 0}";
},
{
name = center;
position = "{348, 350}";
},
{
name = top;
position = "{333, 700}";
}
);
layerId = "2C16E7AF-C861-4509-900A-75D3055B0FF7";
name = Bold;
paths = (
{
closed = 1;
nodes = (
"109 700 LINE SMOOTH",
"81 700 OFFCURVE",
"69 688 OFFCURVE",
"69 660 CURVE SMOOTH",
"69 40 LINE SMOOTH",
"69 12 OFFCURVE",
"81 0 OFFCURVE",
"109 0 CURVE SMOOTH",
"333 0 LINE SMOOTH",
"539 0 OFFCURVE",
"653 124 OFFCURVE",
"653 350 CURVE SMOOTH",
"653 576 OFFCURVE",
"539 700 OFFCURVE",
"333 700 CURVE SMOOTH"
);
},
{
closed = 1;
nodes = (
"440 569 OFFCURVE",
"495 492 OFFCURVE",
"495 350 CURVE SMOOTH",
"495 208 OFFCURVE",
"440 131 OFFCURVE",
"333 131 CURVE SMOOTH",
"224 131 LINE",
"224 569 LINE",
"333 569 LINE SMOOTH"
);
}
);
width = 695;
}
);
unicode = 0044;
},
{
color = 10;
glyphname = Eth;
lastChange = "2013-08-29 18:05:17 +0000";
layers = (
{
layerId = UUID0;
name = Regular;
paths = (
{
closed = 1;
nodes = (
"115 700 LINE SMOOTH",
"94 700 OFFCURVE",
"85 691 OFFCURVE",
"85 670 CURVE SMOOTH",
"85 396 LINE",
"20 396 LINE SMOOTH",
"6 396 OFFCURVE",
"0 387 OFFCURVE",
"0 366 CURVE SMOOTH",
"0 350 LINE SMOOTH",
"0 329 OFFCURVE",
"6 320 OFFCURVE",
"20 320 CURVE SMOOTH",
"85 320 LINE",
"85 30 LINE SMOOTH",
"85 9 OFFCURVE",
"94 0 OFFCURVE",
"115 0 CURVE SMOOTH",
"330 0 LINE SMOOTH",
"502 0 OFFCURVE",
"641 90 OFFCURVE",
"641 350 CURVE SMOOTH",
"641 609 OFFCURVE",
"502 700 OFFCURVE",
"330 700 CURVE SMOOTH"
);
},
{
closed = 1;
nodes = (
"448 624 OFFCURVE",
"550 549 OFFCURVE",
"550 350 CURVE SMOOTH",
"550 150 OFFCURVE",
"448 76 OFFCURVE",
"323 76 CURVE SMOOTH",
"173 76 LINE",
"173 320 LINE",
"283 320 LINE SMOOTH",
"297 320 OFFCURVE",
"303 329 OFFCURVE",
"303 350 CURVE SMOOTH",
"303 366 LINE SMOOTH",
"303 387 OFFCURVE",
"297 396 OFFCURVE",
"283 396 CURVE SMOOTH",
"173 396 LINE",
"173 624 LINE",
"323 624 LINE SMOOTH"
);
}
);
width = 696;
},
{
layerId = "2C16E7AF-C861-4509-900A-75D3055B0FF7";
name = Bold;
paths = (
{
closed = 1;
nodes = (
"111 700 LINE SMOOTH",
"83 700 OFFCURVE",
"71 688 OFFCURVE",
"71 660 CURVE SMOOTH",
"71 421 LINE",
"42 421 LINE SMOOTH",
"21 421 OFFCURVE",
"12 406 OFFCURVE",
"12 371 CURVE SMOOTH",
"12 341 LINE SMOOTH",
"12 306 OFFCURVE",
"21 291 OFFCURVE",
"42 291 CURVE SMOOTH",
"71 291 LINE",
"71 40 LINE SMOOTH",
"71 12 OFFCURVE",
"83 0 OFFCURVE",
"111 0 CURVE SMOOTH",
"335 0 LINE SMOOTH",
"541 0 OFFCURVE",
"655 124 OFFCURVE",
"655 350 CURVE SMOOTH",
"655 576 OFFCURVE",
"541 700 OFFCURVE",
"335 700 CURVE SMOOTH"
);
},
{
closed = 1;
nodes = (
"442 569 OFFCURVE",
"497 492 OFFCURVE",
"497 350 CURVE SMOOTH",
"497 208 OFFCURVE",
"442 131 OFFCURVE",
"335 131 CURVE SMOOTH",
"226 131 LINE",
"226 291 LINE",
"285 291 LINE SMOOTH",
"306 291 OFFCURVE",
"315 306 OFFCURVE",
"315 341 CURVE SMOOTH",
"315 371 LINE SMOOTH",
"315 406 OFFCURVE",
"306 421 OFFCURVE",
"285 421 CURVE SMOOTH",
"226 421 LINE",
"226 569 LINE",
"335 569 LINE SMOOTH"
);
}
);
width = 696;
}
);
unicode = 00D0;
},
{
color = 10;
glyphname = E;
lastChange = "2014-09-14 19:57:56 +0000";
layers = (
{
anchors = (
{
name = bottom;
position = "{300, 0}";
},
{
name = ogonek;
position = "{477, 0}";
},
{
name = top;
position = "{296, 700}";
}
);
background = {
paths = (
{
closed = 0;
nodes = (
"495 662 LINE",
"140 662 LINE",
"140 38 LINE",
"496 38 LINE"
);
},
{
closed = 0;
nodes = (
"465 358 LINE",
"141 358 LINE"
);
}
);
};
layerId = UUID0;
name = Regular;
paths = (
{
closed = 1;
nodes = (
"127 700 LINE SMOOTH",
"106 700 OFFCURVE",
"97 691 OFFCURVE",
"97 670 CURVE SMOOTH",
"97 30 LINE SMOOTH",
"97 9 OFFCURVE",
"106 0 OFFCURVE",
"127 0 CURVE SMOOTH",
"477 0 LINE SMOOTH",
"491 0 OFFCURVE",
"497 9 OFFCURVE",
"497 30 CURVE SMOOTH",
"497 46 LINE SMOOTH",
"497 67 OFFCURVE",
"491 76 OFFCURVE",
"477 76 CURVE SMOOTH",
"185 76 LINE",
"185 320 LINE",
"446 320 LINE SMOOTH",
"460 320 OFFCURVE",
"466 329 OFFCURVE",
"466 350 CURVE SMOOTH",
"466 366 LINE SMOOTH",
"466 387 OFFCURVE",
"460 396 OFFCURVE",
"446 396 CURVE SMOOTH",
"185 396 LINE",
"185 624 LINE",
"476 624 LINE SMOOTH",
"490 624 OFFCURVE",
"496 633 OFFCURVE",
"496 654 CURVE SMOOTH",
"496 670 LINE SMOOTH",
"496 691 OFFCURVE",
"490 700 OFFCURVE",
"476 700 CURVE SMOOTH"
);
}
);
width = 546;
},
{
anchors = (
{
name = bottom;
position = "{287, 0}";
},
{
name = ogonek;
position = "{473, 0}";
},
{
name = top;
position = "{295, 700}";
}
);
background = {
paths = (
{
closed = 1;
nodes = (
"222.5 132 LINE",
"222.5 568 LINE",
"469 568 LINE SMOOTH",
"492 568 OFFCURVE",
"505 581 OFFCURVE",
"505 604 CURVE SMOOTH",
"505 664 LINE SMOOTH",
"505 687 OFFCURVE",
"492 700 OFFCURVE",
"469 700 CURVE SMOOTH",
"107 700 LINE SMOOTH",
"81 700 OFFCURVE",
"68 686 OFFCURVE",
"68 660 CURVE SMOOTH",
"67.5 0 LINE",
"506 0 LINE",
"506 132 LINE"
);
},
{
closed = 1;
nodes = (
"478 292 LINE",
"478 424 LINE",
"146 424 LINE",
"146 292 LINE"
);
},
{
closed = 0;
nodes = (
"505 634 LINE",
"145 634 LINE",
"145 66 LINE",
"506 66 LINE"
);
},
{
closed = 0;
nodes = (
"478 358 LINE",
"146 358 LINE"
);
}
);
};
layerId = "2C16E7AF-C861-4509-900A-75D3055B0FF7";
name = Bold;
paths = (
{
closed = 1;
nodes = (
"109 700 LINE SMOOTH",
"81 700 OFFCURVE",
"69 688 OFFCURVE",
"69 660 CURVE SMOOTH",
"69 40 LINE SMOOTH",
"69 12 OFFCURVE",
"81 0 OFFCURVE",
"109 0 CURVE SMOOTH",
"476 0 LINE SMOOTH",
"497 0 OFFCURVE",
"506 15 OFFCURVE",
"506 50 CURVE SMOOTH",
"506 81 LINE SMOOTH",
"506 116 OFFCURVE",
"497 131 OFFCURVE",
"476 131 CURVE SMOOTH",
"223 131 LINE",
"223 293 LINE",
"448 293 LINE SMOOTH",
"469 293 OFFCURVE",
"478 308 OFFCURVE",
"478 343 CURVE SMOOTH",
"478 374 LINE SMOOTH",
"478 409 OFFCURVE",
"469 424 OFFCURVE",
"448 424 CURVE SMOOTH",
"223 424 LINE",
"223 569 LINE",
"475 569 LINE SMOOTH",
"496 569 OFFCURVE",
"505 584 OFFCURVE",
"505 619 CURVE SMOOTH",
"505 650 LINE SMOOTH",
"505 685 OFFCURVE",
"496 700 OFFCURVE",
"475 700 CURVE SMOOTH"
);
}
);
width = 546;
}
);
unicode = 0045;
},
{
color = 10;
glyphname = F;
lastChange = "2013-08-29 18:05:17 +0000";
layers = (
{
layerId = UUID0;
name = Regular;
paths = (
{
closed = 1;
nodes = (
"127 700 LINE SMOOTH",
"106 700 OFFCURVE",
"97 691 OFFCURVE",
"97 670 CURVE SMOOTH",
"97 20 LINE SMOOTH",
"97 6 OFFCURVE",
"109 -2 OFFCURVE",
"137 -2 CURVE SMOOTH",
"145 -2 LINE SMOOTH",
"173 -2 OFFCURVE",
"185 6 OFFCURVE",
"185 20 CURVE SMOOTH",
"185 320 LINE",
"424 320 LINE SMOOTH",
"438 320 OFFCURVE",
"444 329 OFFCURVE",
"444 350 CURVE SMOOTH",
"444 366 LINE SMOOTH",
"444 387 OFFCURVE",
"438 396 OFFCURVE",
"424 396 CURVE SMOOTH",
"185 396 LINE",
"185 624 LINE",
"442 624 LINE SMOOTH",
"456 624 OFFCURVE",
"462 633 OFFCURVE",
"462 654 CURVE SMOOTH",
"462 670 LINE SMOOTH",
"462 691 OFFCURVE",
"456 700 OFFCURVE",
"442 700 CURVE SMOOTH"
);
}
);
width = 503;
},
{
layerId = "2C16E7AF-C861-4509-900A-75D3055B0FF7";
name = Bold;
paths = (
{
closed = 1;
nodes = (
"109 700 LINE SMOOTH",
"81 700 OFFCURVE",
"69 688 OFFCURVE",
"69 660 CURVE SMOOTH",
"69 30 LINE SMOOTH",
"69 9 OFFCURVE",
"87 -2 OFFCURVE",
"129 -2 CURVE SMOOTH",
"163 -2 LINE SMOOTH",
"205 -2 OFFCURVE",
"223 9 OFFCURVE",
"223 30 CURVE SMOOTH",
"223 292 LINE",
"436 292 LINE SMOOTH",
"457 292 OFFCURVE",
"466 307 OFFCURVE",
"466 342 CURVE SMOOTH",
"466 373 LINE SMOOTH",
"466 408 OFFCURVE",
"457 423 OFFCURVE",
"436 423 CURVE SMOOTH",
"223 423 LINE",
"223 569 LINE",
"443 569 LINE SMOOTH",
"464 569 OFFCURVE",
"473 584 OFFCURVE",
"473 619 CURVE SMOOTH",
"473 650 LINE SMOOTH",
"473 685 OFFCURVE",
"464 700 OFFCURVE",
"443 700 CURVE SMOOTH"
);
}
);
width = 503;
}
);
unicode = 0046;
},
{
color = 10;
glyphname = G;
lastChange = "2013-08-29 18:05:17 +0000";
layers = (
{
anchors = (
{
name = bottom;
position = "{387, 0}";
},
{
name = top;
position = "{336, 700}";
}
);
layerId = UUID0;
name = Regular;
paths = (
{
closed = 1;
nodes = (
"172 706 OFFCURVE",
"57 593 OFFCURVE",
"57 344 CURVE SMOOTH",
"57 106 OFFCURVE",
"167 -6 OFFCURVE",
"366 -6 CURVE SMOOTH",
"480 -6 OFFCURVE",
"589 10 OFFCURVE",
"589 66 CURVE SMOOTH",
"589 331 LINE SMOOTH",
"589 352 OFFCURVE",
"580 361 OFFCURVE",
"559 361 CURVE SMOOTH",
"384 361 LINE SMOOTH",
"370 361 OFFCURVE",
"364 352 OFFCURVE",
"364 331 CURVE SMOOTH",
"364 315 LINE SMOOTH",
"364 294 OFFCURVE",
"370 285 OFFCURVE",
"384 285 CURVE SMOOTH",
"501 285 LINE",
"501 83 LINE",
"474 76 OFFCURVE",
"424 70 OFFCURVE",
"372 70 CURVE SMOOTH",
"194 70 OFFCURVE",
"148 200 OFFCURVE",
"148 353 CURVE SMOOTH",
"148 527 OFFCURVE",
"206 630 OFFCURVE",
"383 630 CURVE SMOOTH",
"479 630 OFFCURVE",
"527 586 OFFCURVE",
"538 586 CURVE SMOOTH",
"551 586 OFFCURVE",
"572 627 OFFCURVE",
"572 644 CURVE SMOOTH",
"572 671 OFFCURVE",
"480 706 OFFCURVE",
"381 706 CURVE SMOOTH"
);
}
);
width = 672;
},
{
anchors = (
{
name = bottom;
position = "{355, 0}";
},
{
name = top;
position = "{350, 700}";
}
);
layerId = "2C16E7AF-C861-4509-900A-75D3055B0FF7";
name = Bold;
paths = (
{
closed = 1;
nodes = (
"157 708 OFFCURVE",
"45 590 OFFCURVE",
"45 352 CURVE SMOOTH",
"45 105 OFFCURVE",
"150 -8 OFFCURVE",
"374 -8 CURVE SMOOTH",
"445 -8 OFFCURVE",
"607 2 OFFCURVE",
"607 71 CURVE SMOOTH",
"607 349 LINE SMOOTH",
"607 377 OFFCURVE",
"595 389 OFFCURVE",
"567 389 CURVE SMOOTH",
"364 389 LINE SMOOTH",
"343 389 OFFCURVE",
"334 374 OFFCURVE",
"334 339 CURVE SMOOTH",
"334 307 LINE SMOOTH",
"334 272 OFFCURVE",
"343 257 OFFCURVE",
"364 257 CURVE SMOOTH",
"452 257 LINE",
"452 130 LINE",
"425 125 OFFCURVE",
"402 123 OFFCURVE",
"374 123 CURVE SMOOTH",
"259 123 OFFCURVE",
"203 201 OFFCURVE",
"203 351 CURVE SMOOTH",
"203 501 OFFCURVE",
"258 576 OFFCURVE",
"376 576 CURVE SMOOTH",
"471 576 OFFCURVE",
"516 544 OFFCURVE",
"528 544 CURVE SMOOTH",
"553 544 OFFCURVE",
"593 610 OFFCURVE",
"593 638 CURVE SMOOTH",
"593 680 OFFCURVE",
"467 708 OFFCURVE",
"379 708 CURVE SMOOTH"
);
}
);
width = 672;
}
);
unicode = 0047;
},
{
color = 10;
glyphname = H;
lastChange = "2013-08-29 18:05:17 +0000";
layers = (
{
anchors = (
{
name = bottom;
position = "{376, 0}";
},
{
name = center;
position = "{372, 523}";
},
{
name = top;
position = "{367, 700}";
}
);
layerId = UUID0;
name = Regular;
paths = (
{
closed = 1;
nodes = (
"587 702 LINE SMOOTH",
"559 702 OFFCURVE",
"547 694 OFFCURVE",
"547 680 CURVE SMOOTH",
"547 397 LINE",
"185 397 LINE",
"185 680 LINE SMOOTH",
"185 694 OFFCURVE",
"173 702 OFFCURVE",
"145 702 CURVE SMOOTH",
"137 702 LINE SMOOTH",
"109 702 OFFCURVE",
"97 694 OFFCURVE",
"97 680 CURVE SMOOTH",
"97 20 LINE SMOOTH",
"97 6 OFFCURVE",
"109 -2 OFFCURVE",
"137 -2 CURVE SMOOTH",
"145 -2 LINE SMOOTH",
"173 -2 OFFCURVE",
"185 6 OFFCURVE",
"185 20 CURVE SMOOTH",
"185 321 LINE",
"547 321 LINE",
"547 20 LINE SMOOTH",
"547 6 OFFCURVE",
"559 -2 OFFCURVE",
"587 -2 CURVE SMOOTH",
"595 -2 LINE SMOOTH",
"623 -2 OFFCURVE",
"635 6 OFFCURVE",
"635 20 CURVE SMOOTH",
"635 680 LINE SMOOTH",
"635 694 OFFCURVE",
"623 702 OFFCURVE",
"595 702 CURVE SMOOTH"
);
}
);
width = 733;
},
{
anchors = (
{
name = bottom;
position = "{381, 0}";
},
{
name = center;
position = "{375, 523}";
},
{
name = top;
position = "{367, 700}";
}
);
layerId = "2C16E7AF-C861-4509-900A-75D3055B0FF7";
name = Bold;
paths = (
{
closed = 1;
nodes = (
"569 702 LINE SMOOTH",
"527 702 OFFCURVE",
"509 691 OFFCURVE",
"509 670 CURVE SMOOTH",
"509 423 LINE",
"239 423 LINE",
"239 670 LINE SMOOTH",
"239 691 OFFCURVE",
"221 702 OFFCURVE",
"179 702 CURVE SMOOTH",
"144 702 LINE SMOOTH",
"102 702 OFFCURVE",
"84 691 OFFCURVE",
"84 670 CURVE SMOOTH",
"84 30 LINE SMOOTH",
"84 9 OFFCURVE",
"102 -2 OFFCURVE",
"144 -2 CURVE SMOOTH",
"179 -2 LINE SMOOTH",
"221 -2 OFFCURVE",
"239 9 OFFCURVE",
"239 30 CURVE SMOOTH",
"239 291 LINE",
"509 291 LINE",
"509 30 LINE SMOOTH",
"509 9 OFFCURVE",
"527 -2 OFFCURVE",
"569 -2 CURVE SMOOTH",
"604 -2 LINE SMOOTH",
"646 -2 OFFCURVE",
"664 9 OFFCURVE",
"664 30 CURVE SMOOTH",
"664 670 LINE SMOOTH",
"664 691 OFFCURVE",
"646 702 OFFCURVE",
"604 702 CURVE SMOOTH"
);
}
);
width = 733;
}
);
unicode = 0048;
},
{
color = 10;
glyphname = I;
lastChange = "2013-08-29 18:05:17 +0000";
layers = (
{
anchors = (
{
name = bottom;
position = "{140, 0}";
},
{
name = ogonek;
position = "{166, 0}";
},
{
name = top;
position = "{141, 700}";
}
);
layerId = UUID0;
name = Regular;
paths = (
{
closed = 1;
nodes = (
"137 702 LINE SMOOTH",
"109 702 OFFCURVE",
"97 694 OFFCURVE",
"97 680 CURVE SMOOTH",
"97 20 LINE SMOOTH",
"97 6 OFFCURVE",
"109 -2 OFFCURVE",
"137 -2 CURVE SMOOTH",
"145 -2 LINE SMOOTH",
"173 -2 OFFCURVE",
"185 6 OFFCURVE",
"185 20 CURVE SMOOTH",
"185 680 LINE SMOOTH",
"185 694 OFFCURVE",
"173 702 OFFCURVE",
"145 702 CURVE SMOOTH"
);
}
);
width = 282;
},
{
anchors = (
{
name = bottom;
position = "{141, 0}";
},
{
name = ogonek;
position = "{182, 0}";
},
{
name = top;
position = "{141, 700}";
}
);
layerId = "2C16E7AF-C861-4509-900A-75D3055B0FF7";
name = Bold;
paths = (
{
closed = 1;
nodes = (
"123 703 LINE SMOOTH",
"81 703 OFFCURVE",
"63 691 OFFCURVE",
"63 670 CURVE SMOOTH",
"63 30 LINE SMOOTH",
"63 9 OFFCURVE",
"81 -3 OFFCURVE",
"123 -3 CURVE SMOOTH",
"158 -3 LINE SMOOTH",
"200 -3 OFFCURVE",
"218 9 OFFCURVE",
"218 30 CURVE SMOOTH",
"218 670 LINE SMOOTH",
"218 691 OFFCURVE",
"200 703 OFFCURVE",
"158 703 CURVE SMOOTH"
);
}
);
width = 282;
}
);
unicode = 0049;
},
{
color = 10;
glyphname = J;
lastChange = "2013-08-29 18:05:17 +0000";
layers = (
{
anchors = (
{
name = top;
position = "{271, 700}";
}
);
layerId = UUID0;
name = Regular;
paths = (
{
closed = 1;
nodes = (
"271 702 LINE SMOOTH",
"243 702 OFFCURVE",
"231 694 OFFCURVE",
"231 680 CURVE SMOOTH",
"231 195 LINE SMOOTH",
"231 109 OFFCURVE",
"190 72 OFFCURVE",
"91 72 CURVE SMOOTH",
"59 72 OFFCURVE",
"36 81 OFFCURVE",
"28 81 CURVE SMOOTH",
"12 81 OFFCURVE",
"6 30 OFFCURVE",
"6 26 CURVE SMOOTH",
"6 -1 OFFCURVE",
"69 -6 OFFCURVE",
"107 -6 CURVE SMOOTH",
"261 -6 OFFCURVE",
"319 79 OFFCURVE",
"319 205 CURVE SMOOTH",
"319 680 LINE SMOOTH",
"319 694 OFFCURVE",
"307 702 OFFCURVE",
"279 702 CURVE SMOOTH"
);
}
);
width = 402;
},
{
anchors = (
{
name = top;
position = "{261, 700}";
}
);
layerId = "2C16E7AF-C861-4509-900A-75D3055B0FF7";
name = Bold;
paths = (
{
closed = 1;
nodes = (
"241 703 LINE SMOOTH",
"199 703 OFFCURVE",
"181 691 OFFCURVE",
"181 670 CURVE SMOOTH",
"181 227 LINE SMOOTH",
"181 154 OFFCURVE",
"157 123 OFFCURVE",
"97 123 CURVE SMOOTH",
"65 123 OFFCURVE",
"51 131 OFFCURVE",
"41 131 CURVE",
"10 128 OFFCURVE",
"0 56 OFFCURVE",
"0 38 CURVE SMOOTH",
"0 -5 OFFCURVE",
"100 -8 OFFCURVE",
"124 -8 CURVE SMOOTH",
"273 -8 OFFCURVE",
"336 75 OFFCURVE",
"336 202 CURVE SMOOTH",
"336 670 LINE SMOOTH",
"336 691 OFFCURVE",
"318 703 OFFCURVE",
"276 703 CURVE SMOOTH"
);
}
);
width = 402;
}
);
unicode = 004A;
},
{
color = 10;
glyphname = K;
lastChange = "2013-08-29 18:05:17 +0000";
layers = (
{
anchors = (
{
name = bottom;
position = "{288, 0}";
},
{
name = top;
position = "{288, 700}";
}
);
layerId = UUID0;
name = Regular;
paths = (
{
closed = 1;
nodes = (
"489 702 LINE SMOOTH",
"467 702 OFFCURVE",
"444 699 OFFCURVE",
"435 688 CURVE SMOOTH",
"189 374 LINE",
"185 374 LINE",
"185 680 LINE SMOOTH",
"185 694 OFFCURVE",
"173 702 OFFCURVE",
"145 702 CURVE SMOOTH",
"137 702 LINE SMOOTH",
"109 702 OFFCURVE",
"97 694 OFFCURVE",
"97 680 CURVE SMOOTH",
"97 20 LINE SMOOTH",
"97 6 OFFCURVE",
"109 -2 OFFCURVE",
"137 -2 CURVE SMOOTH",
"145 -2 LINE SMOOTH",
"173 -2 OFFCURVE",
"185 6 OFFCURVE",
"185 20 CURVE SMOOTH",
"185 333 LINE",
"189 333 LINE",
"475 11 LINE SMOOTH",
"487 -2 OFFCURVE",
"508 -2 OFFCURVE",
"530 -2 CURVE SMOOTH",
"542 -2 LINE SMOOTH",
"573 -2 OFFCURVE",
"586 1 OFFCURVE",
"586 12 CURVE SMOOTH",
"586 16 OFFCURVE",
"584 20 OFFCURVE",
"577 28 CURVE SMOOTH",
"274 357 LINE",
"524 669 LINE SMOOTH",
"531 677 OFFCURVE",
"534 684 OFFCURVE",
"534 689 CURVE SMOOTH",
"534 696 OFFCURVE",
"523 702 OFFCURVE",
"499 702 CURVE SMOOTH"
);
}
);
width = 576;
},
{
anchors = (
{
name = bottom;
position = "{298, 0}";
},
{
name = top;
position = "{308, 700}";
}
);
layerId = "2C16E7AF-C861-4509-900A-75D3055B0FF7";
name = Bold;
paths = (
{
closed = 1;
nodes = (
"462 702 LINE SMOOTH",
"433 702 OFFCURVE",
"411 698 OFFCURVE",
"402 683 CURVE SMOOTH",
"228 401 LINE",
"224 402 LINE",
"224 670 LINE SMOOTH",
"224 691 OFFCURVE",
"206 702 OFFCURVE",
"164 702 CURVE SMOOTH",
"129 702 LINE SMOOTH",
"87 702 OFFCURVE",
"69 691 OFFCURVE",
"69 670 CURVE SMOOTH",
"69 30 LINE SMOOTH",
"69 9 OFFCURVE",
"87 -2 OFFCURVE",
"129 -2 CURVE SMOOTH",
"164 -2 LINE SMOOTH",
"206 -2 OFFCURVE",
"224 9 OFFCURVE",
"224 30 CURVE SMOOTH",
"224 320 LINE",
"228 321 LINE",
"416 17 LINE SMOOTH",
"425 2 OFFCURVE",
"448 -2 OFFCURVE",
"477 -2 CURVE SMOOTH",
"535 -2 LINE SMOOTH",
"574 -2 OFFCURVE",
"591 4 OFFCURVE",
"591 13 CURVE SMOOTH",
"591 18 OFFCURVE",
"589 25 OFFCURVE",
"583 34 CURVE SMOOTH",
"364 370 LINE",
"557 666 LINE SMOOTH",
"563 675 OFFCURVE",
"565 682 OFFCURVE",
"565 687 CURVE SMOOTH",
"565 696 OFFCURVE",
"548 702 OFFCURVE",
"509 702 CURVE SMOOTH"
);
}
);
width = 576;
}
);
unicode = 004B;
},
{
color = 10;
glyphname = L;
lastChange = "2013-08-29 18:05:17 +0000";
layers = (
{
anchors = (
{
name = bottom;
position = "{282, 0}";
},
{
name = caron;
position = "{245, 700}";
},
{
name = center;
position = "{300, 335}";
},
{
name = top;
position = "{145, 702}";
}
);
layerId = UUID0;
name = Regular;
paths = (
{
closed = 1;
nodes = (
"137 702 LINE SMOOTH",
"109 702 OFFCURVE",
"97 694 OFFCURVE",
"97 680 CURVE SMOOTH",
"97 30 LINE SMOOTH",
"97 9 OFFCURVE",
"106 0 OFFCURVE",
"127 0 CURVE SMOOTH",
"460 0 LINE SMOOTH",
"474 0 OFFCURVE",
"480 9 OFFCURVE",
"480 30 CURVE SMOOTH",
"480 46 LINE SMOOTH",
"480 67 OFFCURVE",
"474 76 OFFCURVE",
"460 76 CURVE SMOOTH",
"185 76 LINE",
"185 680 LINE SMOOTH",
"185 694 OFFCURVE",
"173 702 OFFCURVE",
"145 702 CURVE SMOOTH"
);
}
);
width = 484;
},
{
anchors = (
{
name = bottom;
position = "{242, 0}";
},
{
name = caron;
position = "{262, 700}";
},
{
name = center;
position = "{330, 335}";
},
{
name = top;
position = "{150, 700}";
}
);
layerId = "2C16E7AF-C861-4509-900A-75D3055B0FF7";
name = Bold;
paths = (
{
closed = 1;
nodes = (
"129 702 LINE SMOOTH",
"87 702 OFFCURVE",
"69 691 OFFCURVE",
"69 670 CURVE SMOOTH",
"69 40 LINE SMOOTH",
"69 12 OFFCURVE",
"81 0 OFFCURVE",
"109 0 CURVE SMOOTH",
"446 0 LINE SMOOTH",
"467 0 OFFCURVE",
"476 15 OFFCURVE",
"476 50 CURVE SMOOTH",
"476 81 LINE SMOOTH",
"476 116 OFFCURVE",
"467 131 OFFCURVE",
"446 131 CURVE SMOOTH",
"223 131 LINE",
"223 670 LINE SMOOTH",
"223 691 OFFCURVE",
"205 702 OFFCURVE",
"163 702 CURVE SMOOTH"
);
}
);
width = 484;
}
);
unicode = 004C;
},
{
color = 10;
glyphname = LJ;
lastChange = "2013-08-29 18:05:17 +0000";
layers = (
{
layerId = UUID0;
name = Regular;
paths = (
{
closed = 1;
nodes = (
"137 702 LINE SMOOTH",
"109 702 OFFCURVE",
"97 694 OFFCURVE",
"97 680 CURVE SMOOTH",
"97 30 LINE SMOOTH",
"97 9 OFFCURVE",
"106 0 OFFCURVE",
"127 0 CURVE SMOOTH",
"390 0 LINE SMOOTH",
"404 0 OFFCURVE",
"410 9 OFFCURVE",
"410 30 CURVE SMOOTH",
"410 46 LINE SMOOTH",
"410 67 OFFCURVE",
"404 76 OFFCURVE",
"390 76 CURVE SMOOTH",
"185 76 LINE",
"185 680 LINE SMOOTH",
"185 694 OFFCURVE",
"173 702 OFFCURVE",
"145 702 CURVE SMOOTH"
);
},
{
closed = 1;
nodes = (
"585 702 LINE SMOOTH",
"557 702 OFFCURVE",
"545 694 OFFCURVE",
"545 680 CURVE SMOOTH",
"545 45 LINE SMOOTH",
"545 -41 OFFCURVE",
"504 -78 OFFCURVE",
"405 -78 CURVE SMOOTH",
"373 -78 OFFCURVE",
"350 -69 OFFCURVE",
"342 -69 CURVE SMOOTH",
"326 -69 OFFCURVE",
"320 -120 OFFCURVE",
"320 -124 CURVE SMOOTH",
"320 -151 OFFCURVE",
"383 -156 OFFCURVE",
"421 -156 CURVE SMOOTH",
"575 -156 OFFCURVE",
"633 -71 OFFCURVE",
"633 55 CURVE SMOOTH",
"633 680 LINE SMOOTH",
"633 694 OFFCURVE",
"621 702 OFFCURVE",
"593 702 CURVE SMOOTH"
);
}
);
width = 718;
},
{
layerId = "2C16E7AF-C861-4509-900A-75D3055B0FF7";
name = Bold;
paths = (
{
closed = 1;
nodes = (
"129 702 LINE SMOOTH",
"87 702 OFFCURVE",
"69 691 OFFCURVE",
"69 670 CURVE SMOOTH",
"69 40 LINE SMOOTH",
"69 12 OFFCURVE",
"81 0 OFFCURVE",
"109 0 CURVE SMOOTH",
"376 0 LINE SMOOTH",
"397 0 OFFCURVE",
"406 15 OFFCURVE",
"406 50 CURVE SMOOTH",
"406 81 LINE SMOOTH",
"406 116 OFFCURVE",
"397 131 OFFCURVE",
"376 131 CURVE SMOOTH",
"223 131 LINE",
"223 670 LINE SMOOTH",
"223 691 OFFCURVE",
"205 702 OFFCURVE",
"163 702 CURVE SMOOTH"
);
},
{
closed = 1;
nodes = (
"565 703 LINE SMOOTH",
"523 703 OFFCURVE",
"505 691 OFFCURVE",
"505 670 CURVE SMOOTH",
"505 54 LINE SMOOTH",
"505 -19 OFFCURVE",
"481 -50 OFFCURVE",
"421 -50 CURVE SMOOTH",
"389 -50 OFFCURVE",
"375 -42 OFFCURVE",
"365 -42 CURVE",
"334 -45 OFFCURVE",
"324 -117 OFFCURVE",
"324 -135 CURVE SMOOTH",
"324 -178 OFFCURVE",
"424 -181 OFFCURVE",
"448 -181 CURVE SMOOTH",
"597 -181 OFFCURVE",
"660 -85 OFFCURVE",
"660 42 CURVE SMOOTH",
"660 670 LINE SMOOTH",
"660 691 OFFCURVE",
"642 703 OFFCURVE",
"600 703 CURVE SMOOTH"
);
}
);
width = 718;
}
);
unicode = 01C7;
},
{
color = 10;
glyphname = Lslash;
lastChange = "2013-08-29 18:05:17 +0000";
layers = (
{
layerId = UUID0;
name = Regular;
paths = (
{
closed = 1;
nodes = (
"125 702 LINE SMOOTH",
"97 702 OFFCURVE",
"85 694 OFFCURVE",
"85 680 CURVE SMOOTH",
"85 394 LINE",
"17 354 LINE SMOOTH",
"5 347 OFFCURVE",
"-2 338 OFFCURVE",
"-2 324 CURVE SMOOTH",
"-2 318 LINE SMOOTH",
"-2 309 OFFCURVE",
"2 304 OFFCURVE",
"7 304 CURVE SMOOTH",
"9 304 OFFCURVE",
"13 305 OFFCURVE",
"17 308 CURVE SMOOTH",
"85 348 LINE",
"85 30 LINE SMOOTH",
"85 9 OFFCURVE",
"94 0 OFFCURVE",
"115 0 CURVE SMOOTH",
"464 0 LINE SMOOTH",
"478 0 OFFCURVE",
"484 9 OFFCURVE",
"484 30 CURVE SMOOTH",
"484 46 LINE SMOOTH",
"484 67 OFFCURVE",
"478 76 OFFCURVE",
"464 76 CURVE SMOOTH",
"173 76 LINE",
"173 401 LINE",
"281 465 LINE SMOOTH",
"293 472 OFFCURVE",
"300 481 OFFCURVE",
"300 495 CURVE SMOOTH",
"300 501 LINE SMOOTH",
"300 510 OFFCURVE",
"296 515 OFFCURVE",
"291 515 CURVE SMOOTH",
"288 515 OFFCURVE",
"285 513 OFFCURVE",
"281 511 CURVE SMOOTH",
"173 447 LINE",
"173 680 LINE SMOOTH",
"173 694 OFFCURVE",
"161 702 OFFCURVE",
"133 702 CURVE SMOOTH"
);
}
);
width = 486;
},
{
layerId = "2C16E7AF-C861-4509-900A-75D3055B0FF7";
name = Bold;
paths = (
{
closed = 1;
nodes = (
"131 702 LINE SMOOTH",
"89 702 OFFCURVE",
"71 691 OFFCURVE",
"71 670 CURVE SMOOTH",
"71 381 LINE",
"52 369 LINE SMOOTH",
"34 358 OFFCURVE",
"26 346 OFFCURVE",
"26 324 CURVE SMOOTH",
"26 304 LINE SMOOTH",
"26 290 OFFCURVE",
"29 284 OFFCURVE",
"37 284 CURVE SMOOTH",
"41 284 OFFCURVE",
"46 285 OFFCURVE",
"52 289 CURVE SMOOTH",
"71 301 LINE",
"71 40 LINE SMOOTH",
"71 12 OFFCURVE",
"83 0 OFFCURVE",
"111 0 CURVE SMOOTH",
"448 0 LINE SMOOTH",
"469 0 OFFCURVE",
"478 15 OFFCURVE",
"478 50 CURVE SMOOTH",
"478 81 LINE SMOOTH",
"478 116 OFFCURVE",
"469 131 OFFCURVE",
"448 131 CURVE SMOOTH",
"225 131 LINE",
"225 395 LINE",
"312 448 LINE SMOOTH",
"330 459 OFFCURVE",
"338 473 OFFCURVE",
"338 494 CURVE SMOOTH",
"338 514 LINE SMOOTH",
"338 527 OFFCURVE",
"334 534 OFFCURVE",
"327 534 CURVE SMOOTH",
"323 534 OFFCURVE",
"318 532 OFFCURVE",
"312 528 CURVE SMOOTH",
"225 475 LINE",
"225 670 LINE SMOOTH",
"225 691 OFFCURVE",
"207 702 OFFCURVE",
"165 702 CURVE SMOOTH"
);
}
);
width = 486;
}
);
unicode = 0141;
},
{
color = 10;
glyphname = M;
lastChange = "2013-08-29 18:05:17 +0000";
layers = (
{
layerId = UUID0;
name = Regular;
paths = (
{
closed = 1;
nodes = (
"680 702 LINE SMOOTH",
"656 702 OFFCURVE",
"644 695 OFFCURVE",
"638 684 CURVE SMOOTH",
"449 350 LINE",
"423 293 LINE",
"397 356 LINE",
"208 684 LINE SMOOTH",
"202 695 OFFCURVE",
"190 702 OFFCURVE",
"166 702 CURVE SMOOTH",
"130 702 LINE SMOOTH",
"102 702 OFFCURVE",
"90 694 OFFCURVE",
"90 680 CURVE SMOOTH",
"90 20 LINE SMOOTH",
"90 6 OFFCURVE",
"102 -2 OFFCURVE",
"130 -2 CURVE SMOOTH",
"137 -2 LINE SMOOTH",
"165 -2 OFFCURVE",
"177 6 OFFCURVE",
"177 20 CURVE SMOOTH",
"177 564 LINE",
"179 560 LINE",
"381 208 LINE SMOOTH",
"386 199 OFFCURVE",
"393 195 OFFCURVE",
"403 195 CURVE SMOOTH",
"443 195 LINE SMOOTH",
"454 195 OFFCURVE",
"460 199 OFFCURVE",
"465 208 CURVE SMOOTH",
"664 554 LINE",
"666 558 LINE",
"666 20 LINE SMOOTH",
"666 6 OFFCURVE",
"678 -2 OFFCURVE",
"706 -2 CURVE SMOOTH",
"713 -2 LINE SMOOTH",
"741 -2 OFFCURVE",
"753 6 OFFCURVE",
"753 20 CURVE SMOOTH",
"753 680 LINE SMOOTH",
"753 694 OFFCURVE",
"741 702 OFFCURVE",
"713 702 CURVE SMOOTH"
);
}
);
width = 843;
},
{
layerId = "2C16E7AF-C861-4509-900A-75D3055B0FF7";
name = Bold;
paths = (
{
closed = 1;
nodes = (
"662 702 LINE SMOOTH",
"633 702 OFFCURVE",
"610 695 OFFCURVE",
"599 675 CURVE SMOOTH",
"430 379 LINE",
"421 362 LINE",
"413 376 LINE",
"245 675 LINE SMOOTH",
"234 695 OFFCURVE",
"211 702 OFFCURVE",
"182 702 CURVE SMOOTH",
"129 702 LINE SMOOTH",
"87 702 OFFCURVE",
"69 691 OFFCURVE",
"69 670 CURVE SMOOTH",
"69 30 LINE SMOOTH",
"69 9 OFFCURVE",
"87 -2 OFFCURVE",
"129 -2 CURVE SMOOTH",
"158 -2 LINE SMOOTH",
"200 -2 OFFCURVE",
"218 9 OFFCURVE",
"218 30 CURVE SMOOTH",
"218 444 LINE",
"222 445 LINE",
"367 186 LINE",
"376 174 OFFCURVE",
"388 167 OFFCURVE",
"407 167 CURVE SMOOTH",
"436 167 LINE SMOOTH",
"455 167 OFFCURVE",
"467 174 OFFCURVE",
"476 186 CURVE",
"621 445 LINE",
"625 444 LINE",
"625 30 LINE SMOOTH",
"625 9 OFFCURVE",
"643 -2 OFFCURVE",
"685 -2 CURVE SMOOTH",
"714 -2 LINE SMOOTH",
"756 -2 OFFCURVE",
"774 9 OFFCURVE",
"774 30 CURVE SMOOTH",
"774 670 LINE SMOOTH",
"774 691 OFFCURVE",
"756 702 OFFCURVE",
"714 702 CURVE SMOOTH"
);
}
);
width = 843;
}
);
unicode = 004D;
},
{
color = 10;
glyphname = N;
lastChange = "2013-08-29 18:05:17 +0000";
layers = (
{
anchors = (
{
name = bottom;
position = "{360, 0}";
},
{
name = top;
position = "{360, 700}";
}
);
layerId = UUID0;
name = Regular;
paths = (
{
closed = 1;
nodes = (
"582 702 LINE SMOOTH",
"554 702 OFFCURVE",
"542 694 OFFCURVE",
"542 680 CURVE SMOOTH",
"542 145 LINE",
"512 201 LINE",
"193 683 LINE SMOOTH",
"183 697 OFFCURVE",
"173 702 OFFCURVE",
"151 702 CURVE SMOOTH",
"130 702 LINE SMOOTH",
"102 702 OFFCURVE",
"90 694 OFFCURVE",
"90 680 CURVE SMOOTH",
"90 20 LINE SMOOTH",
"90 6 OFFCURVE",
"102 -2 OFFCURVE",
"130 -2 CURVE SMOOTH",
"137 -2 LINE SMOOTH",
"165 -2 OFFCURVE",
"177 6 OFFCURVE",
"177 20 CURVE SMOOTH",
"177 561 LINE",
"204 510 LINE",
"534 12 LINE SMOOTH",
"540 3 OFFCURVE",
"550 -2 OFFCURVE",
"569 -2 CURVE SMOOTH",
"589 -2 LINE SMOOTH",
"617 -2 OFFCURVE",
"629 6 OFFCURVE",
"629 20 CURVE SMOOTH",
"629 680 LINE SMOOTH",
"629 694 OFFCURVE",
"617 702 OFFCURVE",
"589 702 CURVE SMOOTH"
);
}
);
width = 719;
},
{
anchors = (
{
name = bottom;
position = "{360, 0}";
},
{
name = top;
position = "{360, 700}";
}
);
layerId = "2C16E7AF-C861-4509-900A-75D3055B0FF7";
name = Bold;
paths = (
{
closed = 1;
nodes = (
"561 702 LINE SMOOTH",
"519 702 OFFCURVE",
"501 691 OFFCURVE",
"501 670 CURVE SMOOTH",
"501 270 LINE",
"474 311 LINE",
"238 675 LINE SMOOTH",
"223 698 OFFCURVE",
"201 702 OFFCURVE",
"172 702 CURVE SMOOTH",
"129 702 LINE SMOOTH",
"87 702 OFFCURVE",
"69 691 OFFCURVE",
"69 670 CURVE SMOOTH",
"69 30 LINE SMOOTH",
"69 9 OFFCURVE",
"87 -2 OFFCURVE",
"129 -2 CURVE SMOOTH",
"158 -2 LINE SMOOTH",
"200 -2 OFFCURVE",
"218 9 OFFCURVE",
"218 30 CURVE SMOOTH",
"218 435 LINE",
"239 403 LINE",
"486 25 LINE SMOOTH",
"501 2 OFFCURVE",
"523 -2 OFFCURVE",
"552 -2 CURVE SMOOTH",
"590 -2 LINE SMOOTH",
"632 -2 OFFCURVE",
"650 9 OFFCURVE",
"650 30 CURVE SMOOTH",
"650 670 LINE SMOOTH",
"650 691 OFFCURVE",
"632 702 OFFCURVE",
"590 702 CURVE SMOOTH"
);
}
);
width = 719;
}
);
unicode = 004E;
},
{
color = 10;
glyphname = Eng;
lastChange = "2013-08-29 18:05:17 +0000";
layers = (
{
components = (
{
name = dotlessj;
transform = "{1, 0, 0, 1, 444, 0}";
}
);
layerId = UUID0;
name = Regular;
paths = (
{
closed = 1;
nodes = (
"582 702 LINE SMOOTH",
"554 702 OFFCURVE",
"542 694 OFFCURVE",
"542 680 CURVE SMOOTH",
"542 145 LINE",
"512 201 LINE",
"193 683 LINE SMOOTH",
"183 697 OFFCURVE",
"173 702 OFFCURVE",
"151 702 CURVE SMOOTH",
"130 702 LINE SMOOTH",
"102 702 OFFCURVE",
"90 694 OFFCURVE",
"90 680 CURVE SMOOTH",
"90 20 LINE SMOOTH",
"90 6 OFFCURVE",
"102 -2 OFFCURVE",
"130 -2 CURVE SMOOTH",
"137 -2 LINE SMOOTH",
"165 -2 OFFCURVE",
"177 6 OFFCURVE",
"177 20 CURVE SMOOTH",
"177 561 LINE",
"204 510 LINE",
"558 -24 LINE",
"629 20 LINE",
"629 680 LINE SMOOTH",
"629 694 OFFCURVE",
"617 702 OFFCURVE",
"589 702 CURVE SMOOTH"
);
}
);
width = 719;
},
{
components = (
{
name = dotlessj;
transform = "{1, 0, 0, 1, 432, 0}";
}
);
layerId = "2C16E7AF-C861-4509-900A-75D3055B0FF7";
name = Bold;
paths = (
{
closed = 1;
nodes = (
"561 702 LINE SMOOTH",
"519 702 OFFCURVE",
"501 691 OFFCURVE",
"501 670 CURVE SMOOTH",
"501 270 LINE",
"473 313 LINE",
"238 675 LINE SMOOTH",
"223 698 OFFCURVE",
"201 702 OFFCURVE",
"172 702 CURVE SMOOTH",
"129 702 LINE SMOOTH",
"87 702 OFFCURVE",
"69 691 OFFCURVE",
"69 670 CURVE SMOOTH",
"69 30 LINE SMOOTH",
"69 9 OFFCURVE",
"87 -2 OFFCURVE",
"129 -2 CURVE SMOOTH",
"158 -2 LINE SMOOTH",
"200 -2 OFFCURVE",
"218 9 OFFCURVE",
"218 30 CURVE SMOOTH",
"218 435 LINE",
"243 396 LINE",
"520 -26 LINE",
"650 30 LINE",
"650 670 LINE SMOOTH",
"650 691 OFFCURVE",
"632 702 OFFCURVE",
"590 702 CURVE SMOOTH"
);
}
);
width = 719;
}
);
unicode = 014A;
},
{
color = 10;
glyphname = O;
lastChange = "2013-08-30 10:22:17 +0000";
layers = (
{
anchors = (
{
name = bottom;
position = "{367, 0}";
},
{
name = horn;
position = "{482, 682}";
},
{
name = ogonek;
position = "{443, 0}";
},
{
name = top;
position = "{366, 700}";
}
);
layerId = UUID0;
name = Regular;
paths = (
{
closed = 1;
nodes = (
"165 706 OFFCURVE",
"57 586 OFFCURVE",
"57 352 CURVE SMOOTH",
"57 118 OFFCURVE",
"165 -6 OFFCURVE",
"365 -6 CURVE SMOOTH",
"566 -6 OFFCURVE",
"674 118 OFFCURVE",
"674 352 CURVE SMOOTH",
"674 586 OFFCURVE",
"566 706 OFFCURVE",
"365 706 CURVE SMOOTH"
);
},
{
closed = 1;
nodes = (
"506 630 OFFCURVE",
"583 536 OFFCURVE",
"583 352 CURVE SMOOTH",
"583 168 OFFCURVE",
"506 70 OFFCURVE",
"365 70 CURVE SMOOTH",
"224 70 OFFCURVE",
"148 168 OFFCURVE",
"148 352 CURVE SMOOTH",
"148 536 OFFCURVE",
"224 630 OFFCURVE",
"365 630 CURVE SMOOTH"
);
}
);
width = 731;
},
{
anchors = (
{
name = bottom;
position = "{367, 0}";
},
{
name = horn;
position = "{474, 682}";
},
{
name = ogonek;
position = "{443, 0}";
},
{
name = top;
position = "{366, 700}";
}
);
layerId = "2C16E7AF-C861-4509-900A-75D3055B0FF7";
name = Bold;
paths = (
{
closed = 1;
nodes = (
"160 708 OFFCURVE",
"45 581 OFFCURVE",
"45 350 CURVE SMOOTH",
"45 119 OFFCURVE",
"160 -8 OFFCURVE",
"366 -8 CURVE SMOOTH",
"572 -8 OFFCURVE",
"686 119 OFFCURVE",
"686 350 CURVE SMOOTH",
"686 581 OFFCURVE",
"572 708 OFFCURVE",
"366 708 CURVE SMOOTH"
);
},
{
closed = 1;
nodes = (
"473 576 OFFCURVE",
"528 497 OFFCURVE",
"528 350 CURVE SMOOTH",
"528 203 OFFCURVE",
"473 123 OFFCURVE",
"366 123 CURVE SMOOTH",
"259 123 OFFCURVE",
"203 203 OFFCURVE",
"203 350 CURVE SMOOTH",
"203 497 OFFCURVE",
"259 576 OFFCURVE",
"366 576 CURVE SMOOTH"
);
}
);
width = 731;
}
);
unicode = 004F;
},
{
color = 10;
glyphname = Oslash;
lastChange = "2013-08-29 18:05:17 +0000";
layers = (
{
anchors = (
{
name = top;
position = "{366, 700}";
}
);
layerId = UUID0;
name = Regular;
paths = (
{
closed = 1;
nodes = (
"165 706 OFFCURVE",
"57 586 OFFCURVE",
"57 352 CURVE SMOOTH",
"57 253 OFFCURVE",
"76 175 OFFCURVE",
"113 116 CURVE",
"40 36 LINE SMOOTH",
"36 31 OFFCURVE",
"34 26 OFFCURVE",
"34 22 CURVE SMOOTH",
"34 13 OFFCURVE",
"47 1 OFFCURVE",
"56 1 CURVE SMOOTH",
"60 1 OFFCURVE",
"65 4 OFFCURVE",
"70 10 CURVE SMOOTH",
"137 84 LINE",
"189 24 OFFCURVE",
"265 -6 OFFCURVE",
"365 -6 CURVE SMOOTH",
"566 -6 OFFCURVE",
"674 118 OFFCURVE",
"674 352 CURVE SMOOTH",
"674 461 OFFCURVE",
"650 545 OFFCURVE",
"605 604 CURVE",
"663 668 LINE SMOOTH",
"667 673 OFFCURVE",
"669 677 OFFCURVE",
"669 682 CURVE SMOOTH",
"669 690 OFFCURVE",
"656 702 OFFCURVE",
"647 702 CURVE SMOOTH",
"642 702 OFFCURVE",
"638 700 OFFCURVE",
"633 694 CURVE SMOOTH",
"578 633 LINE",
"526 681 OFFCURVE",
"455 706 OFFCURVE",
"365 706 CURVE SMOOTH"
);
},
{
closed = 1;
nodes = (
"569 491 OFFCURVE",
"583 429 OFFCURVE",
"583 352 CURVE SMOOTH",
"583 168 OFFCURVE",
"506 70 OFFCURVE",
"365 70 CURVE SMOOTH",
"290 70 OFFCURVE",
"233 97 OFFCURVE",
"197 151 CURVE",
"543 536 LINE"
);
},
{
closed = 1;
nodes = (
"431 630 OFFCURVE",
"483 609 OFFCURVE",
"519 568 CURVE",
"177 187 LINE",
"158 231 OFFCURVE",
"148 286 OFFCURVE",
"148 352 CURVE SMOOTH",
"148 536 OFFCURVE",
"224 630 OFFCURVE",
"365 630 CURVE SMOOTH"
);
}
);
width = 731;
},
{
anchors = (
{
name = top;
position = "{366, 700}";
}
);
layerId = "2C16E7AF-C861-4509-900A-75D3055B0FF7";
name = Bold;
paths = (
{
closed = 1;
nodes = (
"160 708 OFFCURVE",
"45 581 OFFCURVE",
"45 350 CURVE SMOOTH",
"45 260 OFFCURVE",
"62 186 OFFCURVE",
"95 129 CURVE",
"29 54 LINE SMOOTH",
"22 47 OFFCURVE",
"19 40 OFFCURVE",
"19 34 CURVE SMOOTH",
"19 15 OFFCURVE",
"51 -12 OFFCURVE",
"67 -12 CURVE SMOOTH",
"74 -12 OFFCURVE",
"82 -8 OFFCURVE",
"89 0 CURVE SMOOTH",
"147 66 LINE",
"200 17 OFFCURVE",
"274 -8 OFFCURVE",
"366 -8 CURVE SMOOTH",
"572 -8 OFFCURVE",
"686 119 OFFCURVE",
"686 350 CURVE SMOOTH",
"686 454 OFFCURVE",
"662 537 OFFCURVE",
"618 597 CURVE",
"672 658 LINE SMOOTH",
"679 665 OFFCURVE",
"682 672 OFFCURVE",
"682 678 CURVE SMOOTH",
"682 696 OFFCURVE",
"651 724 OFFCURVE",
"634 724 CURVE SMOOTH",
"626 724 OFFCURVE",
"619 720 OFFCURVE",
"612 712 CURVE SMOOTH",
"560 653 LINE",
"510 689 OFFCURVE",
"444 708 OFFCURVE",
"366 708 CURVE SMOOTH"
);
},
{
closed = 1;
nodes = (
"521 441 OFFCURVE",
"528 399 OFFCURVE",
"528 350 CURVE SMOOTH",
"528 203 OFFCURVE",
"473 123 OFFCURVE",
"366 123 CURVE SMOOTH",
"314 123 OFFCURVE",
"274 142 OFFCURVE",
"247 178 CURVE",
"509 474 LINE"
);
},
{
closed = 1;
nodes = (
"405 576 OFFCURVE",
"438 565 OFFCURVE",
"463 544 CURVE",
"211 260 LINE",
"206 287 OFFCURVE",
"203 316 OFFCURVE",
"203 350 CURVE SMOOTH",
"203 497 OFFCURVE",
"259 576 OFFCURVE",
"366 576 CURVE SMOOTH"
);
}
);
width = 731;
}
);
unicode = 00D8;
},
{
color = 10;
glyphname = OE;
lastChange = "2013-08-29 18:05:17 +0000";
layers = (
{
anchors = (
{
name = top;
position = "{511, 700}";
}
);
layerId = UUID0;
name = Regular;
paths = (
{
closed = 1;
nodes = (
"165 706 OFFCURVE",
"57 586 OFFCURVE",
"57 352 CURVE SMOOTH",
"57 118 OFFCURVE",
"165 -6 OFFCURVE",
"365 -6 CURVE SMOOTH",
"471 -6 OFFCURVE",
"549 28 OFFCURVE",
"600 96 CURVE",
"585 116 LINE",
"585 30 LINE SMOOTH",
"585 9 OFFCURVE",
"594 0 OFFCURVE",
"615 0 CURVE SMOOTH",
"968 0 LINE SMOOTH",
"982 0 OFFCURVE",
"988 9 OFFCURVE",
"988 30 CURVE SMOOTH",
"988 46 LINE SMOOTH",
"988 67 OFFCURVE",
"982 76 OFFCURVE",
"968 76 CURVE SMOOTH",
"673 76 LINE",
"673 320 LINE",
"937 320 LINE SMOOTH",
"951 320 OFFCURVE",
"957 329 OFFCURVE",
"957 350 CURVE SMOOTH",
"957 366 LINE SMOOTH",
"957 387 OFFCURVE",
"951 396 OFFCURVE",
"937 396 CURVE SMOOTH",
"673 396 LINE",
"673 624 LINE",
"967 624 LINE SMOOTH",
"981 624 OFFCURVE",
"987 633 OFFCURVE",
"987 654 CURVE SMOOTH",
"987 670 LINE SMOOTH",
"987 691 OFFCURVE",
"981 700 OFFCURVE",
"967 700 CURVE SMOOTH",
"615 700 LINE SMOOTH",
"594 700 OFFCURVE",
"585 691 OFFCURVE",
"585 670 CURVE SMOOTH",
"585 586 LINE",
"600 606 LINE",
"549 672 OFFCURVE",
"471 706 OFFCURVE",
"365 706 CURVE SMOOTH"
);
},
{
closed = 1;
nodes = (
"506 630 OFFCURVE",
"583 536 OFFCURVE",
"583 352 CURVE SMOOTH",
"583 168 OFFCURVE",
"506 70 OFFCURVE",
"365 70 CURVE SMOOTH",
"224 70 OFFCURVE",
"148 168 OFFCURVE",
"148 352 CURVE SMOOTH",
"148 536 OFFCURVE",
"224 630 OFFCURVE",
"365 630 CURVE SMOOTH"
);
}
);
width = 1021;
},
{
anchors = (
{
name = top;
position = "{511, 700}";
}
);
layerId = "2C16E7AF-C861-4509-900A-75D3055B0FF7";
name = Bold;
paths = (
{
closed = 1;
nodes = (
"156 708 OFFCURVE",
"45 581 OFFCURVE",
"45 350 CURVE SMOOTH",
"45 119 OFFCURVE",
"156 -8 OFFCURVE",
"356 -8 CURVE SMOOTH",
"439 -8 OFFCURVE",
"509 15 OFFCURVE",
"564 62 CURVE",
"530 116 LINE",
"530 41 LINE",
"530 12 OFFCURVE",
"542 0 OFFCURVE",
"570 0 CURVE SMOOTH",
"937 0 LINE SMOOTH",
"958 0 OFFCURVE",
"967 15 OFFCURVE",
"967 50 CURVE SMOOTH",
"967 81 LINE SMOOTH",
"967 116 OFFCURVE",
"958 131 OFFCURVE",
"937 131 CURVE SMOOTH",
"684 131 LINE",
"684 293 LINE",
"909 293 LINE SMOOTH",
"930 293 OFFCURVE",
"939 308 OFFCURVE",
"939 343 CURVE SMOOTH",
"939 374 LINE SMOOTH",
"939 409 OFFCURVE",
"930 424 OFFCURVE",
"909 424 CURVE SMOOTH",
"684 424 LINE",
"684 569 LINE",
"936 569 LINE SMOOTH",
"957 569 OFFCURVE",
"966 584 OFFCURVE",
"966 619 CURVE SMOOTH",
"966 650 LINE SMOOTH",
"966 685 OFFCURVE",
"957 700 OFFCURVE",
"936 700 CURVE SMOOTH",
"570 700 LINE SMOOTH",
"542 700 OFFCURVE",
"530 688 OFFCURVE",
"530 662 CURVE SMOOTH",
"530 587 LINE",
"564 637 LINE",
"508 685 OFFCURVE",
"441 708 OFFCURVE",
"356 708 CURVE SMOOTH"
);
},
{
closed = 1;
nodes = (
"473 576 OFFCURVE",
"528 497 OFFCURVE",
"528 350 CURVE SMOOTH",
"528 203 OFFCURVE",
"473 123 OFFCURVE",
"366 123 CURVE SMOOTH",
"259 123 OFFCURVE",
"203 203 OFFCURVE",
"203 350 CURVE SMOOTH",
"203 497 OFFCURVE",
"259 576 OFFCURVE",
"366 576 CURVE SMOOTH"
);
}
);
width = 1021;
}
);
unicode = 0152;
},
{
color = 10;
glyphname = P;
lastChange = "2013-08-29 18:05:17 +0000";
layers = (
{
layerId = UUID0;
name = Regular;
paths = (
{
closed = 1;
nodes = (
"115 700 LINE SMOOTH",
"94 700 OFFCURVE",
"85 691 OFFCURVE",
"85 670 CURVE SMOOTH",
"85 20 LINE SMOOTH",
"85 6 OFFCURVE",
"97 -2 OFFCURVE",
"125 -2 CURVE SMOOTH",
"133 -2 LINE SMOOTH",
"161 -2 OFFCURVE",
"173 6 OFFCURVE",
"173 20 CURVE SMOOTH",
"173 298 LINE",
"328 298 LINE SMOOTH",
"380 298 OFFCURVE",
"541 321 OFFCURVE",
"541 504 CURVE SMOOTH",
"541 673 OFFCURVE",
"404 700 OFFCURVE",
"318 700 CURVE SMOOTH"
);
},
{
closed = 1;
nodes = (
"374 624 OFFCURVE",
"450 603 OFFCURVE",
"450 504 CURVE SMOOTH",
"450 395 OFFCURVE",
"369 374 OFFCURVE",
"329 374 CURVE SMOOTH",
"173 374 LINE",
"173 624 LINE",
"315 624 LINE SMOOTH"
);
}
);
width = 570;
},
{
layerId = "2C16E7AF-C861-4509-900A-75D3055B0FF7";
name = Bold;
paths = (
{
closed = 1;
nodes = (
"109 700 LINE SMOOTH",
"81 700 OFFCURVE",
"69 688 OFFCURVE",
"69 660 CURVE SMOOTH",
"69 30 LINE SMOOTH",
"69 9 OFFCURVE",
"87 -2 OFFCURVE",
"129 -2 CURVE SMOOTH",
"163 -2 LINE SMOOTH",
"205 -2 OFFCURVE",
"223 9 OFFCURVE",
"223 30 CURVE SMOOTH",
"223 262 LINE",
"329 262 LINE SMOOTH",
"383 262 OFFCURVE",
"557 288 OFFCURVE",
"557 481 CURVE SMOOTH",
"557 674 OFFCURVE",
"408 700 OFFCURVE",
"319 700 CURVE SMOOTH"
);
},
{
closed = 1;
nodes = (
"350 569 OFFCURVE",
"399 553 OFFCURVE",
"399 481 CURVE SMOOTH",
"399 409 OFFCURVE",
"350 394 OFFCURVE",
"312 394 CURVE SMOOTH",
"223 394 LINE",
"223 569 LINE",
"312 569 LINE SMOOTH"
);
}
);
width = 570;
}
);
unicode = 0050;
},
{
color = 10;
glyphname = Thorn;
lastChange = "2013-08-29 18:05:17 +0000";
layers = (
{
layerId = UUID0;
name = Regular;
paths = (
{
closed = 1;
nodes = (
"125 702 LINE SMOOTH",
"97 702 OFFCURVE",
"85 694 OFFCURVE",
"85 680 CURVE SMOOTH",
"85 20 LINE SMOOTH",
"85 6 OFFCURVE",
"97 -2 OFFCURVE",
"125 -2 CURVE SMOOTH",
"133 -2 LINE SMOOTH",
"161 -2 OFFCURVE",
"173 6 OFFCURVE",
"173 20 CURVE SMOOTH",
"173 176 LINE",
"328 176 LINE SMOOTH",
"380 176 OFFCURVE",
"541 199 OFFCURVE",
"541 382 CURVE SMOOTH",
"541 551 OFFCURVE",
"404 578 OFFCURVE",
"318 578 CURVE SMOOTH",
"173 578 LINE",
"173 680 LINE SMOOTH",
"173 694 OFFCURVE",
"161 702 OFFCURVE",
"133 702 CURVE SMOOTH"
);
},
{
closed = 1;
nodes = (
"374 502 OFFCURVE",
"450 481 OFFCURVE",
"450 382 CURVE SMOOTH",
"450 273 OFFCURVE",
"369 252 OFFCURVE",
"329 252 CURVE SMOOTH",
"173 252 LINE",
"173 502 LINE",
"315 502 LINE SMOOTH"
);
}
);
width = 567;
},
{
layerId = "2C16E7AF-C861-4509-900A-75D3055B0FF7";
name = Bold;
paths = (
{
closed = 1;
nodes = (
"128 702 LINE SMOOTH",
"86 702 OFFCURVE",
"68 691 OFFCURVE",
"68 670 CURVE SMOOTH",
"68 30 LINE SMOOTH",
"68 9 OFFCURVE",
"86 -2 OFFCURVE",
"128 -2 CURVE SMOOTH",
"162 -2 LINE SMOOTH",
"204 -2 OFFCURVE",
"222 9 OFFCURVE",
"222 30 CURVE SMOOTH",
"222 155 LINE",
"335 155 LINE SMOOTH",
"389 155 OFFCURVE",
"563 181 OFFCURVE",
"563 374 CURVE SMOOTH",
"563 567 OFFCURVE",
"414 593 OFFCURVE",
"325 593 CURVE SMOOTH",
"222 593 LINE",
"222 670 LINE SMOOTH",
"222 691 OFFCURVE",
"204 702 OFFCURVE",
"162 702 CURVE SMOOTH"
);
},
{
closed = 1;
nodes = (
"356 462 OFFCURVE",
"405 446 OFFCURVE",
"405 374 CURVE SMOOTH",
"405 302 OFFCURVE",
"356 287 OFFCURVE",
"318 287 CURVE SMOOTH",
"222 287 LINE",
"222 462 LINE",
"318 462 LINE SMOOTH"
);
}
);
width = 567;
}
);
unicode = 00DE;
},
{
color = 10;
glyphname = Q;
lastChange = "2013-09-06 17:29:43 +0000";
layers = (
{
layerId = UUID0;
name = Regular;
paths = (
{
closed = 1;
nodes = (
"165 706 OFFCURVE",
"57 582 OFFCURVE",
"57 347 CURVE SMOOTH",
"57 168 OFFCURVE",
"120 56 OFFCURVE",
"246 6 CURVE SMOOTH",
"275 -6 OFFCURVE",
"630 -148 OFFCURVE",
"642 -148 CURVE SMOOTH",
"665 -148 OFFCURVE",
"684 -88 OFFCURVE",
"684 -76 CURVE SMOOTH",
"684 -69 OFFCURVE",
"679 -64 OFFCURVE",
"670 -61 CURVE SMOOTH",
"473 1 LINE",
"473 5 LINE",
"603 40 OFFCURVE",
"674 157 OFFCURVE",
"674 347 CURVE SMOOTH",
"674 581 OFFCURVE",
"566 706 OFFCURVE",
"365 706 CURVE SMOOTH"
);
},
{
closed = 1;
nodes = (
"504 630 OFFCURVE",
"583 529 OFFCURVE",
"583 347 CURVE SMOOTH",
"583 166 OFFCURVE",
"504 67 OFFCURVE",
"365 67 CURVE SMOOTH",
"227 67 OFFCURVE",
"148 165 OFFCURVE",
"148 347 CURVE SMOOTH",
"148 530 OFFCURVE",
"227 630 OFFCURVE",
"365 630 CURVE SMOOTH"
);
}
);
width = 731;
},
{
layerId = "2C16E7AF-C861-4509-900A-75D3055B0FF7";
name = Bold;
paths = (
{
closed = 1;
nodes = (
"160 708 OFFCURVE",
"45 581 OFFCURVE",
"45 350 CURVE SMOOTH",
"45 177 OFFCURVE",
"109 62 OFFCURVE",
"227 16 CURVE SMOOTH",
"634 -145 OFFCURVE",
"631 -146 OFFCURVE",
"641 -146 CURVE SMOOTH",
"673 -146 OFFCURVE",
"696 -60 OFFCURVE",
"696 -44 CURVE SMOOTH",
"696 -37 OFFCURVE",
"691 -31 OFFCURVE",
"682 -28 CURVE SMOOTH",
"529 27 LINE",
"529 31 LINE",
"630 83 OFFCURVE",
"686 192 OFFCURVE",
"686 350 CURVE SMOOTH",
"686 581 OFFCURVE",
"572 708 OFFCURVE",
"366 708 CURVE SMOOTH"
);
},
{
closed = 1;
nodes = (
"473 576 OFFCURVE",
"528 497 OFFCURVE",
"528 350 CURVE SMOOTH",
"528 200 OFFCURVE",
"473 119 OFFCURVE",
"366 119 CURVE SMOOTH",
"259 119 OFFCURVE",
"203 200 OFFCURVE",
"203 350 CURVE SMOOTH",
"203 497 OFFCURVE",
"259 576 OFFCURVE",
"366 576 CURVE SMOOTH"
);
}
);
width = 731;
}
);
unicode = 0051;
},
{
color = 10;
glyphname = R;
lastChange = "2013-08-29 18:05:17 +0000";
layers = (
{
anchors = (
{
name = bottom;
position = "{305, 0}";
},
{
name = top;
position = "{305, 700}";
}
);
layerId = UUID0;
name = Regular;
paths = (
{
closed = 1;
nodes = (
"127 700 LINE SMOOTH",
"106 700 OFFCURVE",
"97 691 OFFCURVE",
"97 670 CURVE SMOOTH",
"97 20 LINE SMOOTH",
"97 6 OFFCURVE",
"109 -2 OFFCURVE",
"137 -2 CURVE SMOOTH",
"145 -2 LINE SMOOTH",
"173 -2 OFFCURVE",
"185 6 OFFCURVE",
"185 20 CURVE SMOOTH",
"185 308 LINE",
"275 308 LINE SMOOTH",
"353 308 OFFCURVE",
"394 288 OFFCURVE",
"424 210 CURVE SMOOTH",
"500 14 LINE SMOOTH",
"504 4 OFFCURVE",
"520 -2 OFFCURVE",
"540 -2 CURVE SMOOTH",
"550 -2 LINE SMOOTH",
"579 -2 OFFCURVE",
"592 4 OFFCURVE",
"592 14 CURVE SMOOTH",
"592 17 OFFCURVE",
"591 22 OFFCURVE",
"589 28 CURVE SMOOTH",
"511 225 LINE SMOOTH",
"485 291 OFFCURVE",
"463 336 OFFCURVE",
"421 350 CURVE",
"421 354 LINE",
"491 382 OFFCURVE",
"536 437 OFFCURVE",
"536 523 CURVE SMOOTH",
"536 649 OFFCURVE",
"451 700 OFFCURVE",
"295 700 CURVE SMOOTH"
);
},
{
closed = 1;
nodes = (
"391 624 OFFCURVE",
"445 588 OFFCURVE",
"445 507 CURVE SMOOTH",
"445 441 OFFCURVE",
"389 384 OFFCURVE",
"317 384 CURVE SMOOTH",
"185 384 LINE",
"185 624 LINE",
"310 624 LINE SMOOTH"
);
}
);
width = 610;
},
{
anchors = (
{
name = bottom;
position = "{305, 0}";
},
{
name = top;
position = "{305, 700}";
}
);
layerId = "2C16E7AF-C861-4509-900A-75D3055B0FF7";
name = Bold;
paths = (
{
closed = 1;
nodes = (
"109 700 LINE SMOOTH",
"81 700 OFFCURVE",
"69 688 OFFCURVE",
"69 660 CURVE SMOOTH",
"69 30 LINE SMOOTH",
"69 9 OFFCURVE",
"87 -2 OFFCURVE",
"129 -2 CURVE SMOOTH",
"163 -2 LINE SMOOTH",
"205 -2 OFFCURVE",
"223 9 OFFCURVE",
"223 30 CURVE SMOOTH",
"223 274 LINE",
"262 274 LINE SMOOTH",
"327 274 OFFCURVE",
"343 254 OFFCURVE",
"363 214 CURVE",
"442 19 LINE SMOOTH",
"448 3 OFFCURVE",
"471 -2 OFFCURVE",
"500 -2 CURVE SMOOTH",
"541 -2 LINE SMOOTH",
"582 -2 OFFCURVE",
"601 6 OFFCURVE",
"601 18 CURVE SMOOTH",
"601 23 OFFCURVE",
"599 29 OFFCURVE",
"596 37 CURVE SMOOTH",
"508 257 LINE SMOOTH",
"491 300 OFFCURVE",
"461 339 OFFCURVE",
"436 349 CURVE",
"436 353 LINE",
"505 379 OFFCURVE",
"553 435 OFFCURVE",
"553 512 CURVE SMOOTH",
"553 632 OFFCURVE",
"477 700 OFFCURVE",
"304 700 CURVE SMOOTH"
);
},
{
closed = 1;
nodes = (
"363 569 OFFCURVE",
"395 539 OFFCURVE",
"395 493 CURVE SMOOTH",
"395 445 OFFCURVE",
"359 407 OFFCURVE",
"318 407 CURVE SMOOTH",
"223 407 LINE",
"223 569 LINE",
"311 569 LINE SMOOTH"
);
}
);
width = 610;
}
);
unicode = 0052;
},
{
color = 10;
glyphname = S;
lastChange = "2013-09-09 15:36:40 +0000";
layers = (
{
anchors = (
{
name = bottom;
position = "{250, 0}";
},
{
name = top;
position = "{250, 700}";
}
);
background = {
paths = (
{
closed = 1;
nodes = (
"138 706 OFFCURVE",
"50 628 OFFCURVE",
"50 517 CURVE SMOOTH",
"50 282 OFFCURVE",
"375 360 OFFCURVE",
"375 190 CURVE SMOOTH",
"375 116 OFFCURVE",
"320 70 OFFCURVE",
"244 70 CURVE SMOOTH",
"141 70 OFFCURVE",
"85 121 OFFCURVE",
"72 121 CURVE SMOOTH",
"61 121 OFFCURVE",
"37 83 OFFCURVE",
"37 67 CURVE SMOOTH",
"37 40 OFFCURVE",
"127 -6 OFFCURVE",
"244 -6 CURVE SMOOTH",
"379 -6 OFFCURVE",
"466 67 OFFCURVE",
"466 190 CURVE SMOOTH",
"466 436 OFFCURVE",
"141 367 OFFCURVE",
"141 513 CURVE SMOOTH",
"141 589 OFFCURVE",
"195 630 OFFCURVE",
"270 630 CURVE SMOOTH",
"349 630 OFFCURVE",
"386 592 OFFCURVE",
"401 592 CURVE SMOOTH",
"411 592 OFFCURVE",
"433 630 OFFCURVE",
"433 645 CURVE SMOOTH",
"433 681 OFFCURVE",
"329 706 OFFCURVE",
"272 706 CURVE SMOOTH"
);
}
);
};
layerId = UUID0;
name = Regular;
paths = (
{
closed = 1;
nodes = (
"138 706 OFFCURVE",
"50 629 OFFCURVE",
"50 521 CURVE SMOOTH",
"50 390 OFFCURVE",
"139 357 OFFCURVE",
"224 324 CURVE SMOOTH",
"301 294 OFFCURVE",
"375 268 OFFCURVE",
"375 188 CURVE SMOOTH",
"375 117 OFFCURVE",
"320 70 OFFCURVE",
"244 70 CURVE SMOOTH",
"141 70 OFFCURVE",
"85 121 OFFCURVE",
"72 121 CURVE SMOOTH",
"61 121 OFFCURVE",
"37 83 OFFCURVE",
"37 67 CURVE SMOOTH",
"37 40 OFFCURVE",
"127 -6 OFFCURVE",
"244 -6 CURVE SMOOTH",
"379 -6 OFFCURVE",
"466 68 OFFCURVE",
"466 188 CURVE SMOOTH",
"466 324 OFFCURVE",
"366 364 OFFCURVE",
"277 398 CURVE SMOOTH",
"205 425 OFFCURVE",
"141 444 OFFCURVE",
"141 517 CURVE SMOOTH",
"141 590 OFFCURVE",
"195 630 OFFCURVE",
"270 630 CURVE SMOOTH",
"349 630 OFFCURVE",
"386 592 OFFCURVE",
"401 592 CURVE SMOOTH",
"411 592 OFFCURVE",
"433 630 OFFCURVE",
"433 645 CURVE SMOOTH",
"433 681 OFFCURVE",
"329 706 OFFCURVE",
"272 706 CURVE SMOOTH"
);
}
);
width = 500;
},
{
anchors = (
{
name = bottom;
position = "{250, 0}";
},
{
name = top;
position = "{250, 700}";
}
);
layerId = "2C16E7AF-C861-4509-900A-75D3055B0FF7";
name = Bold;
paths = (
{
closed = 1;
nodes = (
"156 708 OFFCURVE",
"36 650 OFFCURVE",
"36 506 CURVE SMOOTH",
"36 386 OFFCURVE",
"102 338 OFFCURVE",
"171 305 CURVE SMOOTH",
"246 270 OFFCURVE",
"325 253 OFFCURVE",
"325 193 CURVE SMOOTH",
"325 136 OFFCURVE",
"274 123 OFFCURVE",
"231 123 CURVE SMOOTH",
"151 123 OFFCURVE",
"102 169 OFFCURVE",
"84 169 CURVE SMOOTH",
"63 169 OFFCURVE",
"22 111 OFFCURVE",
"22 80 CURVE SMOOTH",
"22 46 OFFCURVE",
"105 -8 OFFCURVE",
"257 -8 CURVE SMOOTH",
"366 -8 OFFCURVE",
"483 48 OFFCURVE",
"483 211 CURVE SMOOTH",
"483 347 OFFCURVE",
"383 388 OFFCURVE",
"301 422 CURVE SMOOTH",
"243 445 OFFCURVE",
"194 465 OFFCURVE",
"194 520 CURVE SMOOTH",
"194 543 OFFCURVE",
"209 576 OFFCURVE",
"287 576 CURVE SMOOTH",
"354 576 OFFCURVE",
"385 551 OFFCURVE",
"398 551 CURVE SMOOTH",
"422 551 OFFCURVE",
"453 611 OFFCURVE",
"453 638 CURVE SMOOTH",
"453 671 OFFCURVE",
"379 708 OFFCURVE",
"273 708 CURVE SMOOTH"
);
}
);
width = 500;
}
);
unicode = 0053;
},
{
color = 10;
glyphname = Germandbls;
lastChange = "2013-08-29 18:05:17 +0000";
layers = (
{
layerId = "2C16E7AF-C861-4509-900A-75D3055B0FF7";
name = Bold;
paths = (
{
closed = 1;
nodes = (
"634 590 LINE",
"635 592 OFFCURVE",
"635 594 OFFCURVE",
"635 598 CURVE SMOOTH",
"635 624 OFFCURVE",
"614 688 OFFCURVE",
"598 690 CURVE SMOOTH",
"532 700 OFFCURVE",
"436 708 OFFCURVE",
"350 708 CURVE SMOOTH",
"163 708 OFFCURVE",
"66 614 OFFCURVE",
"66 432 CURVE SMOOTH",
"66 30 LINE SMOOTH",
"66 9 OFFCURVE",
"84 -2 OFFCURVE",
"126 -2 CURVE SMOOTH",
"161 -2 LINE SMOOTH",
"203 -2 OFFCURVE",
"221 9 OFFCURVE",
"221 30 CURVE SMOOTH",
"221 431 LINE SMOOTH",
"221 524 OFFCURVE",
"261 576 OFFCURVE",
"347 576 CURVE SMOOTH",
"389 576 OFFCURVE",
"424 574 OFFCURVE",
"453 571 CURVE",
"354 407 LINE",
"353 405 OFFCURVE",
"352 401 OFFCURVE",
"352 397 CURVE SMOOTH",
"352 370 OFFCURVE",
"374 308 OFFCURVE",
"391 308 CURVE SMOOTH",
"418 308 LINE SMOOTH",
"487 308 OFFCURVE",
"525 272 OFFCURVE",
"525 206 CURVE SMOOTH",
"525 144 OFFCURVE",
"489 109 OFFCURVE",
"436 109 CURVE SMOOTH",
"373 109 OFFCURVE",
"336 150 OFFCURVE",
"321 150 CURVE SMOOTH",
"298 150 OFFCURVE",
"272 93 OFFCURVE",
"272 74 CURVE SMOOTH",
"272 12 OFFCURVE",
"394 -8 OFFCURVE",
"459 -8 CURVE SMOOTH",
"586 -8 OFFCURVE",
"675 71 OFFCURVE",
"675 204 CURVE SMOOTH",
"675 334 OFFCURVE",
"598 380 OFFCURVE",
"522 410 CURVE"
);
}
);
width = 700;
},
{
layerId = UUID0;
name = Regular;
paths = (
{
closed = 1;
nodes = (
"616 606 LINE",
"618 609 OFFCURVE",
"619 613 OFFCURVE",
"619 618 CURVE SMOOTH",
"619 639 OFFCURVE",
"604 669 OFFCURVE",
"597 671 CURVE SMOOTH",
"546 686 OFFCURVE",
"461 703 OFFCURVE",
"366 706 CURVE SMOOTH",
"187 707 OFFCURVE",
"92 613 OFFCURVE",
"92 430 CURVE SMOOTH",
"92 20 LINE SMOOTH",
"92 6 OFFCURVE",
"104 -2 OFFCURVE",
"132 -2 CURVE SMOOTH",
"140 -2 LINE SMOOTH",
"168 -2 OFFCURVE",
"180 6 OFFCURVE",
"180 20 CURVE SMOOTH",
"180 429 LINE SMOOTH",
"180 570 OFFCURVE",
"240 630 OFFCURVE",
"368 630 CURVE SMOOTH",
"429 630 OFFCURVE",
"476 620 OFFCURVE",
"509 609 CURVE",
"357 401 LINE",
"355 398 OFFCURVE",
"354 394 OFFCURVE",
"354 389 CURVE SMOOTH",
"354 369 OFFCURVE",
"368 336 OFFCURVE",
"378 336 CURVE SMOOTH",
"413 336 LINE SMOOTH",
"509 336 OFFCURVE",
"573 306 OFFCURVE",
"573 204 CURVE SMOOTH",
"573 95 OFFCURVE",
"483 66 OFFCURVE",
"419 66 CURVE SMOOTH",
"348 66 OFFCURVE",
"333 101 OFFCURVE",
"291 101 CURVE SMOOTH",
"280 101 OFFCURVE",
"256 70 OFFCURVE",
"256 51 CURVE SMOOTH",
"284 26 OFFCURVE",
"328 -6 OFFCURVE",
"427 -6 CURVE SMOOTH",
"530 -6 OFFCURVE",
"660 49 OFFCURVE",
"660 203 CURVE SMOOTH",
"660 324 OFFCURVE",
"579 383 OFFCURVE",
"466 401 CURVE"
);
}
);
width = 700;
}
);
unicode = 1E9E;
},
{
color = 10;
glyphname = Schwa;
lastChange = "2013-08-29 18:05:17 +0000";
layers = (
{
background = {
paths = (
{
closed = 1;
nodes = (
"157 708 OFFCURVE",
"45 590 OFFCURVE",
"45 352 CURVE SMOOTH",
"45 105 OFFCURVE",
"150 -8 OFFCURVE",
"374 -8 CURVE SMOOTH",
"454 -8 OFFCURVE",
"597 16 OFFCURVE",
"597 76 CURVE SMOOTH",
"597 93 OFFCURVE",
"570 163 OFFCURVE",
"538 163 CURVE SMOOTH",
"523 163 OFFCURVE",
"469 123 OFFCURVE",
"374 123 CURVE SMOOTH",
"259 123 OFFCURVE",
"203 201 OFFCURVE",
"203 351 CURVE SMOOTH",
"203 501 OFFCURVE",
"258 576 OFFCURVE",
"376 576 CURVE SMOOTH",
"471 576 OFFCURVE",
"511 544 OFFCURVE",
"523 544 CURVE SMOOTH",
"548 544 OFFCURVE",
"588 610 OFFCURVE",
"588 638 CURVE SMOOTH",
"588 680 OFFCURVE",
"467 708 OFFCURVE",
"379 708 CURVE SMOOTH"
);
}
);
};
layerId = "2C16E7AF-C861-4509-900A-75D3055B0FF7";
name = Bold;
paths = (
{
closed = 1;
nodes = (
"477 -1 OFFCURVE",
"597 93 OFFCURVE",
"597 332 CURVE SMOOTH",
"597 559 OFFCURVE",
"505 708 OFFCURVE",
"296 708 CURVE SMOOTH",
"222 708 OFFCURVE",
"56 680 OFFCURVE",
"56 616 CURVE SMOOTH",
"56 596 OFFCURVE",
"86 540 OFFCURVE",
"108 540 CURVE SMOOTH",
"128 540 OFFCURVE",
"196 591 OFFCURVE",
"289 591 CURVE SMOOTH",
"378 591 OFFCURVE",
"433 544 OFFCURVE",
"444 376 CURVE",
"89 376 LINE SMOOTH",
"76 376 OFFCURVE",
"38 334 OFFCURVE",
"38 317 CURVE SMOOTH",
"38 148 OFFCURVE",
"112 -1 OFFCURVE",
"304 -1 CURVE SMOOTH"
);
},
{
closed = 1;
nodes = (
"219 116 OFFCURVE",
"182 183 OFFCURVE",
"182 277 CURVE",
"444 277 LINE",
"427 152 OFFCURVE",
"371 116 OFFCURVE",
"304 116 CURVE SMOOTH"
);
}
);
width = 672;
},
{
background = {
paths = (
{
closed = 1;
nodes = (
"167 706 OFFCURVE",
"57 589 OFFCURVE",
"57 350 CURVE SMOOTH",
"57 106 OFFCURVE",
"160 -6 OFFCURVE",
"379 -6 CURVE SMOOTH",
"496 -6 OFFCURVE",
"586 39 OFFCURVE",
"586 66 CURVE SMOOTH",
"586 78 OFFCURVE",
"564 120 OFFCURVE",
"551 120 CURVE SMOOTH",
"538 120 OFFCURVE",
"482 70 OFFCURVE",
"379 70 CURVE SMOOTH",
"222 70 OFFCURVE",
"148 157 OFFCURVE",
"148 349 CURVE SMOOTH",
"148 546 OFFCURVE",
"223 630 OFFCURVE",
"383 630 CURVE SMOOTH",
"479 630 OFFCURVE",
"527 586 OFFCURVE",
"538 586 CURVE SMOOTH",
"551 586 OFFCURVE",
"572 627 OFFCURVE",
"572 644 CURVE SMOOTH",
"572 671 OFFCURVE",
"480 706 OFFCURVE",
"381 706 CURVE SMOOTH"
);
}
);
};
layerId = UUID0;
name = Regular;
paths = (
{
closed = 1;
nodes = (
"489 -9 OFFCURVE",
"584 106 OFFCURVE",
"584 332 CURVE SMOOTH",
"584 588 OFFCURVE",
"493 706 OFFCURVE",
"299 706 CURVE SMOOTH",
"162 706 OFFCURVE",
"59 654 OFFCURVE",
"59 622 CURVE SMOOTH",
"59 611 OFFCURVE",
"80 572 OFFCURVE",
"94 572 CURVE SMOOTH",
"110 572 OFFCURVE",
"177 634 OFFCURVE",
"300 634 CURVE SMOOTH",
"423 634 OFFCURVE",
"482 551 OFFCURVE",
"494 363 CURVE",
"78 363 LINE SMOOTH",
"66 363 OFFCURVE",
"45 334 OFFCURVE",
"45 322 CURVE SMOOTH",
"45 103 OFFCURVE",
"129 -9 OFFCURVE",
"301 -9 CURVE SMOOTH"
);
},
{
closed = 1;
nodes = (
"189 63 OFFCURVE",
"134 137 OFFCURVE",
"134 291 CURVE",
"494 291 LINE",
"487 137 OFFCURVE",
"421 63 OFFCURVE",
"304 63 CURVE SMOOTH"
);
}
);
width = 672;
}
);
unicode = 018F;
},
{
color = 10;
glyphname = T;
lastChange = "2013-08-29 18:05:17 +0000";
layers = (
{
anchors = (
{
name = bottom;
position = "{275, 0}";
},
{
name = center;
position = "{275, 350}";
},
{
name = top;
position = "{275, 700}";
}
);
layerId = UUID0;
name = Regular;
paths = (
{
closed = 1;
nodes = (
"40 700 LINE SMOOTH",
"26 700 OFFCURVE",
"20 691 OFFCURVE",
"20 670 CURVE SMOOTH",
"20 654 LINE SMOOTH",
"20 633 OFFCURVE",
"26 624 OFFCURVE",
"40 624 CURVE SMOOTH",
"232 624 LINE",
"232 20 LINE SMOOTH",
"232 6 OFFCURVE",
"244 -2 OFFCURVE",
"272 -2 CURVE SMOOTH",
"280 -2 LINE SMOOTH",
"308 -2 OFFCURVE",
"320 6 OFFCURVE",
"320 20 CURVE SMOOTH",
"320 624 LINE",
"509 624 LINE SMOOTH",
"523 624 OFFCURVE",
"529 633 OFFCURVE",
"529 654 CURVE SMOOTH",
"529 670 LINE SMOOTH",
"529 691 OFFCURVE",
"523 700 OFFCURVE",
"509 700 CURVE SMOOTH"
);
}
);
width = 549;
},
{
anchors = (
{
name = bottom;
position = "{275, 0}";
},
{
name = center;
position = "{275, 350}";
},
{
name = top;
position = "{275, 700}";
}
);
layerId = "2C16E7AF-C861-4509-900A-75D3055B0FF7";
name = Bold;
paths = (
{
closed = 1;
nodes = (
"38 700 LINE SMOOTH",
"17 700 OFFCURVE",
"8 685 OFFCURVE",
"8 650 CURVE SMOOTH",
"8 619 LINE SMOOTH",
"8 584 OFFCURVE",
"17 569 OFFCURVE",
"38 569 CURVE SMOOTH",
"197 569 LINE",
"197 30 LINE SMOOTH",
"197 9 OFFCURVE",
"215 -2 OFFCURVE",
"257 -2 CURVE SMOOTH",
"292 -2 LINE SMOOTH",
"334 -2 OFFCURVE",
"352 9 OFFCURVE",
"352 30 CURVE SMOOTH",
"352 569 LINE",
"511 569 LINE SMOOTH",
"532 569 OFFCURVE",
"541 584 OFFCURVE",
"541 619 CURVE SMOOTH",
"541 650 LINE SMOOTH",
"541 685 OFFCURVE",
"532 700 OFFCURVE",
"511 700 CURVE SMOOTH"
);
}
);
width = 549;
}
);
unicode = 0054;
},
{
color = 10;
glyphname = U;
lastChange = "2013-08-29 18:05:17 +0000";
layers = (
{
anchors = (
{
name = bottom;
position = "{357, 0}";
},
{
name = horn;
position = "{581, 702}";
},
{
name = ogonek;
position = "{431, 0}";
},
{
name = top;
position = "{356, 700}";
}
);
layerId = UUID0;
name = Regular;
paths = (
{
closed = 1;
nodes = (
"581 702 LINE SMOOTH",
"553 702 OFFCURVE",
"541 694 OFFCURVE",
"541 680 CURVE SMOOTH",
"541 221 LINE SMOOTH",
"541 133 OFFCURVE",
"463 70 OFFCURVE",
"356 70 CURVE SMOOTH",
"250 70 OFFCURVE",
"171 132 OFFCURVE",
"171 221 CURVE SMOOTH",
"171 680 LINE SMOOTH",
"171 694 OFFCURVE",
"159 702 OFFCURVE",
"131 702 CURVE SMOOTH",
"123 702 LINE SMOOTH",
"95 702 OFFCURVE",
"83 694 OFFCURVE",
"83 680 CURVE SMOOTH",
"83 224 LINE SMOOTH",
"83 80 OFFCURVE",
"179 -6 OFFCURVE",
"356 -6 CURVE SMOOTH",
"532 -6 OFFCURVE",
"629 80 OFFCURVE",
"629 224 CURVE SMOOTH",
"629 680 LINE SMOOTH",
"629 694 OFFCURVE",
"617 702 OFFCURVE",
"589 702 CURVE SMOOTH"
);
}
);
width = 712;
},
{
anchors = (
{
name = bottom;
position = "{356, 0}";
},
{
name = horn;
position = "{553, 702}";
},
{
name = ogonek;
position = "{447, 0}";
},
{
name = top;
position = "{356, 700}";
}
);
layerId = "2C16E7AF-C861-4509-900A-75D3055B0FF7";
name = Bold;
paths = (
{
closed = 1;
nodes = (
"553 702 LINE SMOOTH",
"511 702 OFFCURVE",
"493 691 OFFCURVE",
"493 670 CURVE SMOOTH",
"493 244 LINE SMOOTH",
"493 174 OFFCURVE",
"437 123 OFFCURVE",
"356 123 CURVE SMOOTH",
"275 123 OFFCURVE",
"220 174 OFFCURVE",
"220 244 CURVE SMOOTH",
"220 670 LINE SMOOTH",
"220 691 OFFCURVE",
"202 702 OFFCURVE",
"160 702 CURVE SMOOTH",
"126 702 LINE SMOOTH",
"84 702 OFFCURVE",
"66 691 OFFCURVE",
"66 670 CURVE SMOOTH",
"66 234 LINE SMOOTH",
"66 80 OFFCURVE",
"173 -8 OFFCURVE",
"356 -8 CURVE SMOOTH",
"539 -8 OFFCURVE",
"646 80 OFFCURVE",
"646 234 CURVE SMOOTH",
"646 670 LINE SMOOTH",
"646 691 OFFCURVE",
"628 702 OFFCURVE",
"586 702 CURVE SMOOTH"
);
}
);
width = 712;
}
);
unicode = 0055;
},
{
color = 10;
glyphname = V;
lastChange = "2013-08-29 18:05:17 +0000";
layers = (
{
layerId = UUID0;
name = Regular;
paths = (
{
closed = 1;
nodes = (
"547 702 LINE SMOOTH",
"527 702 OFFCURVE",
"511 698 OFFCURVE",
"507 686 CURVE SMOOTH",
"322 153 LINE",
"311 100 LINE",
"308 100 LINE",
"298 152 LINE",
"113 686 LINE SMOOTH",
"109 698 OFFCURVE",
"93 702 OFFCURVE",
"73 702 CURVE SMOOTH",
"64 702 LINE SMOOTH",
"34 702 OFFCURVE",
"21 695 OFFCURVE",
"21 685 CURVE SMOOTH",
"21 681 OFFCURVE",
"22 677 OFFCURVE",
"24 672 CURVE SMOOTH",
"253 14 LINE SMOOTH",
"257 2 OFFCURVE",
"273 -2 OFFCURVE",
"293 -2 CURVE SMOOTH",
"324 -2 LINE SMOOTH",
"344 -2 OFFCURVE",
"360 2 OFFCURVE",
"364 14 CURVE SMOOTH",
"593 671 LINE SMOOTH",
"595 677 OFFCURVE",
"596 681 OFFCURVE",
"596 685 CURVE SMOOTH",
"596 696 OFFCURVE",
"583 702 OFFCURVE",
"553 702 CURVE SMOOTH"
);
}
);
width = 617;
},
{
layerId = "2C16E7AF-C861-4509-900A-75D3055B0FF7";
name = Bold;
paths = (
{
closed = 1;
nodes = (
"517 702 LINE SMOOTH",
"488 702 OFFCURVE",
"465 694 OFFCURVE",
"458 673 CURVE SMOOTH",
"319 240 LINE",
"308 205 LINE",
"304 205 LINE",
"293 240 LINE",
"158 673 LINE SMOOTH",
"151 695 OFFCURVE",
"128 702 OFFCURVE",
"99 702 CURVE SMOOTH",
"66 702 LINE SMOOTH",
"24 702 OFFCURVE",
"5 694 OFFCURVE",
"5 680 CURVE SMOOTH",
"5 675 OFFCURVE",
"7 669 OFFCURVE",
"9 662 CURVE SMOOTH",
"225 19 LINE SMOOTH",
"230 3 OFFCURVE",
"252 -2 OFFCURVE",
"281 -2 CURVE SMOOTH",
"333 -2 LINE SMOOTH",
"362 -2 OFFCURVE",
"384 3 OFFCURVE",
"389 19 CURVE SMOOTH",
"605 662 LINE SMOOTH",
"607 669 OFFCURVE",
"608 675 OFFCURVE",
"608 680 CURVE SMOOTH",
"608 694 OFFCURVE",
"590 702 OFFCURVE",
"548 702 CURVE SMOOTH"
);
}
);
width = 617;
}
);
unicode = 0056;
},
{
color = 10;
glyphname = W;
lastChange = "2013-08-29 18:05:17 +0000";
layers = (
{
anchors = (
{
name = top;
position = "{441, 700}";
}
);
layerId = UUID0;
name = Regular;
paths = (
{
closed = 1;
nodes = (
"818 702 LINE SMOOTH",
"798 702 OFFCURVE",
"781 698 OFFCURVE",
"778 686 CURVE SMOOTH",
"657 196 LINE",
"649 164 OFFCURVE",
"641 133 OFFCURVE",
"633 101 CURVE",
"633 101 OFFCURVE",
"625 158 OFFCURVE",
"616 193 CURVE SMOOTH",
"492 685 LINE SMOOTH",
"489 698 OFFCURVE",
"473 702 OFFCURVE",
"453 702 CURVE SMOOTH",
"437 702 LINE SMOOTH",
"417 702 OFFCURVE",
"401 698 OFFCURVE",
"398 685 CURVE SMOOTH",
"277 197 LINE",
"269 165 OFFCURVE",
"261 133 OFFCURVE",
"253 101 CURVE",
"252 104 OFFCURVE",
"242 167 OFFCURVE",
"235 194 CURVE SMOOTH",
"108 686 LINE SMOOTH",
"105 698 OFFCURVE",
"88 702 OFFCURVE",
"68 702 CURVE SMOOTH",
"58 702 LINE SMOOTH",
"28 702 OFFCURVE",
"15 695 OFFCURVE",
"15 685 CURVE SMOOTH",
"15 681 OFFCURVE",
"17 675 OFFCURVE",
"18 671 CURVE SMOOTH",
"189 14 LINE SMOOTH",
"192 2 OFFCURVE",
"209 -2 OFFCURVE",
"229 -2 CURVE SMOOTH",
"270 -2 LINE SMOOTH",
"290 -2 OFFCURVE",
"307 2 OFFCURVE",
"310 14 CURVE SMOOTH",
"419 421 LINE",
"440 551 LINE",
"461 421 LINE",
"570 14 LINE SMOOTH",
"573 2 OFFCURVE",
"590 -2 OFFCURVE",
"610 -2 CURVE SMOOTH",
"651 -2 LINE SMOOTH",
"671 -2 OFFCURVE",
"688 2 OFFCURVE",
"691 14 CURVE SMOOTH",
"864 671 LINE SMOOTH",
"865 675 OFFCURVE",
"867 683 OFFCURVE",
"867 685 CURVE SMOOTH",
"867 696 OFFCURVE",
"854 702 OFFCURVE",
"824 702 CURVE SMOOTH"
);
}
);
width = 882;
},
{
anchors = (
{
name = top;
position = "{441, 700}";
}
);
layerId = "2C16E7AF-C861-4509-900A-75D3055B0FF7";
name = Bold;
paths = (
{
closed = 1;
nodes = (
"813 702 LINE SMOOTH",
"774 702 OFFCURVE",
"751 692 OFFCURVE",
"746 671 CURVE SMOOTH",
"668 349 LINE SMOOTH",
"659 311 OFFCURVE",
"647 253 OFFCURVE",
"634 198 CURVE",
"622 254 OFFCURVE",
"609 311 OFFCURVE",
"600 349 CURVE SMOOTH",
"521 681 LINE SMOOTH",
"517 697 OFFCURVE",
"498 702 OFFCURVE",
"466 702 CURVE SMOOTH",
"428 702 LINE SMOOTH",
"396 702 OFFCURVE",
"377 697 OFFCURVE",
"373 681 CURVE SMOOTH",
"291 349 LINE SMOOTH",
"282 315 OFFCURVE",
"266 261 OFFCURVE",
"257 205 CURVE",
"245 261 OFFCURVE",
"234 315 OFFCURVE",
"226 349 CURVE SMOOTH",
"151 671 LINE SMOOTH",
"146 692 OFFCURVE",
"123 702 OFFCURVE",
"84 702 CURVE SMOOTH",
"58 702 LINE SMOOTH",
"15 702 OFFCURVE",
"-4 692 OFFCURVE",
"-4 676 CURVE SMOOTH",
"-4 672 OFFCURVE",
"-4 667 OFFCURVE",
"-2 661 CURVE SMOOTH",
"156 19 LINE SMOOTH",
"159 5 OFFCURVE",
"179 -2 OFFCURVE",
"211 -2 CURVE SMOOTH",
"283 -2 LINE SMOOTH",
"311 -2 OFFCURVE",
"334 5 OFFCURVE",
"338 19 CURVE SMOOTH",
"423 365 LINE",
"440 433 LINE",
"456 365 LINE",
"538 19 LINE SMOOTH",
"541 5 OFFCURVE",
"565 -2 OFFCURVE",
"593 -2 CURVE SMOOTH",
"666 -2 LINE SMOOTH",
"694 -2 OFFCURVE",
"717 5 OFFCURVE",
"721 19 CURVE SMOOTH",
"884 661 LINE SMOOTH",
"885 667 OFFCURVE",
"886 672 OFFCURVE",
"886 676 CURVE SMOOTH",
"886 692 OFFCURVE",
"867 702 OFFCURVE",
"824 702 CURVE SMOOTH"
);
}
);
width = 882;
}
);
unicode = 0057;
},
{
color = 10;
glyphname = X;
lastChange = "2013-08-29 18:05:17 +0000";
layers = (
{
layerId = UUID0;
name = Regular;
paths = (
{
closed = 1;
nodes = (
"515 702 LINE SMOOTH",
"497 702 OFFCURVE",
"479 699 OFFCURVE",
"472 688 CURVE SMOOTH",
"307 446 LINE",
"147 687 LINE SMOOTH",
"139 699 OFFCURVE",
"125 702 OFFCURVE",
"104 702 CURVE SMOOTH",
"90 702 LINE SMOOTH",
"56 702 OFFCURVE",
"44 696 OFFCURVE",
"44 685 CURVE SMOOTH",
"44 680 OFFCURVE",
"47 674 OFFCURVE",
"52 667 CURVE SMOOTH",
"252 365 LINE",
"28 33 LINE SMOOTH",
"23 26 OFFCURVE",
"20 20 OFFCURVE",
"20 15 CURVE SMOOTH",
"20 3 OFFCURVE",
"33 -2 OFFCURVE",
"66 -2 CURVE SMOOTH",
"74 -2 LINE SMOOTH",
"92 -2 OFFCURVE",
"110 1 OFFCURVE",
"117 12 CURVE SMOOTH",
"303 288 LINE",
"487 13 LINE SMOOTH",
"495 1 OFFCURVE",
"509 -2 OFFCURVE",
"530 -2 CURVE SMOOTH",
"546 -2 LINE SMOOTH",
"580 -2 OFFCURVE",
"592 4 OFFCURVE",
"592 15 CURVE SMOOTH",
"592 20 OFFCURVE",
"589 26 OFFCURVE",
"584 33 CURVE SMOOTH",
"359 370 LINE",
"559 667 LINE SMOOTH",
"563 674 OFFCURVE",
"567 680 OFFCURVE",
"567 685 CURVE SMOOTH",
"567 697 OFFCURVE",
"554 702 OFFCURVE",
"521 702 CURVE SMOOTH"
);
}
);
width = 611;
},
{
layerId = "2C16E7AF-C861-4509-900A-75D3055B0FF7";
name = Bold;
paths = (
{
closed = 1;
nodes = (
"491 702 LINE SMOOTH",
"462 702 OFFCURVE",
"441 700 OFFCURVE",
"430 683 CURVE SMOOTH",
"310 497 LINE",
"196 683 LINE SMOOTH",
"187 698 OFFCURVE",
"165 702 OFFCURVE",
"136 702 CURVE SMOOTH",
"95 702 LINE SMOOTH",
"51 702 OFFCURVE",
"31 694 OFFCURVE",
"31 683 CURVE SMOOTH",
"31 676 OFFCURVE",
"35 668 OFFCURVE",
"41 658 CURVE SMOOTH",
"224 365 LINE",
"18 42 LINE SMOOTH",
"11 31 OFFCURVE",
"8 23 OFFCURVE",
"8 17 CURVE SMOOTH",
"8 5 OFFCURVE",
"27 -2 OFFCURVE",
"71 -2 CURVE SMOOTH",
"109 -2 LINE SMOOTH",
"138 -2 OFFCURVE",
"158 -1 OFFCURVE",
"170 17 CURVE SMOOTH",
"308 232 LINE",
"441 17 LINE SMOOTH",
"450 2 OFFCURVE",
"472 -2 OFFCURVE",
"501 -2 CURVE SMOOTH",
"540 -2 LINE SMOOTH",
"584 -2 OFFCURVE",
"603 5 OFFCURVE",
"603 17 CURVE SMOOTH",
"603 24 OFFCURVE",
"600 32 OFFCURVE",
"594 42 CURVE SMOOTH",
"394 363 LINE",
"583 658 LINE SMOOTH",
"590 668 OFFCURVE",
"593 677 OFFCURVE",
"593 683 CURVE SMOOTH",
"593 695 OFFCURVE",
"573 702 OFFCURVE",
"530 702 CURVE SMOOTH"
);
}
);
width = 611;
}
);
unicode = 0058;
},
{
color = 10;
glyphname = Y;
lastChange = "2013-08-29 18:05:17 +0000";
layers = (
{
anchors = (
{
name = bottom;
position = "{279, 0}";
},
{
name = top;
position = "{280, 700}";
}
);
layerId = UUID0;
name = Regular;
paths = (
{
closed = 1;
nodes = (
"475 702 OFFCURVE",
"457 699 OFFCURVE",
"450 688 CURVE SMOOTH",
"282 441 LINE",
"118 687 LINE SMOOTH",
"110 699 OFFCURVE",
"96 702 OFFCURVE",
"75 702 CURVE SMOOTH",
"64 702 LINE SMOOTH",
"30 702 OFFCURVE",
"18 696 OFFCURVE",
"18 685 CURVE SMOOTH",
"18 680 OFFCURVE",
"21 674 OFFCURVE",
"26 667 CURVE SMOOTH",
"235 359 LINE",
"235 20 LINE SMOOTH",
"235 6 OFFCURVE",
"247 -2 OFFCURVE",
"275 -2 CURVE SMOOTH",
"283 -2 LINE SMOOTH",
"311 -2 OFFCURVE",
"323 6 OFFCURVE",
"323 20 CURVE SMOOTH",
"323 356 LINE",
"533 667 LINE SMOOTH",
"537 674 OFFCURVE",
"541 680 OFFCURVE",
"541 685 CURVE SMOOTH",
"541 696 OFFCURVE",
"530 701 OFFCURVE",
"502 702 CURVE",
"495 702 LINE"
);
}
);
width = 559;
},
{
anchors = (
{
name = bottom;
position = "{282, 0}";
},
{
name = top;
position = "{280, 700}";
}
);
layerId = "2C16E7AF-C861-4509-900A-75D3055B0FF7";
name = Bold;
paths = (
{
closed = 1;
nodes = (
"437 702 OFFCURVE",
"415 698 OFFCURVE",
"406 683 CURVE SMOOTH",
"283 469 LINE",
"161 683 LINE SMOOTH",
"152 698 OFFCURVE",
"130 702 OFFCURVE",
"101 702 CURVE SMOOTH",
"58 702 LINE SMOOTH",
"14 702 OFFCURVE",
"-6 694 OFFCURVE",
"-6 682 CURVE SMOOTH",
"-6 676 OFFCURVE",
"-2 667 OFFCURVE",
"4 657 CURVE SMOOTH",
"203 336 LINE",
"203 30 LINE SMOOTH",
"203 9 OFFCURVE",
"221 -2 OFFCURVE",
"263 -2 CURVE SMOOTH",
"297 -2 LINE SMOOTH",
"339 -2 OFFCURVE",
"357 9 OFFCURVE",
"357 30 CURVE SMOOTH",
"357 333 LINE",
"556 657 LINE SMOOTH",
"562 667 OFFCURVE",
"565 676 OFFCURVE",
"565 682 CURVE SMOOTH",
"565 694 OFFCURVE",
"546 702 OFFCURVE",
"502 702 CURVE SMOOTH",
"466 702 LINE SMOOTH"
);
}
);
width = 559;
}
);
unicode = 0059;
},
{
color = 10;
glyphname = Z;
lastChange = "2013-08-29 18:05:17 +0000";
layers = (
{
anchors = (
{
name = bottom;
position = "{318, 0}";
},
{
name = top;
position = "{308, 700}";
}
);
layerId = UUID0;
name = Regular;
paths = (
{
closed = 1;
nodes = (
"91 700 LINE SMOOTH",
"77 700 OFFCURVE",
"71 690 OFFCURVE",
"71 666 CURVE SMOOTH",
"71 658 LINE SMOOTH",
"71 634 OFFCURVE",
"77 624 OFFCURVE",
"91 624 CURVE SMOOTH",
"451 624 LINE",
"41 65 LINE SMOOTH",
"39 62 OFFCURVE",
"38 58 OFFCURVE",
"38 53 CURVE SMOOTH",
"38 33 OFFCURVE",
"52 0 OFFCURVE",
"62 0 CURVE",
"549 0 LINE SMOOTH",
"563 0 OFFCURVE",
"569 10 OFFCURVE",
"569 34 CURVE SMOOTH",
"569 42 LINE SMOOTH",
"569 66 OFFCURVE",
"563 76 OFFCURVE",
"549 76 CURVE SMOOTH",
"158 76 LINE",
"568 635 LINE SMOOTH",
"570 638 OFFCURVE",
"571 642 OFFCURVE",
"571 647 CURVE SMOOTH",
"571 668 OFFCURVE",
"556 700 OFFCURVE",
"549 700 CURVE SMOOTH"
);
}
);
width = 616;
},
{
anchors = (
{
name = bottom;
position = "{299, 0}";
},
{
name = top;
position = "{308, 700}";
}
);
layerId = "2C16E7AF-C861-4509-900A-75D3055B0FF7";
name = Bold;
paths = (
{
closed = 1;
nodes = (
"86 700 LINE SMOOTH",
"65 700 OFFCURVE",
"56 685 OFFCURVE",
"56 650 CURVE SMOOTH",
"56 619 LINE SMOOTH",
"56 584 OFFCURVE",
"65 569 OFFCURVE",
"86 569 CURVE SMOOTH",
"364 569 LINE",
"29 99 LINE SMOOTH",
"28 97 OFFCURVE",
"27 93 OFFCURVE",
"27 89 CURVE SMOOTH",
"27 62 OFFCURVE",
"49 0 OFFCURVE",
"66 0 CURVE",
"550 0 LINE SMOOTH",
"571 0 OFFCURVE",
"580 15 OFFCURVE",
"580 50 CURVE SMOOTH",
"580 81 LINE SMOOTH",
"580 116 OFFCURVE",
"571 131 OFFCURVE",
"550 131 CURVE SMOOTH",
"245 131 LINE",
"579 600 LINE SMOOTH",
"580 602 OFFCURVE",
"580 604 OFFCURVE",
"580 608 CURVE SMOOTH",
"580 634 OFFCURVE",
"559 700 OFFCURVE",
"543 700 CURVE SMOOTH"
);
}
);
width = 616;
}
);
unicode = 005A;
},
{
color = 10;
glyphname = Y.loclGUA;
lastChange = "2013-08-29 18:05:17 +0000";
layers = (
{
anchors = (
{
name = bottom;
position = "{271, 0}";
},
{
name = top;
position = "{280, 700}";
}
);
layerId = UUID0;
name = Regular;
paths = (
{
closed = 1;
nodes = (
"445 702 LINE SMOOTH",
"417 702 OFFCURVE",
"405 694 OFFCURVE",
"405 680 CURVE SMOOTH",
"405 354 LINE",
"369 311 OFFCURVE",
"318 284 OFFCURVE",
"269 284 CURVE SMOOTH",
"198 284 OFFCURVE",
"157 320 OFFCURVE",
"157 381 CURVE SMOOTH",
"157 680 LINE SMOOTH",
"157 694 OFFCURVE",
"145 702 OFFCURVE",
"117 702 CURVE SMOOTH",
"113 702 LINE SMOOTH",
"85 702 OFFCURVE",
"73 694 OFFCURVE",
"73 680 CURVE SMOOTH",
"73 373 LINE SMOOTH",
"73 272 OFFCURVE",
"138 211 OFFCURVE",
"246 211 CURVE SMOOTH",
"311 211 OFFCURVE",
"377 244 OFFCURVE",
"423 298 CURVE",
"405 323 LINE",
"405 307 LINE",
"407 131 OFFCURVE",
"372 64 OFFCURVE",
"279 64 CURVE SMOOTH",
"157 64 OFFCURVE",
"101 108 OFFCURVE",
"86 108 CURVE SMOOTH",
"82 108 OFFCURVE",
"76 104 OFFCURVE",
"76 78 CURVE SMOOTH",
"76 71 OFFCURVE",
"76 63 OFFCURVE",
"77 53 CURVE SMOOTH",
"81 27 OFFCURVE",
"167 -8 OFFCURVE",
"287 -8 CURVE SMOOTH",
"428 -8 OFFCURVE",
"489 64 OFFCURVE",
"489 303 CURVE SMOOTH",
"489 680 LINE SMOOTH",
"489 694 OFFCURVE",
"477 702 OFFCURVE",
"449 702 CURVE SMOOTH"
);
}
);
width = 559;
},
{
anchors = (
{
name = bottom;
position = "{261, 0}";
},
{
name = top;
position = "{280, 700}";
}
);
layerId = "2C16E7AF-C861-4509-900A-75D3055B0FF7";
name = Bold;
paths = (
{
closed = 1;
nodes = (
"428 701 LINE SMOOTH",
"386 701 OFFCURVE",
"368 690 OFFCURVE",
"368 669 CURVE SMOOTH",
"368 388 LINE",
"356 365 OFFCURVE",
"331 330 OFFCURVE",
"288 330 CURVE SMOOTH",
"230 330 OFFCURVE",
"208 353 OFFCURVE",
"208 392 CURVE SMOOTH",
"208 669 LINE SMOOTH",
"208 690 OFFCURVE",
"190 701 OFFCURVE",
"148 701 CURVE SMOOTH",
"120 701 LINE SMOOTH",
"78 701 OFFCURVE",
"60 690 OFFCURVE",
"60 669 CURVE SMOOTH",
"60 370 LINE SMOOTH",
"60 259 OFFCURVE",
"113 208 OFFCURVE",
"227 208 CURVE SMOOTH",
"303 208 OFFCURVE",
"365 260 OFFCURVE",
"388 303 CURVE",
"368 341 LINE",
"368 242 LINE SMOOTH",
"368 154 OFFCURVE",
"329 108 OFFCURVE",
"251 108 CURVE SMOOTH",
"155 108 OFFCURVE",
"96 149 OFFCURVE",
"81 149 CURVE SMOOTH",
"74 149 OFFCURVE",
"68 139 OFFCURVE",
"68 109 CURVE SMOOTH",
"68 97 OFFCURVE",
"69 81 OFFCURVE",
"71 62 CURVE SMOOTH",
"75 20 OFFCURVE",
"175 -9 OFFCURVE",
"293 -9 CURVE SMOOTH",
"449 -9 OFFCURVE",
"516 93 OFFCURVE",
"516 296 CURVE SMOOTH",
"516 669 LINE SMOOTH",
"516 690 OFFCURVE",
"498 701 OFFCURVE",
"456 701 CURVE SMOOTH"
);
}
);
width = 559;
}
);
},
{
color = 10;
glyphname = a;
lastChange = "2013-08-29 18:05:17 +0000";
layers = (
{
anchors = (
{
name = bottom;
position = "{261, 0}";
},
{
name = ogonek;
position = "{475, 17}";
},
{
name = top;
position = "{273, 523}";
}
);
layerId = UUID0;
name = Regular;
paths = (
{
closed = 1;
nodes = (
"168 529 OFFCURVE",
"80 491 OFFCURVE",
"80 465 CURVE SMOOTH",
"80 454 OFFCURVE",
"101 415 OFFCURVE",
"115 415 CURVE SMOOTH",
"125 415 OFFCURVE",
"180 457 OFFCURVE",
"271 457 CURVE SMOOTH",
"354 457 OFFCURVE",
"381 418 OFFCURVE",
"381 373 CURVE SMOOTH",
"381 326 LINE",
"228 324 OFFCURVE",
"49 313 OFFCURVE",
"49 144 CURVE SMOOTH",
"49 41 OFFCURVE",
"123 -6 OFFCURVE",
"220 -6 CURVE SMOOTH",
"295 -6 OFFCURVE",
"350 27 OFFCURVE",
"388 69 CURVE",
"394 41 OFFCURVE",
"399 -1 OFFCURVE",
"423 -1 CURVE SMOOTH",
"436 -1 OFFCURVE",
"477 3 OFFCURVE",
"477 22 CURVE SMOOTH",
"477 27 OFFCURVE",
"465 66 OFFCURVE",
"465 148 CURVE SMOOTH",
"465 372 LINE SMOOTH",
"465 471 OFFCURVE",
"392 529 OFFCURVE",
"268 529 CURVE SMOOTH"
);
},
{
closed = 1;
nodes = (
"381 136 LINE",
"341 100 OFFCURVE",
"297 67 OFFCURVE",
"224 67 CURVE SMOOTH",
"168 67 OFFCURVE",
"139 96 OFFCURVE",
"139 149 CURVE SMOOTH",
"139 253 OFFCURVE",
"277 253 OFFCURVE",
"381 254 CURVE"
);
}
);
width = 545;
},
{
anchors = (
{
name = bottom;
position = "{273, 0}";
},
{
name = ogonek;
position = "{482, 31}";
},
{
name = top;
position = "{273, 523}";
}
);
layerId = "2C16E7AF-C861-4509-900A-75D3055B0FF7";
name = Bold;
paths = (
{
closed = 1;
nodes = (
"151 531 OFFCURVE",
"71 496 OFFCURVE",
"71 462 CURVE SMOOTH",
"71 441 OFFCURVE",
"102 382 OFFCURVE",
"123 382 CURVE SMOOTH",
"135 382 OFFCURVE",
"178 414 OFFCURVE",
"251 414 CURVE SMOOTH",
"306 414 OFFCURVE",
"329 395 OFFCURVE",
"329 357 CURVE SMOOTH",
"329 324 LINE",
"75 324 OFFCURVE",
"42 220 OFFCURVE",
"42 138 CURVE SMOOTH",
"42 56 OFFCURVE",
"82 -8 OFFCURVE",
"190 -8 CURVE SMOOTH",
"282 -8 OFFCURVE",
"330 55 OFFCURVE",
"337 68 CURVE",
"343 41 OFFCURVE",
"345 -1 OFFCURVE",
"377 -1 CURVE SMOOTH",
"402 -1 OFFCURVE",
"489 7 OFFCURVE",
"489 31 CURVE SMOOTH",
"489 52 OFFCURVE",
"477 73 OFFCURVE",
"477 176 CURVE SMOOTH",
"477 364 LINE SMOOTH",
"477 461 OFFCURVE",
"420 531 OFFCURVE",
"262 531 CURVE SMOOTH"
);
},
{
closed = 1;
nodes = (
"329 172 LINE",
"313 136 OFFCURVE",
"277 109 OFFCURVE",
"239 109 CURVE SMOOTH",
"206 109 OFFCURVE",
"189 128 OFFCURVE",
"189 153 CURVE SMOOTH",
"189 201 OFFCURVE",
"234 227 OFFCURVE",
"329 227 CURVE"
);
}
);
width = 545;
}
);
unicode = 0061;
},
{
color = 10;
glyphname = ae;
lastChange = "2013-08-29 18:05:17 +0000";
layers = (
{
anchors = (
{
name = top;
position = "{415, 523}";
}
);
layerId = UUID0;
name = Regular;
paths = (
{
closed = 1;
nodes = (
"505 529 OFFCURVE",
"454 513 OFFCURVE",
"416 481 CURVE",
"382 512 OFFCURVE",
"330 529 OFFCURVE",
"264 529 CURVE SMOOTH",
"164 529 OFFCURVE",
"76 491 OFFCURVE",
"76 465 CURVE SMOOTH",
"76 454 OFFCURVE",
"97 415 OFFCURVE",
"111 415 CURVE SMOOTH",
"121 415 OFFCURVE",
"176 457 OFFCURVE",
"267 457 CURVE SMOOTH",
"321 457 OFFCURVE",
"351 440 OFFCURVE",
"366 416 CURVE",
"351 387 OFFCURVE",
"342 352 OFFCURVE",
"338 312 CURVE",
"195 308 OFFCURVE",
"45 287 OFFCURVE",
"45 144 CURVE SMOOTH",
"45 41 OFFCURVE",
"119 -6 OFFCURVE",
"216 -6 CURVE SMOOTH",
"294 -6 OFFCURVE",
"356 23 OFFCURVE",
"397 57 CURVE",
"437 15 OFFCURVE",
"498 -6 OFFCURVE",
"580 -6 CURVE SMOOTH",
"681 -6 OFFCURVE",
"760 34 OFFCURVE",
"760 58 CURVE SMOOTH",
"760 69 OFFCURVE",
"739 108 OFFCURVE",
"725 108 CURVE SMOOTH",
"715 108 OFFCURVE",
"666 66 OFFCURVE",
"579 66 CURVE SMOOTH",
"480 66 OFFCURVE",
"433 120 OFFCURVE",
"425 241 CURVE",
"741 241 LINE SMOOTH",
"753 241 OFFCURVE",
"774 270 OFFCURVE",
"774 282 CURVE SMOOTH",
"774 442 OFFCURVE",
"705 529 OFFCURVE",
"568 529 CURVE SMOOTH"
);
},
{
closed = 1;
nodes = (
"336 193 OFFCURVE",
"344 152 OFFCURVE",
"358 119 CURVE",
"322 90 OFFCURVE",
"281 67 OFFCURVE",
"220 67 CURVE SMOOTH",
"164 67 OFFCURVE",
"135 96 OFFCURVE",
"135 149 CURVE SMOOTH",
"135 227 OFFCURVE",
"239 238 OFFCURVE",
"335 240 CURVE"
);
},
{
closed = 1;
nodes = (
"645 457 OFFCURVE",
"685 408 OFFCURVE",
"685 313 CURVE",
"425 313 LINE",
"432 408 OFFCURVE",
"478 457 OFFCURVE",
"565 457 CURVE SMOOTH"
);
}
);
width = 829;
},
{
anchors = (
{
name = top;
position = "{415, 523}";
}
);
layerId = "2C16E7AF-C861-4509-900A-75D3055B0FF7";
name = Bold;
paths = (
{
closed = 1;
nodes = (
"509 531 OFFCURVE",
"461 519 OFFCURVE",
"422 495 CURVE",
"388 518 OFFCURVE",
"335 531 OFFCURVE",
"261 531 CURVE SMOOTH",
"150 531 OFFCURVE",
"70 496 OFFCURVE",
"70 462 CURVE SMOOTH",
"70 441 OFFCURVE",
"101 382 OFFCURVE",
"122 382 CURVE SMOOTH",
"138 382 OFFCURVE",
"188 414 OFFCURVE",
"250 414 CURVE SMOOTH",
"289 414 OFFCURVE",
"324 408 OFFCURVE",
"340 387 CURVE",
"333 368 OFFCURVE",
"328 347 OFFCURVE",
"325 323 CURVE",
"74 322 OFFCURVE",
"41 219 OFFCURVE",
"41 138 CURVE SMOOTH",
"41 56 OFFCURVE",
"99 -8 OFFCURVE",
"207 -8 CURVE SMOOTH",
"300 -8 OFFCURVE",
"364 37 OFFCURVE",
"387 60 CURVE",
"430 17 OFFCURVE",
"494 -8 OFFCURVE",
"582 -8 CURVE SMOOTH",
"638 -8 OFFCURVE",
"762 14 OFFCURVE",
"762 64 CURVE SMOOTH",
"762 84 OFFCURVE",
"732 140 OFFCURVE",
"710 140 CURVE SMOOTH",
"696 140 OFFCURVE",
"652 109 OFFCURVE",
"589 109 CURVE SMOOTH",
"531 109 OFFCURVE",
"476 137 OFFCURVE",
"476 224 CURVE",
"731 224 LINE SMOOTH",
"744 224 OFFCURVE",
"780 266 OFFCURVE",
"780 283 CURVE SMOOTH",
"780 422 OFFCURVE",
"721 531 OFFCURVE",
"564 531 CURVE SMOOTH"
);
},
{
closed = 1;
nodes = (
"324 200 OFFCURVE",
"328 177 OFFCURVE",
"334 156 CURVE",
"315 125 OFFCURVE",
"273 109 OFFCURVE",
"238 109 CURVE SMOOTH",
"205 109 OFFCURVE",
"188 128 OFFCURVE",
"188 153 CURVE SMOOTH",
"188 200 OFFCURVE",
"231 224 OFFCURVE",
"322 225 CURVE"
);
},
{
closed = 1;
nodes = (
"608 414 OFFCURVE",
"636 381 OFFCURVE",
"636 323 CURVE",
"474 323 LINE",
"486 400 OFFCURVE",
"530 414 OFFCURVE",
"564 414 CURVE SMOOTH"
);
}
);
width = 829;
}
);
unicode = 00E6;
},
{
color = 10;
glyphname = b;
lastChange = "2013-08-29 18:05:17 +0000";
layers = (
{
layerId = UUID0;
name = Regular;
paths = (
{
closed = 1;
nodes = (
"125 752 LINE SMOOTH",
"97 752 OFFCURVE",
"85 744 OFFCURVE",
"85 730 CURVE SMOOTH",
"85 20 LINE SMOOTH",
"85 6 OFFCURVE",
"94 -2 OFFCURVE",
"115 -2 CURVE SMOOTH",
"119 -2 LINE SMOOTH",
"133 -2 OFFCURVE",
"142 1 OFFCURVE",
"146 10 CURVE",
"154 30 OFFCURVE",
"159 49 OFFCURVE",
"162 69 CURVE",
"211 18 OFFCURVE",
"264 -6 OFFCURVE",
"321 -6 CURVE SMOOTH",
"441 -6 OFFCURVE",
"515 106 OFFCURVE",
"515 262 CURVE SMOOTH",
"515 435 OFFCURVE",
"431 529 OFFCURVE",
"312 529 CURVE SMOOTH",
"250 529 OFFCURVE",
"208 508 OFFCURVE",
"169 478 CURVE",
"169 730 LINE SMOOTH",
"169 744 OFFCURVE",
"157 752 OFFCURVE",
"129 752 CURVE SMOOTH"
);
},
{
closed = 1;
nodes = (
"382 453 OFFCURVE",
"427 388 OFFCURVE",
"427 269 CURVE SMOOTH",
"427 140 OFFCURVE",
"383 67 OFFCURVE",
"304 67 CURVE SMOOTH",
"260 67 OFFCURVE",
"210 91 OFFCURVE",
"169 136 CURVE",
"169 410 LINE",
"205 440 OFFCURVE",
"250 455 OFFCURVE",
"293 455 CURVE SMOOTH"
);
}
);
width = 569;
},
{
layerId = "2C16E7AF-C861-4509-900A-75D3055B0FF7";
name = Bold;
paths = (
{
closed = 1;
nodes = (
"126 754 LINE SMOOTH",
"84 754 OFFCURVE",
"66 743 OFFCURVE",
"66 722 CURVE SMOOTH",
"66 30 LINE SMOOTH",
"66 9 OFFCURVE",
"84 -2 OFFCURVE",
"126 -2 CURVE SMOOTH",
"138 -2 LINE SMOOTH",
"170 -2 OFFCURVE",
"190 2 OFFCURVE",
"196 24 CURVE SMOOTH",
"200 38 OFFCURVE",
"203 53 OFFCURVE",
"206 67 CURVE",
"229 24 OFFCURVE",
"278 -8 OFFCURVE",
"340 -8 CURVE SMOOTH",
"448 -8 OFFCURVE",
"527 88 OFFCURVE",
"527 262 CURVE SMOOTH",
"527 425 OFFCURVE",
"451 531 OFFCURVE",
"316 531 CURVE SMOOTH",
"269 531 OFFCURVE",
"235 515 OFFCURVE",
"214 500 CURVE",
"214 722 LINE SMOOTH",
"214 743 OFFCURVE",
"196 754 OFFCURVE",
"154 754 CURVE SMOOTH"
);
},
{
closed = 1;
nodes = (
"347 414 OFFCURVE",
"377 362 OFFCURVE",
"377 262 CURVE SMOOTH",
"377 165 OFFCURVE",
"351 113 OFFCURVE",
"296 113 CURVE SMOOTH",
"258 113 OFFCURVE",
"232 141 OFFCURVE",
"214 172 CURVE",
"214 395 LINE",
"230 404 OFFCURVE",
"253 414 OFFCURVE",
"284 414 CURVE SMOOTH"
);
}
);
width = 569;
}
);
unicode = 0062;
},
{
color = 10;
glyphname = c;
lastChange = "2013-08-29 18:05:17 +0000";
layers = (
{
anchors = (
{
name = bottom;
position = "{286, 0}";
},
{
name = top;
position = "{277, 523}";
}
);
layerId = UUID0;
name = Regular;
paths = (
{
closed = 1;
nodes = (
"174 529 OFFCURVE",
"52 473 OFFCURVE",
"52 264 CURVE SMOOTH",
"52 71 OFFCURVE",
"136 -6 OFFCURVE",
"298 -6 CURVE SMOOTH",
"385 -6 OFFCURVE",
"455 22 OFFCURVE",
"455 45 CURVE SMOOTH",
"455 59 OFFCURVE",
"435 96 OFFCURVE",
"421 96 CURVE SMOOTH",
"420 96 OFFCURVE",
"416 94 OFFCURVE",
"410 92 CURVE",
"392 83 OFFCURVE",
"353 66 OFFCURVE",
"297 66 CURVE SMOOTH",
"184 66 OFFCURVE",
"142 126 OFFCURVE",
"142 266 CURVE SMOOTH",
"142 405 OFFCURVE",
"199 457 OFFCURVE",
"287 457 CURVE SMOOTH",
"341 457 OFFCURVE",
"378 441 OFFCURVE",
"396 433 CURVE SMOOTH",
"402 431 OFFCURVE",
"405 429 OFFCURVE",
"407 429 CURVE SMOOTH",
"420 429 OFFCURVE",
"439 467 OFFCURVE",
"439 483 CURVE SMOOTH",
"439 507 OFFCURVE",
"366 529 OFFCURVE",
"289 529 CURVE SMOOTH"
);
}
);
width = 485;
},
{
anchors = (
{
name = bottom;
position = "{292, 0}";
},
{
name = top;
position = "{275, 523}";
}
);
layerId = "2C16E7AF-C861-4509-900A-75D3055B0FF7";
name = Bold;
paths = (
{
closed = 1;
nodes = (
"120 531 OFFCURVE",
"42 436 OFFCURVE",
"42 258 CURVE SMOOTH",
"42 79 OFFCURVE",
"123 -8 OFFCURVE",
"294 -8 CURVE SMOOTH",
"327 -8 OFFCURVE",
"469 6 OFFCURVE",
"469 62 CURVE SMOOTH",
"469 82 OFFCURVE",
"439 138 OFFCURVE",
"417 138 CURVE SMOOTH",
"413 138 OFFCURVE",
"407 135 OFFCURVE",
"399 132 CURVE SMOOTH",
"380 123 OFFCURVE",
"348 109 OFFCURVE",
"301 109 CURVE SMOOTH",
"225 109 OFFCURVE",
"194 159 OFFCURVE",
"194 262 CURVE SMOOTH",
"194 364 OFFCURVE",
"227 414 OFFCURVE",
"307 414 CURVE SMOOTH",
"349 414 OFFCURVE",
"376 401 OFFCURVE",
"394 392 CURVE SMOOTH",
"402 388 OFFCURVE",
"408 385 OFFCURVE",
"412 385 CURVE SMOOTH",
"429 385 OFFCURVE",
"465 443 OFFCURVE",
"465 462 CURVE SMOOTH",
"465 508 OFFCURVE",
"370 531 OFFCURVE",
"299 531 CURVE SMOOTH"
);
}
);
width = 485;
}
);
unicode = 0063;
},
{
color = 10;
glyphname = d;
lastChange = "2013-08-29 18:05:17 +0000";
layers = (
{
anchors = (
{
name = bottom;
position = "{281, 0}";
},
{
name = caron;
position = "{481, 700}";
},
{
name = center;
position = "{421, 630}";
}
);
layerId = UUID0;
name = Regular;
paths = (
{
closed = 1;
nodes = (
"438 752 LINE SMOOTH",
"410 752 OFFCURVE",
"398 744 OFFCURVE",
"398 730 CURVE SMOOTH",
"398 478 LINE",
"359 508 OFFCURVE",
"317 529 OFFCURVE",
"255 529 CURVE SMOOTH",
"136 529 OFFCURVE",
"52 435 OFFCURVE",
"52 261 CURVE SMOOTH",
"52 106 OFFCURVE",
"126 -6 OFFCURVE",
"246 -6 CURVE SMOOTH",
"303 -6 OFFCURVE",
"356 18 OFFCURVE",
"405 69 CURVE",
"411 41 OFFCURVE",
"416 -1 OFFCURVE",
"440 -1 CURVE SMOOTH",
"453 -1 OFFCURVE",
"494 3 OFFCURVE",
"494 22 CURVE SMOOTH",
"494 27 OFFCURVE",
"482 66 OFFCURVE",
"482 148 CURVE SMOOTH",
"482 730 LINE SMOOTH",
"482 744 OFFCURVE",
"470 752 OFFCURVE",
"442 752 CURVE SMOOTH"
);
},
{
closed = 1;
nodes = (
"320 455 OFFCURVE",
"362 440 OFFCURVE",
"398 410 CURVE",
"398 136 LINE",
"357 91 OFFCURVE",
"307 67 OFFCURVE",
"263 67 CURVE SMOOTH",
"184 67 OFFCURVE",
"140 140 OFFCURVE",
"140 269 CURVE SMOOTH",
"140 388 OFFCURVE",
"185 453 OFFCURVE",
"275 455 CURVE SMOOTH"
);
}
);
width = 565;
},
{
anchors = (
{
name = bottom;
position = "{291, 0}";
},
{
name = caron;
position = "{498, 700}";
},
{
name = center;
position = "{417, 630}";
}
);
layerId = "2C16E7AF-C861-4509-900A-75D3055B0FF7";
name = Bold;
paths = (
{
closed = 1;
nodes = (
"415 754 LINE SMOOTH",
"373 754 OFFCURVE",
"355 743 OFFCURVE",
"355 722 CURVE SMOOTH",
"355 500 LINE",
"334 515 OFFCURVE",
"300 531 OFFCURVE",
"253 531 CURVE SMOOTH",
"118 531 OFFCURVE",
"42 425 OFFCURVE",
"42 262 CURVE SMOOTH",
"42 88 OFFCURVE",
"121 -8 OFFCURVE",
"229 -8 CURVE SMOOTH",
"291 -8 OFFCURVE",
"340 24 OFFCURVE",
"363 67 CURVE",
"369 41 OFFCURVE",
"371 -1 OFFCURVE",
"403 -1 CURVE SMOOTH",
"428 -1 OFFCURVE",
"515 7 OFFCURVE",
"515 31 CURVE SMOOTH",
"515 52 OFFCURVE",
"503 73 OFFCURVE",
"503 176 CURVE SMOOTH",
"503 722 LINE SMOOTH",
"503 743 OFFCURVE",
"485 754 OFFCURVE",
"443 754 CURVE SMOOTH"
);
},
{
closed = 1;
nodes = (
"316 414 OFFCURVE",
"339 404 OFFCURVE",
"355 395 CURVE",
"355 172 LINE",
"337 141 OFFCURVE",
"311 113 OFFCURVE",
"273 113 CURVE SMOOTH",
"218 113 OFFCURVE",
"192 165 OFFCURVE",
"192 262 CURVE SMOOTH",
"192 362 OFFCURVE",
"222 414 OFFCURVE",
"285 414 CURVE SMOOTH"
);
}
);
width = 565;
}
);
unicode = 0064;
},
{
color = 10;
glyphname = eth;
lastChange = "2013-08-29 18:05:17 +0000";
layers = (
{
layerId = UUID0;
name = Regular;
paths = (
{
closed = 1;
nodes = (
"302 714 OFFCURVE",
"293 713 OFFCURVE",
"286 712 CURVE SMOOTH",
"275 710 OFFCURVE",
"270 705 OFFCURVE",
"270 698 CURVE SMOOTH",
"270 688 OFFCURVE",
"281 672 OFFCURVE",
"296 650 CURVE",
"224 640 LINE SMOOTH",
"214 638 OFFCURVE",
"209 634 OFFCURVE",
"209 627 CURVE SMOOTH",
"209 613 OFFCURVE",
"221 595 OFFCURVE",
"235 595 CURVE SMOOTH",
"237 595 OFFCURVE",
"239 596 OFFCURVE",
"321 607 CURVE",
"336 581 OFFCURVE",
"352 550 OFFCURVE",
"367 517 CURVE",
"343 525 OFFCURVE",
"316 529 OFFCURVE",
"287 529 CURVE SMOOTH",
"138 529 OFFCURVE",
"55 432 OFFCURVE",
"55 259 CURVE SMOOTH",
"55 87 OFFCURVE",
"136 -6 OFFCURVE",
"287 -6 CURVE SMOOTH",
"436 -6 OFFCURVE",
"514 86 OFFCURVE",
"514 259 CURVE SMOOTH",
"514 389 OFFCURVE",
"467 513 OFFCURVE",
"400 618 CURVE",
"460 626 LINE SMOOTH",
"470 627 OFFCURVE",
"475 632 OFFCURVE",
"475 639 CURVE SMOOTH",
"475 644 OFFCURVE",
"469 671 OFFCURVE",
"450 671 CURVE SMOOTH",
"449 671 OFFCURVE",
"448 671 OFFCURVE",
"372 660 CURVE",
"359 678 OFFCURVE",
"349 690 OFFCURVE",
"339 702 CURVE SMOOTH",
"333 709 OFFCURVE",
"325 714 OFFCURVE",
"313 714 CURVE SMOOTH"
);
},
{
closed = 1;
nodes = (
"382 457 OFFCURVE",
"427 394 OFFCURVE",
"427 261 CURVE SMOOTH",
"427 128 OFFCURVE",
"382 66 OFFCURVE",
"284 66 CURVE SMOOTH",
"186 66 OFFCURVE",
"141 128 OFFCURVE",
"141 261 CURVE SMOOTH",
"141 395 OFFCURVE",
"187 457 OFFCURVE",
"284 457 CURVE SMOOTH"
);
}
);
width = 569;
},
{
layerId = "2C16E7AF-C861-4509-900A-75D3055B0FF7";
name = Bold;
paths = (
{
closed = 1;
nodes = (
"290 713 OFFCURVE",
"270 710 OFFCURVE",
"249 708 CURVE SMOOTH",
"236 706 OFFCURVE",
"230 702 OFFCURVE",
"230 696 CURVE SMOOTH",
"230 688 OFFCURVE",
"255 662 OFFCURVE",
"268 645 CURVE",
"225 639 LINE SMOOTH",
"210 637 OFFCURVE",
"204 632 OFFCURVE",
"204 623 CURVE SMOOTH",
"204 602 OFFCURVE",
"223 581 OFFCURVE",
"243 581 CURVE SMOOTH",
"246 581 OFFCURVE",
"249 581 OFFCURVE",
"304 589 CURVE",
"315 570 OFFCURVE",
"326 550 OFFCURVE",
"336 527 CURVE",
"320 529 OFFCURVE",
"303 531 OFFCURVE",
"285 531 CURVE SMOOTH",
"126 531 OFFCURVE",
"42 436 OFFCURVE",
"42 262 CURVE SMOOTH",
"42 88 OFFCURVE",
"126 -8 OFFCURVE",
"285 -8 CURVE SMOOTH",
"444 -8 OFFCURVE",
"527 88 OFFCURVE",
"527 262 CURVE SMOOTH",
"527 397 OFFCURVE",
"477 529 OFFCURVE",
"427 606 CURVE",
"473 612 LINE SMOOTH",
"487 614 OFFCURVE",
"494 619 OFFCURVE",
"494 628 CURVE SMOOTH",
"494 648 OFFCURVE",
"474 670 OFFCURVE",
"457 670 CURVE SMOOTH",
"456 670 OFFCURVE",
"455 670 OFFCURVE",
"389 661 CURVE",
"375 679 OFFCURVE",
"363 694 OFFCURVE",
"349 704 CURVE SMOOTH",
"338 711 OFFCURVE",
"326 715 OFFCURVE",
"311 715 CURVE"
);
},
{
closed = 1;
nodes = (
"349 414 OFFCURVE",
"377 362 OFFCURVE",
"377 262 CURVE SMOOTH",
"377 162 OFFCURVE",
"349 109 OFFCURVE",
"285 109 CURVE SMOOTH",
"221 109 OFFCURVE",
"192 162 OFFCURVE",
"192 262 CURVE SMOOTH",
"192 362 OFFCURVE",
"221 414 OFFCURVE",
"285 414 CURVE SMOOTH"
);
}
);
width = 569;
}
);
unicode = 00F0;
},
{
color = 10;
glyphname = e;
lastChange = "2013-08-29 18:05:17 +0000";
layers = (
{
anchors = (
{
name = bottom;
position = "{270, 0}";
},
{
name = ogonek;
position = "{433, 10}";
},
{
name = top;
position = "{270, 523}";
}
);
layerId = UUID0;
name = Regular;
paths = (
{
closed = 1;
nodes = (
"135 529 OFFCURVE",
"55 435 OFFCURVE",
"55 258 CURVE SMOOTH",
"55 79 OFFCURVE",
"134 -6 OFFCURVE",
"300 -6 CURVE SMOOTH",
"401 -6 OFFCURVE",
"480 34 OFFCURVE",
"480 58 CURVE SMOOTH",
"480 69 OFFCURVE",
"459 108 OFFCURVE",
"445 108 CURVE SMOOTH",
"435 108 OFFCURVE",
"386 66 OFFCURVE",
"299 66 CURVE SMOOTH",
"200 66 OFFCURVE",
"153 116 OFFCURVE",
"145 227 CURVE",
"461 227 LINE SMOOTH",
"473 227 OFFCURVE",
"494 256 OFFCURVE",
"494 268 CURVE SMOOTH",
"494 438 OFFCURVE",
"425 529 OFFCURVE",
"288 529 CURVE SMOOTH"
);
},
{
closed = 1;
nodes = (
"365 457 OFFCURVE",
"405 404 OFFCURVE",
"405 299 CURVE",
"145 299 LINE",
"152 404 OFFCURVE",
"198 457 OFFCURVE",
"285 457 CURVE SMOOTH"
);
}
);
width = 539;
},
{
anchors = (
{
name = bottom;
position = "{270, 0}";
},
{
name = ogonek;
position = "{437, 14}";
},
{
name = top;
position = "{270, 523}";
}
);
layerId = "2C16E7AF-C861-4509-900A-75D3055B0FF7";
name = Bold;
paths = (
{
closed = 1;
nodes = (
"142 531 OFFCURVE",
"42 455 OFFCURVE",
"42 258 CURVE SMOOTH",
"42 97 OFFCURVE",
"122 -8 OFFCURVE",
"303 -8 CURVE SMOOTH",
"359 -8 OFFCURVE",
"483 14 OFFCURVE",
"483 64 CURVE SMOOTH",
"483 84 OFFCURVE",
"453 140 OFFCURVE",
"431 140 CURVE SMOOTH",
"417 140 OFFCURVE",
"373 109 OFFCURVE",
"310 109 CURVE SMOOTH",
"245 109 OFFCURVE",
"202 134 OFFCURVE",
"195 214 CURVE",
"450 214 LINE SMOOTH",
"463 214 OFFCURVE",
"501 256 OFFCURVE",
"501 273 CURVE SMOOTH",
"501 412 OFFCURVE",
"442 531 OFFCURVE",
"285 531 CURVE SMOOTH"
);
},
{
closed = 1;
nodes = (
"335 414 OFFCURVE",
"357 371 OFFCURVE",
"357 313 CURVE",
"195 313 LINE",
"207 390 OFFCURVE",
"243 414 OFFCURVE",
"285 414 CURVE SMOOTH"
);
}
);
width = 539;
}
);
unicode = 0065;
},
{
color = 10;
glyphname = f;
lastChange = "2013-08-29 18:05:17 +0000";
layers = (
{
layerId = UUID0;
name = Regular;
paths = (
{
closed = 1;
nodes = (
"187 756 OFFCURVE",
"108 737 OFFCURVE",
"108 618 CURVE SMOOTH",
"108 523 LINE",
"68 523 LINE SMOOTH",
"54 523 OFFCURVE",
"48 514 OFFCURVE",
"48 493 CURVE SMOOTH",
"48 481 LINE SMOOTH",
"48 460 OFFCURVE",
"54 451 OFFCURVE",
"68 451 CURVE SMOOTH",
"108 451 LINE",
"108 20 LINE SMOOTH",
"108 6 OFFCURVE",
"120 -2 OFFCURVE",
"148 -2 CURVE SMOOTH",
"152 -2 LINE SMOOTH",
"180 -2 OFFCURVE",
"192 6 OFFCURVE",
"192 20 CURVE SMOOTH",
"192 451 LINE",
"279 451 LINE SMOOTH",
"293 451 OFFCURVE",
"299 460 OFFCURVE",
"299 481 CURVE SMOOTH",
"299 493 LINE SMOOTH",
"299 514 OFFCURVE",
"293 523 OFFCURVE",
"279 523 CURVE SMOOTH",
"192 523 LINE",
"192 610 LINE SMOOTH",
"192 676 OFFCURVE",
"217 684 OFFCURVE",
"246 684 CURVE SMOOTH",
"275 684 OFFCURVE",
"280 679 OFFCURVE",
"289 679 CURVE SMOOTH",
"303 679 OFFCURVE",
"310 718 OFFCURVE",
"310 726 CURVE SMOOTH",
"310 753 OFFCURVE",
"264 756 OFFCURVE",
"237 756 CURVE SMOOTH"
);
}
);
width = 325;
},
{
layerId = "2C16E7AF-C861-4509-900A-75D3055B0FF7";
name = Bold;
paths = (
{
closed = 1;
nodes = (
"131 760 OFFCURVE",
"79 709 OFFCURVE",
"79 598 CURVE SMOOTH",
"79 523 LINE",
"61 523 LINE SMOOTH",
"40 523 OFFCURVE",
"31 508 OFFCURVE",
"31 473 CURVE SMOOTH",
"31 456 LINE SMOOTH",
"31 421 OFFCURVE",
"40 406 OFFCURVE",
"61 406 CURVE SMOOTH",
"79 406 LINE",
"79 30 LINE SMOOTH",
"79 9 OFFCURVE",
"97 -2 OFFCURVE",
"139 -2 CURVE SMOOTH",
"167 -2 LINE SMOOTH",
"209 -2 OFFCURVE",
"227 9 OFFCURVE",
"227 30 CURVE SMOOTH",
"227 406 LINE",
"277 406 LINE SMOOTH",
"298 406 OFFCURVE",
"307 421 OFFCURVE",
"307 456 CURVE SMOOTH",
"307 473 LINE SMOOTH",
"307 508 OFFCURVE",
"298 523 OFFCURVE",
"277 523 CURVE SMOOTH",
"227 523 LINE",
"227 600 LINE SMOOTH",
"227 630 OFFCURVE",
"237 643 OFFCURVE",
"263 643 CURVE SMOOTH",
"273 643 OFFCURVE",
"287 639 OFFCURVE",
"294 639 CURVE SMOOTH",
"314 639 OFFCURVE",
"325 703 OFFCURVE",
"325 711 CURVE SMOOTH",
"325 757 OFFCURVE",
"257 760 OFFCURVE",
"225 760 CURVE SMOOTH"
);
}
);
width = 325;
}
);
unicode = 0066;
},
{
color = 10;
glyphname = g;
lastChange = "2013-08-29 18:05:17 +0000";
layers = (
{
anchors = (
{
name = top;
position = "{273, 523}";
}
);
layerId = UUID0;
name = Regular;
paths = (
{
closed = 1;
nodes = (
"136 529 OFFCURVE",
"68 457 OFFCURVE",
"68 366 CURVE SMOOTH",
"68 306 OFFCURVE",
"97 253 OFFCURVE",
"154 225 CURVE",
"118 200 OFFCURVE",
"98 166 OFFCURVE",
"98 121 CURVE SMOOTH",
"98 83 OFFCURVE",
"114 58 OFFCURVE",
"138 39 CURVE",
"137 37 LINE",
"86 16 OFFCURVE",
"46 -27 OFFCURVE",
"46 -88 CURVE SMOOTH",
"46 -178 OFFCURVE",
"133 -212 OFFCURVE",
"253 -212 CURVE SMOOTH",
"403 -212 OFFCURVE",
"481 -157 OFFCURVE",
"481 -61 CURVE SMOOTH",
"481 31 OFFCURVE",
"406 49 OFFCURVE",
"330 59 CURVE SMOOTH",
"250 69 OFFCURVE",
"169 69 OFFCURVE",
"169 133 CURVE SMOOTH",
"169 183 OFFCURVE",
"204 200 OFFCURVE",
"264 202 CURVE SMOOTH",
"393 202 OFFCURVE",
"461 274 OFFCURVE",
"461 366 CURVE SMOOTH",
"461 397 OFFCURVE",
"452 428 OFFCURVE",
"435 452 CURVE",
"436 454 LINE",
"455 452 OFFCURVE",
"474 451 OFFCURVE",
"506 451 CURVE SMOOTH",
"520 451 OFFCURVE",
"526 460 OFFCURVE",
"526 481 CURVE SMOOTH",
"526 493 LINE SMOOTH",
"526 514 OFFCURVE",
"520 523 OFFCURVE",
"506 523 CURVE SMOOTH",
"324 523 LINE",
"306 527 OFFCURVE",
"286 529 OFFCURVE",
"265 529 CURVE SMOOTH"
);
},
{
closed = 1;
nodes = (
"262 -14 OFFCURVE",
"401 5 OFFCURVE",
"401 -70 CURVE SMOOTH",
"401 -120 OFFCURVE",
"357 -144 OFFCURVE",
"264 -144 CURVE SMOOTH",
"200 -144 OFFCURVE",
"121 -133 OFFCURVE",
"121 -72 CURVE SMOOTH",
"121 -30 OFFCURVE",
"151 -6 OFFCURVE",
"187 9 CURVE"
);
},
{
closed = 1;
nodes = (
"330 462 OFFCURVE",
"384 439 OFFCURVE",
"384 365 CURVE SMOOTH",
"384 292 OFFCURVE",
"330 269 OFFCURVE",
"264 269 CURVE SMOOTH",
"198 269 OFFCURVE",
"145 292 OFFCURVE",
"145 365 CURVE SMOOTH",
"145 439 OFFCURVE",
"198 462 OFFCURVE",
"264 462 CURVE SMOOTH"
);
}
);
width = 546;
},
{
anchors = (
{
name = top;
position = "{273, 523}";
}
);
layerId = "2C16E7AF-C861-4509-900A-75D3055B0FF7";
name = Bold;
paths = (
{
closed = 1;
nodes = (
"148 531 OFFCURVE",
"52 482 OFFCURVE",
"52 353 CURVE SMOOTH",
"52 279 OFFCURVE",
"84 231 OFFCURVE",
"133 204 CURVE",
"95 184 OFFCURVE",
"73 155 OFFCURVE",
"73 121 CURVE SMOOTH",
"73 88 OFFCURVE",
"88 60 OFFCURVE",
"116 46 CURVE",
"115 42 LINE",
"56 19 OFFCURVE",
"24 -22 OFFCURVE",
"24 -74 CURVE SMOOTH",
"24 -165 OFFCURVE",
"101 -212 OFFCURVE",
"262 -212 CURVE SMOOTH",
"417 -212 OFFCURVE",
"520 -145 OFFCURVE",
"520 -42 CURVE SMOOTH",
"520 58 OFFCURVE",
"442 88 OFFCURVE",
"365 103 CURVE SMOOTH",
"290 116 OFFCURVE",
"217 116 OFFCURVE",
"217 149 CURVE SMOOTH",
"217 167 OFFCURVE",
"237 176 OFFCURVE",
"278 176 CURVE SMOOTH",
"392 176 OFFCURVE",
"482 228 OFFCURVE",
"482 353 CURVE SMOOTH",
"482 372 OFFCURVE",
"475 397 OFFCURVE",
"466 409 CURVE",
"468 413 LINE",
"477 411 OFFCURVE",
"504 409 OFFCURVE",
"511 409 CURVE SMOOTH",
"527 409 OFFCURVE",
"535 423 OFFCURVE",
"535 456 CURVE SMOOTH",
"535 473 LINE SMOOTH",
"535 508 OFFCURVE",
"526 523 OFFCURVE",
"505 523 CURVE SMOOTH",
"344 523 LINE",
"320 528 OFFCURVE",
"294 531 OFFCURVE",
"267 531 CURVE SMOOTH"
);
},
{
closed = 1;
nodes = (
"336 -4 OFFCURVE",
"376 -15 OFFCURVE",
"376 -46 CURVE SMOOTH",
"376 -76 OFFCURVE",
"342 -95 OFFCURVE",
"273 -95 CURVE SMOOTH",
"199 -95 OFFCURVE",
"168 -77 OFFCURVE",
"168 -50 CURVE SMOOTH",
"168 -30 OFFCURVE",
"187 -8 OFFCURVE",
"222 4 CURVE"
);
},
{
closed = 1;
nodes = (
"308 424 OFFCURVE",
"342 403 OFFCURVE",
"342 353 CURVE SMOOTH",
"342 303 OFFCURVE",
"308 283 OFFCURVE",
"267 283 CURVE SMOOTH",
"226 283 OFFCURVE",
"192 303 OFFCURVE",
"192 353 CURVE SMOOTH",
"192 403 OFFCURVE",
"226 424 OFFCURVE",
"267 424 CURVE SMOOTH"
);
}
);
width = 546;
}
);
unicode = 0067;
},
{
color = 10;
glyphname = h;
lastChange = "2013-08-29 18:05:17 +0000";
layers = (
{
anchors = (
{
name = bottom;
position = "{282, 0}";
},
{
name = center;
position = "{172, 630}";
},
{
name = top;
position = "{134, 730}";
}
);
layerId = UUID0;
name = Regular;
paths = (
{
closed = 1;
nodes = (
"132 752 LINE SMOOTH",
"104 752 OFFCURVE",
"92 744 OFFCURVE",
"92 730 CURVE SMOOTH",
"92 20 LINE SMOOTH",
"92 6 OFFCURVE",
"104 -2 OFFCURVE",
"132 -2 CURVE SMOOTH",
"136 -2 LINE SMOOTH",
"164 -2 OFFCURVE",
"176 6 OFFCURVE",
"176 20 CURVE SMOOTH",
"176 386 LINE",
"176 386 OFFCURVE",
"227 456 OFFCURVE",
"302 456 CURVE SMOOTH",
"370 456 OFFCURVE",
"404 418 OFFCURVE",
"404 359 CURVE SMOOTH",
"404 20 LINE SMOOTH",
"404 6 OFFCURVE",
"416 -2 OFFCURVE",
"444 -2 CURVE SMOOTH",
"448 -2 LINE SMOOTH",
"476 -2 OFFCURVE",
"488 6 OFFCURVE",
"488 20 CURVE SMOOTH",
"488 367 LINE SMOOTH",
"488 503 OFFCURVE",
"393 529 OFFCURVE",
"329 529 CURVE SMOOTH",
"265 529 OFFCURVE",
"211 495 OFFCURVE",
"176 460 CURVE",
"176 730 LINE SMOOTH",
"176 744 OFFCURVE",
"164 752 OFFCURVE",
"136 752 CURVE SMOOTH"
);
}
);
width = 565;
},
{
anchors = (
{
name = bottom;
position = "{281, 0}";
},
{
name = center;
position = "{167, 630}";
},
{
name = top;
position = "{141, 732}";
}
);
layerId = "2C16E7AF-C861-4509-900A-75D3055B0FF7";
name = Bold;
paths = (
{
closed = 1;
nodes = (
"126 754 LINE SMOOTH",
"84 754 OFFCURVE",
"66 743 OFFCURVE",
"66 722 CURVE SMOOTH",
"66 30 LINE SMOOTH",
"66 9 OFFCURVE",
"84 -2 OFFCURVE",
"126 -2 CURVE SMOOTH",
"154 -2 LINE SMOOTH",
"196 -2 OFFCURVE",
"214 9 OFFCURVE",
"214 30 CURVE SMOOTH",
"214 351 LINE",
"226 374 OFFCURVE",
"253 409 OFFCURVE",
"294 409 CURVE SMOOTH",
"338 409 OFFCURVE",
"358 386 OFFCURVE",
"358 347 CURVE SMOOTH",
"358 30 LINE SMOOTH",
"358 9 OFFCURVE",
"376 -2 OFFCURVE",
"418 -2 CURVE SMOOTH",
"446 -2 LINE SMOOTH",
"488 -2 OFFCURVE",
"506 9 OFFCURVE",
"506 30 CURVE SMOOTH",
"506 369 LINE SMOOTH",
"506 480 OFFCURVE",
"455 531 OFFCURVE",
"355 531 CURVE SMOOTH",
"295 531 OFFCURVE",
"245 500 OFFCURVE",
"214 463 CURVE",
"214 722 LINE SMOOTH",
"214 743 OFFCURVE",
"196 754 OFFCURVE",
"154 754 CURVE SMOOTH"
);
}
);
width = 565;
}
);
unicode = 0068;
},
{
color = 10;
glyphname = i;
lastChange = "2013-08-29 18:05:17 +0000";
layers = (
{
anchors = (
{
name = bottom;
position = "{131, 0}";
}
);
layerId = UUID0;
name = Regular;
paths = (
{
closed = 1;
nodes = (
"131 525 LINE SMOOTH",
"103 525 OFFCURVE",
"91 517 OFFCURVE",
"91 503 CURVE SMOOTH",
"91 20 LINE SMOOTH",
"91 6 OFFCURVE",
"103 -2 OFFCURVE",
"131 -2 CURVE SMOOTH",
"135 -2 LINE SMOOTH",
"163 -2 OFFCURVE",
"175 6 OFFCURVE",
"175 20 CURVE SMOOTH",
"175 503 LINE SMOOTH",
"175 517 OFFCURVE",
"163 525 OFFCURVE",
"135 525 CURVE SMOOTH"
);
},
{
closed = 1;
nodes = (
"127 752 LINE SMOOTH",
"99 752 OFFCURVE",
"87 744 OFFCURVE",
"87 730 CURVE SMOOTH",
"87 671 LINE SMOOTH",
"87 657 OFFCURVE",
"99 649 OFFCURVE",
"127 649 CURVE",
"139 649 LINE SMOOTH",
"167 649 OFFCURVE",
"179 657 OFFCURVE",
"179 671 CURVE SMOOTH",
"179 730 LINE SMOOTH",
"179 744 OFFCURVE",
"167 752 OFFCURVE",
"139 752 CURVE SMOOTH"
);
}
);
width = 265;
},
{
anchors = (
{
name = bottom;
position = "{131, 0}";
}
);
layerId = "2C16E7AF-C861-4509-900A-75D3055B0FF7";
name = Bold;
paths = (
{
closed = 1;
nodes = (
"119 525 LINE SMOOTH",
"77 525 OFFCURVE",
"59 514 OFFCURVE",
"59 493 CURVE SMOOTH",
"59 30 LINE SMOOTH",
"59 9 OFFCURVE",
"77 -2 OFFCURVE",
"119 -2 CURVE SMOOTH",
"147 -2 LINE SMOOTH",
"189 -2 OFFCURVE",
"207 9 OFFCURVE",
"207 30 CURVE SMOOTH",
"207 493 LINE SMOOTH",
"207 514 OFFCURVE",
"189 525 OFFCURVE",
"147 525 CURVE SMOOTH"
);
},
{
closed = 1;
nodes = (
"119 754 LINE SMOOTH",
"77 754 OFFCURVE",
"59 743 OFFCURVE",
"59 722 CURVE SMOOTH",
"59 641 LINE SMOOTH",
"59 620 OFFCURVE",
"77 609 OFFCURVE",
"119 609 CURVE",
"147 609 LINE SMOOTH",
"189 609 OFFCURVE",
"207 620 OFFCURVE",
"207 641 CURVE SMOOTH",
"207 722 LINE SMOOTH",
"207 743 OFFCURVE",
"189 754 OFFCURVE",
"147 754 CURVE SMOOTH"
);
}
);
width = 265;
}
);
unicode = 0069;
},
{
color = 10;
glyphname = dotlessi;
lastChange = "2013-08-29 18:05:17 +0000";
layers = (
{
anchors = (
{
name = bottom;
position = "{131, 0}";
},
{
name = ogonek;
position = "{158, 0}";
},
{
name = top;
position = "{133, 523}";
}
);
layerId = UUID0;
name = Regular;
paths = (
{
closed = 1;
nodes = (
"131 525 LINE SMOOTH",
"103 525 OFFCURVE",
"91 517 OFFCURVE",
"91 503 CURVE SMOOTH",
"91 20 LINE SMOOTH",
"91 6 OFFCURVE",
"103 -2 OFFCURVE",
"131 -2 CURVE SMOOTH",
"135 -2 LINE SMOOTH",
"163 -2 OFFCURVE",
"175 6 OFFCURVE",
"175 20 CURVE SMOOTH",
"175 503 LINE SMOOTH",
"175 517 OFFCURVE",
"163 525 OFFCURVE",
"135 525 CURVE SMOOTH"
);
}
);
width = 265;
},
{
anchors = (
{
name = bottom;
position = "{131, 0}";
},
{
name = ogonek;
position = "{169, 0}";
},
{
name = top;
position = "{133, 523}";
}
);
layerId = "2C16E7AF-C861-4509-900A-75D3055B0FF7";
name = Bold;
paths = (
{
closed = 1;
nodes = (
"119 525 LINE SMOOTH",
"77 525 OFFCURVE",
"59 514 OFFCURVE",
"59 493 CURVE SMOOTH",
"59 30 LINE SMOOTH",
"59 9 OFFCURVE",
"77 -2 OFFCURVE",
"119 -2 CURVE SMOOTH",
"147 -2 LINE SMOOTH",
"189 -2 OFFCURVE",
"207 9 OFFCURVE",
"207 30 CURVE SMOOTH",
"207 493 LINE SMOOTH",
"207 514 OFFCURVE",
"189 525 OFFCURVE",
"147 525 CURVE SMOOTH"
);
}
);
width = 265;
}
);
unicode = 0131;
},
{
color = 10;
glyphname = j;
lastChange = "2013-08-29 18:05:17 +0000";
layers = (
{
layerId = UUID0;
name = Regular;
paths = (
{
closed = 1;
nodes = (
"141 525 LINE SMOOTH",
"113 525 OFFCURVE",
"101 517 OFFCURVE",
"101 503 CURVE SMOOTH",
"101 -66 LINE SMOOTH",
"101 -126 OFFCURVE",
"76 -140 OFFCURVE",
"47 -140 CURVE SMOOTH",
"18 -140 OFFCURVE",
"13 -135 OFFCURVE",
"4 -135 CURVE SMOOTH",
"-10 -135 OFFCURVE",
"-17 -174 OFFCURVE",
"-17 -182 CURVE SMOOTH",
"-17 -209 OFFCURVE",
"29 -212 OFFCURVE",
"56 -212 CURVE SMOOTH",
"106 -212 OFFCURVE",
"185 -190 OFFCURVE",
"185 -74 CURVE SMOOTH",
"185 503 LINE SMOOTH",
"185 517 OFFCURVE",
"173 525 OFFCURVE",
"145 525 CURVE SMOOTH"
);
},
{
closed = 1;
nodes = (
"137 752 LINE SMOOTH",
"109 752 OFFCURVE",
"97 744 OFFCURVE",
"97 730 CURVE SMOOTH",
"97 671 LINE SMOOTH",
"97 657 OFFCURVE",
"109 649 OFFCURVE",
"137 649 CURVE",
"149 649 LINE SMOOTH",
"177 649 OFFCURVE",
"189 657 OFFCURVE",
"189 671 CURVE SMOOTH",
"189 730 LINE SMOOTH",
"189 744 OFFCURVE",
"177 752 OFFCURVE",
"149 752 CURVE SMOOTH"
);
}
);
width = 276;
},
{
layerId = "2C16E7AF-C861-4509-900A-75D3055B0FF7";
name = Bold;
paths = (
{
closed = 1;
nodes = (
"130 525 LINE SMOOTH",
"88 525 OFFCURVE",
"70 514 OFFCURVE",
"70 493 CURVE SMOOTH",
"70 -52 LINE SMOOTH",
"70 -82 OFFCURVE",
"60 -95 OFFCURVE",
"34 -95 CURVE SMOOTH",
"23 -95 OFFCURVE",
"10 -91 OFFCURVE",
"4 -91 CURVE SMOOTH",
"-17 -91 OFFCURVE",
"-32 -137 OFFCURVE",
"-32 -160 CURVE SMOOTH",
"-32 -199 OFFCURVE",
"-7 -212 OFFCURVE",
"72 -212 CURVE SMOOTH",
"155 -212 OFFCURVE",
"218 -159 OFFCURVE",
"218 -50 CURVE SMOOTH",
"218 493 LINE SMOOTH",
"218 514 OFFCURVE",
"200 525 OFFCURVE",
"158 525 CURVE SMOOTH"
);
},
{
closed = 1;
nodes = (
"130 754 LINE SMOOTH",
"88 754 OFFCURVE",
"70 743 OFFCURVE",
"70 722 CURVE SMOOTH",
"70 641 LINE SMOOTH",
"70 620 OFFCURVE",
"88 609 OFFCURVE",
"130 609 CURVE",
"158 609 LINE SMOOTH",
"200 609 OFFCURVE",
"218 620 OFFCURVE",
"218 641 CURVE SMOOTH",
"218 722 LINE SMOOTH",
"218 743 OFFCURVE",
"200 754 OFFCURVE",
"158 754 CURVE SMOOTH"
);
}
);
width = 276;
}
);
unicode = 006A;
},
{
color = 10;
glyphname = dotlessj;
lastChange = "2013-08-29 18:05:17 +0000";
layers = (
{
anchors = (
{
name = top;
position = "{144, 523}";
}
);
layerId = "2C16E7AF-C861-4509-900A-75D3055B0FF7";
name = Bold;
paths = (
{
closed = 1;
nodes = (
"130 525 LINE SMOOTH",
"88 525 OFFCURVE",
"70 514 OFFCURVE",
"70 493 CURVE SMOOTH",
"70 -52 LINE SMOOTH",
"70 -82 OFFCURVE",
"60 -95 OFFCURVE",
"34 -95 CURVE SMOOTH",
"23 -95 OFFCURVE",
"10 -91 OFFCURVE",
"4 -91 CURVE SMOOTH",
"-17 -91 OFFCURVE",
"-32 -137 OFFCURVE",
"-32 -160 CURVE SMOOTH",
"-32 -199 OFFCURVE",
"-7 -212 OFFCURVE",
"72 -212 CURVE SMOOTH",
"155 -212 OFFCURVE",
"218 -159 OFFCURVE",
"218 -50 CURVE SMOOTH",
"218 493 LINE SMOOTH",
"218 514 OFFCURVE",
"200 525 OFFCURVE",
"158 525 CURVE SMOOTH"
);
}
);
width = 276;
},
{
anchors = (
{
name = top;
position = "{143, 523}";
}
);
layerId = UUID0;
name = Regular;
paths = (
{
closed = 1;
nodes = (
"141 525 LINE SMOOTH",
"113 525 OFFCURVE",
"101 517 OFFCURVE",
"101 503 CURVE SMOOTH",
"101 -66 LINE SMOOTH",
"101 -126 OFFCURVE",
"76 -140 OFFCURVE",
"47 -140 CURVE SMOOTH",
"18 -140 OFFCURVE",
"13 -135 OFFCURVE",
"4 -135 CURVE SMOOTH",
"-10 -135 OFFCURVE",
"-17 -174 OFFCURVE",
"-17 -182 CURVE SMOOTH",
"-17 -209 OFFCURVE",
"29 -212 OFFCURVE",
"56 -212 CURVE SMOOTH",
"106 -212 OFFCURVE",
"185 -190 OFFCURVE",
"185 -74 CURVE SMOOTH",
"185 503 LINE SMOOTH",
"185 517 OFFCURVE",
"173 525 OFFCURVE",
"145 525 CURVE SMOOTH"
);
}
);
width = 276;
}
);
unicode = 0237;
},
{
color = 10;
glyphname = k;
lastChange = "2013-08-29 18:05:17 +0000";
layers = (
{
anchors = (
{
name = bottom;
position = "{261, 0}";
}
);
layerId = UUID0;
name = Regular;
paths = (
{
closed = 1;
nodes = (
"134 752 LINE SMOOTH",
"106 752 OFFCURVE",
"94 744 OFFCURVE",
"94 730 CURVE SMOOTH",
"94 20 LINE SMOOTH",
"94 6 OFFCURVE",
"106 -2 OFFCURVE",
"134 -2 CURVE SMOOTH",
"138 -2 LINE SMOOTH",
"166 -2 OFFCURVE",
"178 6 OFFCURVE",
"178 20 CURVE SMOOTH",
"178 248 LINE",
"182 248 LINE",
"382 11 LINE SMOOTH",
"392 -1 OFFCURVE",
"414 -2 OFFCURVE",
"436 -2 CURVE SMOOTH",
"440 -2 LINE SMOOTH",
"471 -2 OFFCURVE",
"484 1 OFFCURVE",
"484 12 CURVE SMOOTH",
"484 16 OFFCURVE",
"482 20 OFFCURVE",
"475 28 CURVE SMOOTH",
"269 272 LINE",
"455 492 LINE SMOOTH",
"462 500 OFFCURVE",
"465 507 OFFCURVE",
"465 512 CURVE SMOOTH",
"465 519 OFFCURVE",
"454 525 OFFCURVE",
"430 525 CURVE SMOOTH",
"426 525 LINE SMOOTH",
"404 525 OFFCURVE",
"382 522 OFFCURVE",
"373 511 CURVE SMOOTH",
"182 283 LINE",
"178 283 LINE",
"178 730 LINE SMOOTH",
"178 744 OFFCURVE",
"166 752 OFFCURVE",
"138 752 CURVE SMOOTH"
);
}
);
width = 521;
},
{
anchors = (
{
name = bottom;
position = "{261, 0}";
}
);
layerId = "2C16E7AF-C861-4509-900A-75D3055B0FF7";
name = Bold;
paths = (
{
closed = 1;
nodes = (
"126 754 LINE SMOOTH",
"84 754 OFFCURVE",
"66 743 OFFCURVE",
"66 722 CURVE SMOOTH",
"66 30 LINE SMOOTH",
"66 9 OFFCURVE",
"84 -2 OFFCURVE",
"126 -2 CURVE SMOOTH",
"154 -2 LINE SMOOTH",
"196 -2 OFFCURVE",
"214 9 OFFCURVE",
"214 30 CURVE SMOOTH",
"214 246 LINE",
"218 247 LINE",
"357 17 LINE SMOOTH",
"366 2 OFFCURVE",
"388 -2 OFFCURVE",
"417 -2 CURVE SMOOTH",
"459 -2 LINE SMOOTH",
"498 -2 OFFCURVE",
"516 4 OFFCURVE",
"516 13 CURVE SMOOTH",
"516 19 OFFCURVE",
"513 25 OFFCURVE",
"508 34 CURVE SMOOTH",
"345 292 LINE",
"484 490 LINE SMOOTH",
"490 498 OFFCURVE",
"493 505 OFFCURVE",
"493 510 CURVE SMOOTH",
"493 519 OFFCURVE",
"475 525 OFFCURVE",
"437 525 CURVE SMOOTH",
"400 525 LINE SMOOTH",
"371 525 OFFCURVE",
"351 523 OFFCURVE",
"339 506 CURVE SMOOTH",
"218 325 LINE",
"214 326 LINE",
"214 722 LINE SMOOTH",
"214 743 OFFCURVE",
"196 754 OFFCURVE",
"154 754 CURVE SMOOTH"
);
}
);
width = 521;
}
);
unicode = 006B;
},
{
color = 10;
glyphname = kgreenlandic;
lastChange = "2013-08-29 18:05:17 +0000";
layers = (
{
layerId = "2C16E7AF-C861-4509-900A-75D3055B0FF7";
name = Bold;
paths = (
{
closed = 1;
nodes = (
"126 525 LINE SMOOTH",
"84 525 OFFCURVE",
"66 514 OFFCURVE",
"66 493 CURVE SMOOTH",
"66 30 LINE SMOOTH",
"66 9 OFFCURVE",
"84 -2 OFFCURVE",
"126 -2 CURVE SMOOTH",
"154 -2 LINE SMOOTH",
"196 -2 OFFCURVE",
"214 9 OFFCURVE",
"214 30 CURVE SMOOTH",
"214 246 LINE",
"218 247 LINE",
"357 17 LINE SMOOTH",
"366 2 OFFCURVE",
"388 -2 OFFCURVE",
"417 -2 CURVE SMOOTH",
"459 -2 LINE SMOOTH",
"498 -2 OFFCURVE",
"516 4 OFFCURVE",
"516 13 CURVE SMOOTH",
"516 19 OFFCURVE",
"513 25 OFFCURVE",
"508 34 CURVE SMOOTH",
"345 292 LINE",
"484 490 LINE SMOOTH",
"490 498 OFFCURVE",
"493 505 OFFCURVE",
"493 510 CURVE SMOOTH",
"493 519 OFFCURVE",
"475 525 OFFCURVE",
"437 525 CURVE SMOOTH",
"400 525 LINE SMOOTH",
"371 525 OFFCURVE",
"351 523 OFFCURVE",
"339 506 CURVE SMOOTH",
"218 325 LINE",
"214 326 LINE",
"214 493 LINE SMOOTH",
"214 514 OFFCURVE",
"196 525 OFFCURVE",
"154 525 CURVE SMOOTH"
);
}
);
width = 521;
},
{
layerId = UUID0;
name = Regular;
paths = (
{
closed = 1;
nodes = (
"134 526 LINE SMOOTH",
"106 526 OFFCURVE",
"94 518 OFFCURVE",
"94 504 CURVE SMOOTH",
"94 20 LINE SMOOTH",
"94 6 OFFCURVE",
"106 -2 OFFCURVE",
"134 -2 CURVE SMOOTH",
"138 -2 LINE SMOOTH",
"166 -2 OFFCURVE",
"178 6 OFFCURVE",
"178 20 CURVE SMOOTH",
"178 248 LINE",
"182 248 LINE",
"382 11 LINE SMOOTH",
"392 -1 OFFCURVE",
"414 -2 OFFCURVE",
"436 -2 CURVE SMOOTH",
"440 -2 LINE SMOOTH",
"471 -2 OFFCURVE",
"484 1 OFFCURVE",
"484 12 CURVE SMOOTH",
"484 16 OFFCURVE",
"482 20 OFFCURVE",
"475 28 CURVE SMOOTH",
"269 272 LINE",
"455 492 LINE SMOOTH",
"462 500 OFFCURVE",
"465 507 OFFCURVE",
"465 512 CURVE SMOOTH",
"465 519 OFFCURVE",
"454 525 OFFCURVE",
"430 525 CURVE SMOOTH",
"426 525 LINE SMOOTH",
"404 525 OFFCURVE",
"382 522 OFFCURVE",
"373 511 CURVE SMOOTH",
"182 283 LINE",
"178 283 LINE",
"178 504 LINE SMOOTH",
"178 518 OFFCURVE",
"166 526 OFFCURVE",
"138 526 CURVE SMOOTH"
);
}
);
width = 521;
}
);
unicode = 0138;
},
{
color = 10;
glyphname = l;
lastChange = "2013-08-29 18:05:17 +0000";
layers = (
{
anchors = (
{
name = bottom;
position = "{179, 0}";
},
{
name = caron;
position = "{166, 702}";
},
{
name = center;
position = "{279, 335}";
},
{
name = top;
position = "{125, 720}";
}
);
layerId = UUID0;
name = Regular;
paths = (
{
closed = 1;
nodes = (
"122 752 LINE SMOOTH",
"94 752 OFFCURVE",
"82 744 OFFCURVE",
"82 730 CURVE SMOOTH",
"82 132 LINE SMOOTH",
"82 16 OFFCURVE",
"161 -6 OFFCURVE",
"211 -6 CURVE SMOOTH",
"238 -6 OFFCURVE",
"284 -3 OFFCURVE",
"284 24 CURVE SMOOTH",
"284 32 OFFCURVE",
"277 71 OFFCURVE",
"263 71 CURVE SMOOTH",
"254 71 OFFCURVE",
"249 66 OFFCURVE",
"220 66 CURVE SMOOTH",
"191 66 OFFCURVE",
"166 80 OFFCURVE",
"166 140 CURVE SMOOTH",
"166 730 LINE SMOOTH",
"166 744 OFFCURVE",
"154 752 OFFCURVE",
"126 752 CURVE SMOOTH"
);
}
);
width = 297;
},
{
anchors = (
{
name = bottom;
position = "{183, 0}";
},
{
name = caron;
position = "{193, 752}";
},
{
name = center;
position = "{305, 335}";
},
{
name = top;
position = "{136, 720}";
}
);
layerId = "2C16E7AF-C861-4509-900A-75D3055B0FF7";
name = Bold;
paths = (
{
closed = 1;
nodes = (
"123 754 LINE SMOOTH",
"81 754 OFFCURVE",
"63 743 OFFCURVE",
"63 722 CURVE SMOOTH",
"63 154 LINE SMOOTH",
"63 43 OFFCURVE",
"115 -8 OFFCURVE",
"209 -8 CURVE SMOOTH",
"240 -8 OFFCURVE",
"305 -5 OFFCURVE",
"305 41 CURVE SMOOTH",
"305 49 OFFCURVE",
"294 113 OFFCURVE",
"274 113 CURVE SMOOTH",
"268 113 OFFCURVE",
"256 109 OFFCURVE",
"247 109 CURVE SMOOTH",
"221 109 OFFCURVE",
"211 122 OFFCURVE",
"211 152 CURVE SMOOTH",
"211 722 LINE SMOOTH",
"211 743 OFFCURVE",
"193 754 OFFCURVE",
"151 754 CURVE SMOOTH"
);
}
);
width = 297;
}
);
unicode = 006C;
},
{
color = 10;
glyphname = lslash;
lastChange = "2013-08-29 18:05:17 +0000";
layers = (
{
layerId = UUID0;
name = Regular;
paths = (
{
closed = 1;
nodes = (
"120 752 LINE SMOOTH",
"92 752 OFFCURVE",
"80 744 OFFCURVE",
"80 730 CURVE SMOOTH",
"80 398 LINE",
"38 374 LINE SMOOTH",
"26 367 OFFCURVE",
"19 358 OFFCURVE",
"19 344 CURVE SMOOTH",
"19 338 LINE SMOOTH",
"19 329 OFFCURVE",
"23 324 OFFCURVE",
"28 324 CURVE SMOOTH",
"30 324 OFFCURVE",
"34 325 OFFCURVE",
"38 328 CURVE SMOOTH",
"80 353 LINE",
"80 132 LINE SMOOTH",
"80 16 OFFCURVE",
"159 -6 OFFCURVE",
"209 -6 CURVE SMOOTH",
"236 -6 OFFCURVE",
"282 -3 OFFCURVE",
"282 24 CURVE SMOOTH",
"282 32 OFFCURVE",
"275 71 OFFCURVE",
"261 71 CURVE SMOOTH",
"252 71 OFFCURVE",
"247 66 OFFCURVE",
"218 66 CURVE SMOOTH",
"189 66 OFFCURVE",
"164 80 OFFCURVE",
"164 140 CURVE SMOOTH",
"164 402 LINE",
"206 427 LINE SMOOTH",
"218 434 OFFCURVE",
"225 443 OFFCURVE",
"225 457 CURVE SMOOTH",
"225 463 LINE SMOOTH",
"225 472 OFFCURVE",
"221 477 OFFCURVE",
"216 477 CURVE SMOOTH",
"213 477 OFFCURVE",
"210 475 OFFCURVE",
"206 473 CURVE SMOOTH",
"164 448 LINE",
"164 730 LINE SMOOTH",
"164 744 OFFCURVE",
"152 752 OFFCURVE",
"124 752 CURVE SMOOTH"
);
}
);
width = 293;
},
{
layerId = "2C16E7AF-C861-4509-900A-75D3055B0FF7";
name = Bold;
paths = (
{
closed = 1;
nodes = (
"119 754 LINE SMOOTH",
"77 754 OFFCURVE",
"59 743 OFFCURVE",
"59 722 CURVE SMOOTH",
"59 403 LINE",
"37 390 LINE SMOOTH",
"19 379 OFFCURVE",
"11 365 OFFCURVE",
"11 344 CURVE SMOOTH",
"11 324 LINE SMOOTH",
"11 310 OFFCURVE",
"14 304 OFFCURVE",
"21 304 CURVE SMOOTH",
"25 304 OFFCURVE",
"30 306 OFFCURVE",
"37 310 CURVE SMOOTH",
"59 323 LINE",
"59 154 LINE SMOOTH",
"59 43 OFFCURVE",
"111 -8 OFFCURVE",
"205 -8 CURVE SMOOTH",
"236 -8 OFFCURVE",
"301 -5 OFFCURVE",
"301 41 CURVE SMOOTH",
"301 49 OFFCURVE",
"290 113 OFFCURVE",
"270 113 CURVE SMOOTH",
"264 113 OFFCURVE",
"252 109 OFFCURVE",
"243 109 CURVE SMOOTH",
"217 109 OFFCURVE",
"207 122 OFFCURVE",
"207 152 CURVE SMOOTH",
"207 412 LINE",
"231 427 LINE SMOOTH",
"249 438 OFFCURVE",
"257 450 OFFCURVE",
"257 472 CURVE SMOOTH",
"257 492 LINE SMOOTH",
"257 506 OFFCURVE",
"253 512 OFFCURVE",
"246 512 CURVE SMOOTH",
"242 512 OFFCURVE",
"237 510 OFFCURVE",
"231 507 CURVE SMOOTH",
"207 492 LINE",
"207 722 LINE SMOOTH",
"207 743 OFFCURVE",
"189 754 OFFCURVE",
"147 754 CURVE SMOOTH"
);
}
);
width = 293;
}
);
unicode = 0142;
},
{
color = 10;
glyphname = m;
lastChange = "2013-09-06 17:31:36 +0000";
layers = (
{
layerId = UUID0;
name = Regular;
paths = (
{
closed = 1;
nodes = (
"553 529 OFFCURVE",
"495 491 OFFCURVE",
"457 446 CURVE",
"429 514 OFFCURVE",
"363 529 OFFCURVE",
"314 529 CURVE SMOOTH",
"250 529 OFFCURVE",
"195 492 OFFCURVE",
"162 454 CURVE",
"156 480 OFFCURVE",
"151 520 OFFCURVE",
"127 520 CURVE SMOOTH",
"114 520 OFFCURVE",
"73 516 OFFCURVE",
"73 497 CURVE SMOOTH",
"73 492 OFFCURVE",
"85 453 OFFCURVE",
"85 371 CURVE SMOOTH",
"85 20 LINE SMOOTH",
"85 6 OFFCURVE",
"97 -2 OFFCURVE",
"125 -2 CURVE SMOOTH",
"129 -2 LINE SMOOTH",
"157 -2 OFFCURVE",
"169 6 OFFCURVE",
"169 20 CURVE SMOOTH",
"169 387 LINE",
"169 387 OFFCURVE",
"218 456 OFFCURVE",
"291 456 CURVE SMOOTH",
"355 456 OFFCURVE",
"387 418 OFFCURVE",
"387 359 CURVE SMOOTH",
"387 20 LINE SMOOTH",
"387 6 OFFCURVE",
"399 -2 OFFCURVE",
"427 -2 CURVE SMOOTH",
"431 -2 LINE SMOOTH",
"459 -2 OFFCURVE",
"471 6 OFFCURVE",
"471 20 CURVE SMOOTH",
"471 366 LINE SMOOTH",
"471 381 OFFCURVE",
"470 398 OFFCURVE",
"464 413 CURVE",
"465 379 LINE",
"469 384 OFFCURVE",
"521 456 OFFCURVE",
"593 456 CURVE SMOOTH",
"657 456 OFFCURVE",
"689 418 OFFCURVE",
"689 359 CURVE SMOOTH",
"689 20 LINE SMOOTH",
"689 6 OFFCURVE",
"701 -2 OFFCURVE",
"729 -2 CURVE SMOOTH",
"733 -2 LINE SMOOTH",
"761 -2 OFFCURVE",
"773 6 OFFCURVE",
"773 20 CURVE SMOOTH",
"773 367 LINE SMOOTH",
"773 503 OFFCURVE",
"680 529 OFFCURVE",
"616 529 CURVE SMOOTH"
);
}
);
width = 848;
},
{
layerId = "2C16E7AF-C861-4509-900A-75D3055B0FF7";
name = Bold;
paths = (
{
closed = 1;
nodes = (
"569 531 OFFCURVE",
"512 493 OFFCURVE",
"482 455 CURVE",
"462 507 OFFCURVE",
"419 531 OFFCURVE",
"350 531 CURVE SMOOTH",
"285 531 OFFCURVE",
"231 493 OFFCURVE",
"202 455 CURVE",
"196 480 OFFCURVE",
"194 520 OFFCURVE",
"162 520 CURVE SMOOTH",
"137 520 OFFCURVE",
"50 512 OFFCURVE",
"50 488 CURVE SMOOTH",
"50 468 OFFCURVE",
"62 447 OFFCURVE",
"62 347 CURVE SMOOTH",
"62 30 LINE SMOOTH",
"62 9 OFFCURVE",
"80 -2 OFFCURVE",
"122 -2 CURVE SMOOTH",
"150 -2 LINE SMOOTH",
"192 -2 OFFCURVE",
"210 9 OFFCURVE",
"210 30 CURVE SMOOTH",
"210 351 LINE",
"222 374 OFFCURVE",
"248 409 OFFCURVE",
"289 409 CURVE SMOOTH",
"333 409 OFFCURVE",
"348 386 OFFCURVE",
"348 347 CURVE SMOOTH",
"348 30 LINE SMOOTH",
"348 9 OFFCURVE",
"366 -2 OFFCURVE",
"408 -2 CURVE SMOOTH",
"436 -2 LINE SMOOTH",
"478 -2 OFFCURVE",
"496 9 OFFCURVE",
"496 30 CURVE SMOOTH",
"496 366 LINE SMOOTH",
"496 383 OFFCURVE",
"493 401 OFFCURVE",
"488 418 CURVE",
"488 337 LINE",
"492 342 OFFCURVE",
"516 409 OFFCURVE",
"575 409 CURVE SMOOTH",
"619 409 OFFCURVE",
"634 386 OFFCURVE",
"634 347 CURVE SMOOTH",
"634 30 LINE SMOOTH",
"634 9 OFFCURVE",
"652 -2 OFFCURVE",
"694 -2 CURVE SMOOTH",
"722 -2 LINE SMOOTH",
"764 -2 OFFCURVE",
"782 9 OFFCURVE",
"782 30 CURVE SMOOTH",
"782 369 LINE SMOOTH",
"782 480 OFFCURVE",
"736 531 OFFCURVE",
"636 531 CURVE SMOOTH"
);
}
);
width = 848;
}
);
unicode = 006D;
},
{
color = 10;
glyphname = n;
lastChange = "2013-08-29 18:05:17 +0000";
layers = (
{
anchors = (
{
name = bottom;
position = "{279, 0}";
},
{
name = top;
position = "{279, 523}";
}
);
layerId = UUID0;
name = Regular;
paths = (
{
closed = 1;
nodes = (
"263 529 OFFCURVE",
"205 501 OFFCURVE",
"163 454 CURVE",
"157 480 OFFCURVE",
"152 520 OFFCURVE",
"128 520 CURVE SMOOTH",
"115 520 OFFCURVE",
"74 516 OFFCURVE",
"74 497 CURVE SMOOTH",
"74 492 OFFCURVE",
"86 453 OFFCURVE",
"86 371 CURVE SMOOTH",
"86 20 LINE SMOOTH",
"86 6 OFFCURVE",
"98 -2 OFFCURVE",
"126 -2 CURVE SMOOTH",
"130 -2 LINE SMOOTH",
"158 -2 OFFCURVE",
"170 6 OFFCURVE",
"170 20 CURVE SMOOTH",
"170 386 LINE",
"203 429 OFFCURVE",
"251 456 OFFCURVE",
"296 456 CURVE SMOOTH",
"361 456 OFFCURVE",
"398 420 OFFCURVE",
"398 359 CURVE SMOOTH",
"398 20 LINE SMOOTH",
"398 6 OFFCURVE",
"410 -2 OFFCURVE",
"438 -2 CURVE SMOOTH",
"442 -2 LINE SMOOTH",
"470 -2 OFFCURVE",
"482 6 OFFCURVE",
"482 20 CURVE SMOOTH",
"482 367 LINE SMOOTH",
"482 468 OFFCURVE",
"421 529 OFFCURVE",
"319 529 CURVE SMOOTH"
);
}
);
width = 557;
},
{
anchors = (
{
name = bottom;
position = "{279, 0}";
},
{
name = top;
position = "{279, 523}";
}
);
layerId = "2C16E7AF-C861-4509-900A-75D3055B0FF7";
name = Bold;
paths = (
{
closed = 1;
nodes = (
"286 531 OFFCURVE",
"231 493 OFFCURVE",
"202 455 CURVE",
"196 480 OFFCURVE",
"194 520 OFFCURVE",
"162 520 CURVE SMOOTH",
"137 520 OFFCURVE",
"50 512 OFFCURVE",
"50 488 CURVE SMOOTH",
"50 468 OFFCURVE",
"62 447 OFFCURVE",
"62 347 CURVE SMOOTH",
"62 30 LINE SMOOTH",
"62 9 OFFCURVE",
"80 -2 OFFCURVE",
"122 -2 CURVE SMOOTH",
"150 -2 LINE SMOOTH",
"192 -2 OFFCURVE",
"210 9 OFFCURVE",
"210 30 CURVE SMOOTH",
"210 351 LINE",
"222 374 OFFCURVE",
"249 409 OFFCURVE",
"290 409 CURVE SMOOTH",
"334 409 OFFCURVE",
"350 386 OFFCURVE",
"350 347 CURVE SMOOTH",
"350 30 LINE SMOOTH",
"350 9 OFFCURVE",
"368 -2 OFFCURVE",
"410 -2 CURVE SMOOTH",
"438 -2 LINE SMOOTH",
"480 -2 OFFCURVE",
"498 9 OFFCURVE",
"498 30 CURVE SMOOTH",
"498 369 LINE SMOOTH",
"498 480 OFFCURVE",
"451 531 OFFCURVE",
"351 531 CURVE SMOOTH"
);
}
);
width = 557;
}
);
unicode = 006E;
},
{
color = 10;
glyphname = eng;
lastChange = "2013-08-29 18:05:17 +0000";
layers = (
{
layerId = UUID0;
name = Regular;
paths = (
{
closed = 1;
nodes = (
"86 20 LINE SMOOTH",
"86 6 OFFCURVE",
"98 -2 OFFCURVE",
"126 -2 CURVE SMOOTH",
"130 -2 LINE SMOOTH",
"158 -2 OFFCURVE",
"170 6 OFFCURVE",
"170 20 CURVE SMOOTH",
"170 386 LINE",
"203 429 OFFCURVE",
"251 456 OFFCURVE",
"296 456 CURVE SMOOTH",
"361 456 OFFCURVE",
"398 420 OFFCURVE",
"398 359 CURVE SMOOTH",
"398 -66 LINE SMOOTH",
"398 -126 OFFCURVE",
"373 -140 OFFCURVE",
"344 -140 CURVE SMOOTH",
"315 -140 OFFCURVE",
"310 -135 OFFCURVE",
"301 -135 CURVE SMOOTH",
"287 -135 OFFCURVE",
"280 -174 OFFCURVE",
"280 -182 CURVE SMOOTH",
"280 -209 OFFCURVE",
"326 -212 OFFCURVE",
"353 -212 CURVE SMOOTH",
"403 -212 OFFCURVE",
"482 -190 OFFCURVE",
"482 -74 CURVE SMOOTH",
"482 367 LINE SMOOTH",
"482 468 OFFCURVE",
"421 529 OFFCURVE",
"319 529 CURVE SMOOTH",
"263 529 OFFCURVE",
"205 501 OFFCURVE",
"163 454 CURVE",
"157 480 OFFCURVE",
"152 520 OFFCURVE",
"128 520 CURVE SMOOTH",
"115 520 OFFCURVE",
"74 516 OFFCURVE",
"74 497 CURVE SMOOTH",
"74 492 OFFCURVE",
"86 453 OFFCURVE",
"86 371 CURVE SMOOTH"
);
}
);
width = 557;
},
{
layerId = "2C16E7AF-C861-4509-900A-75D3055B0FF7";
name = Bold;
paths = (
{
closed = 1;
nodes = (
"62 30 LINE SMOOTH",
"62 9 OFFCURVE",
"80 -2 OFFCURVE",
"122 -2 CURVE SMOOTH",
"150 -2 LINE SMOOTH",
"192 -2 OFFCURVE",
"210 9 OFFCURVE",
"210 30 CURVE SMOOTH",
"210 351 LINE",
"222 374 OFFCURVE",
"249 409 OFFCURVE",
"290 409 CURVE SMOOTH",
"334 409 OFFCURVE",
"350 386 OFFCURVE",
"350 347 CURVE SMOOTH",
"350 -52 LINE SMOOTH",
"350 -82 OFFCURVE",
"340 -95 OFFCURVE",
"314 -95 CURVE SMOOTH",
"303 -95 OFFCURVE",
"290 -91 OFFCURVE",
"284 -91 CURVE SMOOTH",
"263 -91 OFFCURVE",
"248 -137 OFFCURVE",
"248 -160 CURVE SMOOTH",
"248 -199 OFFCURVE",
"273 -212 OFFCURVE",
"352 -212 CURVE SMOOTH",
"435 -212 OFFCURVE",
"498 -159 OFFCURVE",
"498 -50 CURVE SMOOTH",
"498 369 LINE SMOOTH",
"498 480 OFFCURVE",
"451 531 OFFCURVE",
"351 531 CURVE SMOOTH",
"286 531 OFFCURVE",
"231 493 OFFCURVE",
"202 455 CURVE",
"196 480 OFFCURVE",
"194 520 OFFCURVE",
"162 520 CURVE SMOOTH",
"137 520 OFFCURVE",
"50 512 OFFCURVE",
"50 488 CURVE SMOOTH",
"50 468 OFFCURVE",
"62 447 OFFCURVE",
"62 347 CURVE SMOOTH"
);
}
);
width = 557;
}
);
unicode = 014B;
},
{
color = 10;
glyphname = o;
lastChange = "2013-08-29 18:05:17 +0000";
layers = (
{
anchors = (
{
name = bottom;
position = "{291, 0}";
},
{
name = horn;
position = "{376, 505}";
},
{
name = ogonek;
position = "{343, 0}";
},
{
name = top;
position = "{285, 523}";
}
);
background = {
paths = (
{
closed = 1;
nodes = (
"513 585 LINE SMOOTH",
"500 585 OFFCURVE",
"493 576 OFFCURVE",
"493 563 CURVE SMOOTH",
"493 512 OFFCURVE",
"503 460 OFFCURVE",
"443 460 CURVE",
"463 427 LINE",
"539 427 OFFCURVE",
"562 471 OFFCURVE",
"562 567 CURVE SMOOTH",
"562 578 OFFCURVE",
"552 585 OFFCURVE",
"542 585 CURVE SMOOTH"
);
}
);
};
layerId = UUID0;
name = Regular;
paths = (
{
closed = 1;
nodes = (
"138 529 OFFCURVE",
"55 432 OFFCURVE",
"55 259 CURVE SMOOTH",
"55 87 OFFCURVE",
"136 -6 OFFCURVE",
"287 -6 CURVE SMOOTH",
"436 -6 OFFCURVE",
"514 86 OFFCURVE",
"514 259 CURVE SMOOTH",
"514 433 OFFCURVE",
"434 529 OFFCURVE",
"287 529 CURVE SMOOTH"
);
},
{
closed = 1;
nodes = (
"382 457 OFFCURVE",
"427 394 OFFCURVE",
"427 261 CURVE SMOOTH",
"427 128 OFFCURVE",
"382 66 OFFCURVE",
"284 66 CURVE SMOOTH",
"186 66 OFFCURVE",
"143 128 OFFCURVE",
"143 261 CURVE SMOOTH",
"143 395 OFFCURVE",
"187 457 OFFCURVE",
"284 457 CURVE SMOOTH"
);
}
);
width = 569;
},
{
anchors = (
{
name = bottom;
position = "{291, 0}";
},
{
name = horn;
position = "{387, 505}";
},
{
name = ogonek;
position = "{353, 0}";
},
{
name = top;
position = "{285, 523}";
}
);
background = {
paths = (
{
closed = 1;
nodes = (
"507 585 LINE SMOOTH",
"489 585 OFFCURVE",
"482 572 OFFCURVE",
"482 558 CURVE SMOOTH",
"482 512 OFFCURVE",
"492 460 OFFCURVE",
"443 460 CURVE",
"463 427 LINE",
"546 427 OFFCURVE",
"571 468 OFFCURVE",
"571 562 CURVE SMOOTH",
"571 574 OFFCURVE",
"560 585 OFFCURVE",
"546 585 CURVE SMOOTH"
);
}
);
};
layerId = "2C16E7AF-C861-4509-900A-75D3055B0FF7";
name = Bold;
paths = (
{
closed = 1;
nodes = (
"126 531 OFFCURVE",
"42 436 OFFCURVE",
"42 262 CURVE SMOOTH",
"42 88 OFFCURVE",
"126 -8 OFFCURVE",
"285 -8 CURVE SMOOTH",
"444 -8 OFFCURVE",
"527 88 OFFCURVE",
"527 262 CURVE SMOOTH",
"527 436 OFFCURVE",
"444 531 OFFCURVE",
"285 531 CURVE SMOOTH"
);
},
{
closed = 1;
nodes = (
"349 414 OFFCURVE",
"377 362 OFFCURVE",
"377 262 CURVE SMOOTH",
"377 162 OFFCURVE",
"349 109 OFFCURVE",
"285 109 CURVE SMOOTH",
"221 109 OFFCURVE",
"192 162 OFFCURVE",
"192 262 CURVE SMOOTH",
"192 362 OFFCURVE",
"221 414 OFFCURVE",
"285 414 CURVE SMOOTH"
);
}
);
width = 569;
}
);
unicode = 006F;
},
{
color = 10;
glyphname = oslash;
lastChange = "2013-08-29 18:05:17 +0000";
layers = (
{
anchors = (
{
name = top;
position = "{285, 523}";
}
);
layerId = UUID0;
name = Regular;
paths = (
{
closed = 1;
nodes = (
"183 528 OFFCURVE",
"55 484 OFFCURVE",
"55 259 CURVE SMOOTH",
"55 173 OFFCURVE",
"73 114 OFFCURVE",
"102 74 CURVE",
"71 37 LINE SMOOTH",
"67 32 OFFCURVE",
"64 28 OFFCURVE",
"64 23 CURVE SMOOTH",
"64 15 OFFCURVE",
"78 2 OFFCURVE",
"87 2 CURVE SMOOTH",
"92 2 OFFCURVE",
"96 5 OFFCURVE",
"101 10 CURVE SMOOTH",
"130 44 LINE",
"175 5 OFFCURVE",
"234 -5 OFFCURVE",
"287 -5 CURVE SMOOTH",
"391 -5 OFFCURVE",
"514 34 OFFCURVE",
"514 259 CURVE SMOOTH",
"514 342 OFFCURVE",
"497 400 OFFCURVE",
"470 441 CURVE",
"509 486 LINE SMOOTH",
"513 491 OFFCURVE",
"515 495 OFFCURVE",
"515 500 CURVE SMOOTH",
"515 508 OFFCURVE",
"501 521 OFFCURVE",
"493 521 CURVE SMOOTH",
"488 521 OFFCURVE",
"484 518 OFFCURVE",
"479 513 CURVE SMOOTH",
"445 473 LINE",
"400 516 OFFCURVE",
"341 528 OFFCURVE",
"287 528 CURVE SMOOTH"
);
},
{
closed = 1;
nodes = (
"422 343 OFFCURVE",
"427 307 OFFCURVE",
"427 261 CURVE SMOOTH",
"427 116 OFFCURVE",
"373 67 OFFCURVE",
"284 67 CURVE SMOOTH",
"241 67 OFFCURVE",
"207 78 OFFCURVE",
"183 105 CURVE",
"411 372 LINE"
);
},
{
closed = 1;
nodes = (
"329 456 OFFCURVE",
"366 443 OFFCURVE",
"391 410 CURVE",
"160 142 LINE",
"148 171 OFFCURVE",
"142 210 OFFCURVE",
"142 261 CURVE SMOOTH",
"142 406 OFFCURVE",
"195 456 OFFCURVE",
"284 456 CURVE SMOOTH"
);
}
);
width = 569;
},
{
anchors = (
{
name = top;
position = "{285, 523}";
}
);
layerId = "2C16E7AF-C861-4509-900A-75D3055B0FF7";
name = Bold;
paths = (
{
closed = 1;
nodes = (
"126 531 OFFCURVE",
"42 436 OFFCURVE",
"42 262 CURVE SMOOTH",
"42 192 OFFCURVE",
"55 135 OFFCURVE",
"82 91 CURVE",
"49 53 LINE SMOOTH",
"42 45 OFFCURVE",
"39 39 OFFCURVE",
"39 32 CURVE SMOOTH",
"39 13 OFFCURVE",
"71 -12 OFFCURVE",
"87 -12 CURVE SMOOTH",
"94 -12 OFFCURVE",
"101 -8 OFFCURVE",
"108 1 CURVE SMOOTH",
"136 33 LINE",
"174 6 OFFCURVE",
"224 -8 OFFCURVE",
"285 -8 CURVE SMOOTH",
"444 -8 OFFCURVE",
"527 88 OFFCURVE",
"527 262 CURVE SMOOTH",
"527 334 OFFCURVE",
"512 393 OFFCURVE",
"484 437 CURVE",
"520 479 LINE SMOOTH",
"526 486 OFFCURVE",
"530 493 OFFCURVE",
"530 500 CURVE SMOOTH",
"530 517 OFFCURVE",
"498 544 OFFCURVE",
"482 544 CURVE SMOOTH",
"475 544 OFFCURVE",
"467 539 OFFCURVE",
"460 531 CURVE SMOOTH",
"428 494 LINE",
"391 518 OFFCURVE",
"343 531 OFFCURVE",
"285 531 CURVE SMOOTH"
);
},
{
closed = 1;
nodes = (
"376 295 OFFCURVE",
"377 279 OFFCURVE",
"377 262 CURVE SMOOTH",
"377 162 OFFCURVE",
"349 109 OFFCURVE",
"285 109 CURVE SMOOTH",
"259 109 OFFCURVE",
"239 118 OFFCURVE",
"224 135 CURVE",
"374 310 LINE"
);
},
{
closed = 1;
nodes = (
"308 414 OFFCURVE",
"327 407 OFFCURVE",
"341 393 CURVE",
"194 221 LINE",
"193 234 OFFCURVE",
"192 247 OFFCURVE",
"192 262 CURVE SMOOTH",
"192 362 OFFCURVE",
"221 414 OFFCURVE",
"285 414 CURVE SMOOTH"
);
}
);
width = 569;
}
);
unicode = 00F8;
},
{
color = 10;
glyphname = oe;
lastChange = "2013-08-29 18:05:17 +0000";
layers = (
{
anchors = (
{
name = top;
position = "{436, 523}";
}
);
components = (
{
name = e;
transform = "{1, 0, 0, 1, 322, 0}";
}
);
layerId = UUID0;
name = Regular;
paths = (
{
closed = 1;
nodes = (
"446 470 LINE",
"408 509 OFFCURVE",
"354 529 OFFCURVE",
"287 529 CURVE SMOOTH",
"138 529 OFFCURVE",
"55 432 OFFCURVE",
"55 259 CURVE SMOOTH",
"55 87 OFFCURVE",
"136 -6 OFFCURVE",
"287 -6 CURVE SMOOTH",
"355 -6 OFFCURVE",
"409 13 OFFCURVE",
"447 50 CURVE"
);
},
{
closed = 1;
nodes = (
"392 457 OFFCURVE",
"440 394 OFFCURVE",
"440 261 CURVE SMOOTH",
"440 128 OFFCURVE",
"392 66 OFFCURVE",
"284 66 CURVE SMOOTH",
"186 66 OFFCURVE",
"143 128 OFFCURVE",
"143 261 CURVE SMOOTH",
"143 395 OFFCURVE",
"187 457 OFFCURVE",
"284 457 CURVE SMOOTH"
);
}
);
width = 871;
},
{
anchors = (
{
name = top;
position = "{436, 523}";
}
);
components = (
{
name = e;
transform = "{1, 0, 0, 1, 335, 0}";
}
);
layerId = "2C16E7AF-C861-4509-900A-75D3055B0FF7";
name = Bold;
paths = (
{
closed = 1;
nodes = (
"451 470 LINE",
"411 507 OFFCURVE",
"355 531 OFFCURVE",
"284 531 CURVE SMOOTH",
"125 531 OFFCURVE",
"41 436 OFFCURVE",
"41 262 CURVE SMOOTH",
"41 88 OFFCURVE",
"125 -8 OFFCURVE",
"284 -8 CURVE SMOOTH",
"357 -8 OFFCURVE",
"413 16 OFFCURVE",
"454 54 CURVE"
);
},
{
closed = 1;
nodes = (
"348 414 OFFCURVE",
"376 362 OFFCURVE",
"376 262 CURVE SMOOTH",
"376 162 OFFCURVE",
"348 109 OFFCURVE",
"284 109 CURVE SMOOTH",
"220 109 OFFCURVE",
"191 162 OFFCURVE",
"191 262 CURVE SMOOTH",
"191 362 OFFCURVE",
"220 414 OFFCURVE",
"284 414 CURVE SMOOTH"
);
}
);
width = 871;
}
);
unicode = 0153;
},
{
color = 10;
glyphname = p;
lastChange = "2013-08-29 18:05:17 +0000";
layers = (
{
layerId = UUID0;
name = Regular;
paths = (
{
closed = 1;
nodes = (
"265 529 OFFCURVE",
"212 505 OFFCURVE",
"163 454 CURVE",
"157 480 OFFCURVE",
"152 520 OFFCURVE",
"128 520 CURVE SMOOTH",
"115 520 OFFCURVE",
"74 516 OFFCURVE",
"74 497 CURVE SMOOTH",
"74 492 OFFCURVE",
"86 453 OFFCURVE",
"86 371 CURVE SMOOTH",
"86 -186 LINE SMOOTH",
"86 -200 OFFCURVE",
"98 -208 OFFCURVE",
"126 -208 CURVE SMOOTH",
"130 -208 LINE SMOOTH",
"158 -208 OFFCURVE",
"170 -200 OFFCURVE",
"170 -186 CURVE SMOOTH",
"170 45 LINE",
"209 15 OFFCURVE",
"251 -6 OFFCURVE",
"313 -6 CURVE SMOOTH",
"432 -6 OFFCURVE",
"516 88 OFFCURVE",
"516 261 CURVE SMOOTH",
"516 415 OFFCURVE",
"446 529 OFFCURVE",
"322 529 CURVE SMOOTH"
);
},
{
closed = 1;
nodes = (
"384 456 OFFCURVE",
"428 383 OFFCURVE",
"428 254 CURVE SMOOTH",
"428 135 OFFCURVE",
"383 70 OFFCURVE",
"294 68 CURVE SMOOTH",
"248 68 OFFCURVE",
"206 83 OFFCURVE",
"170 113 CURVE",
"170 387 LINE",
"211 432 OFFCURVE",
"261 456 OFFCURVE",
"305 456 CURVE SMOOTH"
);
}
);
width = 573;
},
{
layerId = "2C16E7AF-C861-4509-900A-75D3055B0FF7";
name = Bold;
paths = (
{
closed = 1;
nodes = (
"282 531 OFFCURVE",
"233 499 OFFCURVE",
"210 456 CURVE",
"204 480 OFFCURVE",
"202 520 OFFCURVE",
"170 520 CURVE SMOOTH",
"145 520 OFFCURVE",
"58 512 OFFCURVE",
"58 488 CURVE SMOOTH",
"58 468 OFFCURVE",
"70 447 OFFCURVE",
"70 347 CURVE SMOOTH",
"70 -174 LINE SMOOTH",
"70 -195 OFFCURVE",
"88 -206 OFFCURVE",
"130 -206 CURVE SMOOTH",
"158 -206 LINE SMOOTH",
"200 -206 OFFCURVE",
"218 -195 OFFCURVE",
"218 -174 CURVE SMOOTH",
"218 23 LINE",
"239 8 OFFCURVE",
"273 -8 OFFCURVE",
"320 -8 CURVE SMOOTH",
"455 -8 OFFCURVE",
"531 98 OFFCURVE",
"531 261 CURVE SMOOTH",
"531 435 OFFCURVE",
"452 531 OFFCURVE",
"344 531 CURVE SMOOTH"
);
},
{
closed = 1;
nodes = (
"355 410 OFFCURVE",
"381 358 OFFCURVE",
"381 261 CURVE SMOOTH",
"381 161 OFFCURVE",
"351 109 OFFCURVE",
"288 109 CURVE SMOOTH",
"257 109 OFFCURVE",
"234 119 OFFCURVE",
"218 128 CURVE",
"218 351 LINE",
"236 382 OFFCURVE",
"262 410 OFFCURVE",
"300 410 CURVE SMOOTH"
);
}
);
width = 573;
}
);
unicode = 0070;
},
{
color = 10;
glyphname = thorn;
lastChange = "2013-08-29 18:05:17 +0000";
layers = (
{
layerId = UUID0;
name = Regular;
paths = (
{
closed = 1;
nodes = (
"125 752 LINE SMOOTH",
"97 752 OFFCURVE",
"85 744 OFFCURVE",
"85 730 CURVE SMOOTH",
"85 -186 LINE SMOOTH",
"85 -200 OFFCURVE",
"97 -208 OFFCURVE",
"125 -208 CURVE SMOOTH",
"129 -208 LINE SMOOTH",
"157 -208 OFFCURVE",
"169 -200 OFFCURVE",
"169 -186 CURVE SMOOTH",
"169 45 LINE",
"208 15 OFFCURVE",
"250 -6 OFFCURVE",
"312 -6 CURVE SMOOTH",
"431 -6 OFFCURVE",
"515 88 OFFCURVE",
"515 260 CURVE SMOOTH",
"515 417 OFFCURVE",
"441 529 OFFCURVE",
"321 529 CURVE SMOOTH",
"267 529 OFFCURVE",
"216 507 OFFCURVE",
"169 461 CURVE",
"169 730 LINE SMOOTH",
"169 744 OFFCURVE",
"157 752 OFFCURVE",
"129 752 CURVE SMOOTH"
);
},
{
closed = 1;
nodes = (
"383 456 OFFCURVE",
"427 383 OFFCURVE",
"427 254 CURVE SMOOTH",
"427 135 OFFCURVE",
"382 70 OFFCURVE",
"293 68 CURVE SMOOTH",
"247 68 OFFCURVE",
"205 83 OFFCURVE",
"169 113 CURVE",
"169 387 LINE",
"210 432 OFFCURVE",
"260 456 OFFCURVE",
"304 456 CURVE SMOOTH"
);
}
);
width = 570;
},
{
layerId = "2C16E7AF-C861-4509-900A-75D3055B0FF7";
name = Bold;
paths = (
{
closed = 1;
nodes = (
"125 754 LINE SMOOTH",
"83 754 OFFCURVE",
"65 743 OFFCURVE",
"65 722 CURVE SMOOTH",
"65 -174 LINE SMOOTH",
"65 -195 OFFCURVE",
"83 -206 OFFCURVE",
"125 -206 CURVE SMOOTH",
"153 -206 LINE SMOOTH",
"195 -206 OFFCURVE",
"213 -195 OFFCURVE",
"213 -174 CURVE SMOOTH",
"213 23 LINE",
"234 8 OFFCURVE",
"268 -8 OFFCURVE",
"315 -8 CURVE SMOOTH",
"450 -8 OFFCURVE",
"526 98 OFFCURVE",
"526 261 CURVE SMOOTH",
"526 435 OFFCURVE",
"447 531 OFFCURVE",
"339 531 CURVE SMOOTH",
"284 531 OFFCURVE",
"238 506 OFFCURVE",
"213 470 CURVE",
"213 722 LINE SMOOTH",
"213 743 OFFCURVE",
"195 754 OFFCURVE",
"153 754 CURVE SMOOTH"
);
},
{
closed = 1;
nodes = (
"350 410 OFFCURVE",
"376 358 OFFCURVE",
"376 261 CURVE SMOOTH",
"376 161 OFFCURVE",
"346 109 OFFCURVE",
"283 109 CURVE SMOOTH",
"252 109 OFFCURVE",
"229 119 OFFCURVE",
"213 128 CURVE",
"213 351 LINE",
"231 382 OFFCURVE",
"257 410 OFFCURVE",
"295 410 CURVE SMOOTH"
);
}
);
width = 570;
}
);
unicode = 00FE;
},
{
color = 10;
glyphname = q;
lastChange = "2013-08-29 18:05:17 +0000";
layers = (
{
layerId = UUID0;
name = Regular;
paths = (
{
closed = 1;
nodes = (
"126 529 OFFCURVE",
"52 417 OFFCURVE",
"52 260 CURVE SMOOTH",
"52 88 OFFCURVE",
"136 -6 OFFCURVE",
"255 -6 CURVE SMOOTH",
"317 -6 OFFCURVE",
"359 15 OFFCURVE",
"398 45 CURVE",
"398 -186 LINE SMOOTH",
"398 -200 OFFCURVE",
"410 -208 OFFCURVE",
"438 -208 CURVE SMOOTH",
"442 -208 LINE SMOOTH",
"470 -208 OFFCURVE",
"482 -200 OFFCURVE",
"482 -186 CURVE SMOOTH",
"482 503 LINE SMOOTH",
"482 517 OFFCURVE",
"473 525 OFFCURVE",
"452 525 CURVE SMOOTH",
"448 525 LINE SMOOTH",
"434 525 OFFCURVE",
"425 522 OFFCURVE",
"421 513 CURVE SMOOTH",
"413 493 OFFCURVE",
"409 474 OFFCURVE",
"405 454 CURVE",
"356 505 OFFCURVE",
"303 529 OFFCURVE",
"246 529 CURVE SMOOTH"
);
},
{
closed = 1;
nodes = (
"307 456 OFFCURVE",
"357 432 OFFCURVE",
"398 387 CURVE",
"398 113 LINE",
"362 83 OFFCURVE",
"320 68 OFFCURVE",
"274 68 CURVE SMOOTH",
"185 70 OFFCURVE",
"140 135 OFFCURVE",
"140 254 CURVE SMOOTH",
"140 383 OFFCURVE",
"184 456 OFFCURVE",
"263 456 CURVE SMOOTH"
);
}
);
width = 566;
},
{
layerId = "2C16E7AF-C861-4509-900A-75D3055B0FF7";
name = Bold;
paths = (
{
closed = 1;
nodes = (
"123 531 OFFCURVE",
"42 435 OFFCURVE",
"42 261 CURVE SMOOTH",
"42 98 OFFCURVE",
"120 -8 OFFCURVE",
"258 -8 CURVE SMOOTH",
"305 -8 OFFCURVE",
"339 8 OFFCURVE",
"360 23 CURVE",
"360 -174 LINE SMOOTH",
"360 -195 OFFCURVE",
"378 -206 OFFCURVE",
"420 -206 CURVE SMOOTH",
"448 -206 LINE SMOOTH",
"490 -206 OFFCURVE",
"508 -195 OFFCURVE",
"508 -174 CURVE SMOOTH",
"508 493 LINE SMOOTH",
"508 514 OFFCURVE",
"490 525 OFFCURVE",
"448 525 CURVE SMOOTH",
"436 525 LINE SMOOTH",
"404 525 OFFCURVE",
"383 521 OFFCURVE",
"378 499 CURVE SMOOTH",
"375 485 OFFCURVE",
"371 470 OFFCURVE",
"368 456 CURVE",
"345 499 OFFCURVE",
"296 531 OFFCURVE",
"234 531 CURVE SMOOTH"
);
},
{
closed = 1;
nodes = (
"316 410 OFFCURVE",
"342 382 OFFCURVE",
"360 351 CURVE",
"360 128 LINE",
"344 119 OFFCURVE",
"321 109 OFFCURVE",
"290 109 CURVE SMOOTH",
"224 109 OFFCURVE",
"192 161 OFFCURVE",
"192 261 CURVE SMOOTH",
"192 358 OFFCURVE",
"220 410 OFFCURVE",
"278 410 CURVE SMOOTH"
);
}
);
width = 566;
}
);
unicode = 0071;
},
{
color = 10;
glyphname = r;
lastChange = "2013-09-06 17:35:15 +0000";
layers = (
{
anchors = (
{
name = bottom;
position = "{134, -2}";
},
{
name = top;
position = "{132, 520}";
}
);
layerId = UUID0;
name = Regular;
paths = (
{
closed = 1;
nodes = (
"241 529 OFFCURVE",
"201 502 OFFCURVE",
"167 454 CURVE",
"161 480 OFFCURVE",
"156 520 OFFCURVE",
"132 520 CURVE SMOOTH",
"119 520 OFFCURVE",
"78 516 OFFCURVE",
"78 497 CURVE SMOOTH",
"78 492 OFFCURVE",
"90 453 OFFCURVE",
"90 371 CURVE SMOOTH",
"90 20 LINE SMOOTH",
"90 6 OFFCURVE",
"102 -2 OFFCURVE",
"130 -2 CURVE SMOOTH",
"134 -2 LINE SMOOTH",
"162 -2 OFFCURVE",
"174 6 OFFCURVE",
"174 20 CURVE SMOOTH",
"174 386 LINE",
"174 386 OFFCURVE",
"214 447 OFFCURVE",
"266 447 CURVE SMOOTH",
"300 447 OFFCURVE",
"308 436 OFFCURVE",
"321 436 CURVE SMOOTH",
"333 436 OFFCURVE",
"341 471 OFFCURVE",
"341 490 CURVE SMOOTH",
"341 512 OFFCURVE",
"322 529 OFFCURVE",
"283 529 CURVE SMOOTH"
);
}
);
width = 366;
},
{
anchors = (
{
name = bottom;
position = "{150, -2}";
},
{
name = top;
position = "{133, 523}";
}
);
layerId = "2C16E7AF-C861-4509-900A-75D3055B0FF7";
name = Bold;
paths = (
{
closed = 1;
nodes = (
"253 531 OFFCURVE",
"223 493 OFFCURVE",
"202 455 CURVE",
"196 480 OFFCURVE",
"194 520 OFFCURVE",
"162 520 CURVE SMOOTH",
"137 520 OFFCURVE",
"50 512 OFFCURVE",
"50 488 CURVE SMOOTH",
"50 468 OFFCURVE",
"62 447 OFFCURVE",
"62 347 CURVE SMOOTH",
"62 30 LINE SMOOTH",
"62 9 OFFCURVE",
"80 -2 OFFCURVE",
"122 -2 CURVE SMOOTH",
"150 -2 LINE SMOOTH",
"192 -2 OFFCURVE",
"210 9 OFFCURVE",
"210 30 CURVE SMOOTH",
"210 351 LINE",
"222 371 OFFCURVE",
"249 401 OFFCURVE",
"290 401 CURVE SMOOTH",
"310 401 OFFCURVE",
"323 393 OFFCURVE",
"337 393 CURVE SMOOTH",
"357 393 OFFCURVE",
"368 458 OFFCURVE",
"368 477 CURVE SMOOTH",
"368 497 OFFCURVE",
"360 531 OFFCURVE",
"311 531 CURVE SMOOTH"
);
}
);
width = 366;
}
);
unicode = 0072;
},
{
color = 10;
glyphname = s;
lastChange = "2013-09-09 15:38:43 +0000";
layers = (
{
anchors = (
{
name = bottom;
position = "{207, 0}";
},
{
name = top;
position = "{207, 523}";
}
);
background = {
paths = (
{
closed = 1;
nodes = (
"116 530 OFFCURVE",
"47 469 OFFCURVE",
"47 385 CURVE SMOOTH",
"47 310 OFFCURVE",
"78 267 OFFCURVE",
"186 235 CURVE SMOOTH",
"261 213 OFFCURVE",
"286 190 OFFCURVE",
"286 145 CURVE SMOOTH",
"286 90 OFFCURVE",
"252 64 OFFCURVE",
"188 64 CURVE SMOOTH",
"117 64 OFFCURVE",
"77 104 OFFCURVE",
"70 104 CURVE SMOOTH",
"56 104 OFFCURVE",
"35 65 OFFCURVE",
"35 54 CURVE SMOOTH",
"35 31 OFFCURVE",
"103 -9 OFFCURVE",
"194 -9 CURVE SMOOTH",
"293 -9 OFFCURVE",
"371 57 OFFCURVE",
"371 147 CURVE SMOOTH",
"371 238 OFFCURVE",
"334 271 OFFCURVE",
"211 309 CURVE SMOOTH",
"155 326 OFFCURVE",
"133 351 OFFCURVE",
"133 396 CURVE SMOOTH",
"133 435 OFFCURVE",
"172 459 OFFCURVE",
"222 459 CURVE SMOOTH",
"276 459 OFFCURVE",
"308 433 OFFCURVE",
"313 433 CURVE SMOOTH",
"326 433 OFFCURVE",
"345 471 OFFCURVE",
"345 487 CURVE SMOOTH",
"345 509 OFFCURVE",
"281 530 OFFCURVE",
"213 530 CURVE SMOOTH"
);
}
);
};
layerId = UUID0;
name = Regular;
paths = (
{
closed = 1;
nodes = (
"116 530 OFFCURVE",
"47 469 OFFCURVE",
"47 385 CURVE SMOOTH",
"47 310 OFFCURVE",
"78 267 OFFCURVE",
"186 235 CURVE SMOOTH",
"261 213 OFFCURVE",
"286 190 OFFCURVE",
"286 145 CURVE SMOOTH",
"286 90 OFFCURVE",
"252 64 OFFCURVE",
"188 64 CURVE SMOOTH",
"117 64 OFFCURVE",
"77 104 OFFCURVE",
"70 104 CURVE SMOOTH",
"56 104 OFFCURVE",
"35 65 OFFCURVE",
"35 54 CURVE SMOOTH",
"35 31 OFFCURVE",
"103 -9 OFFCURVE",
"194 -9 CURVE SMOOTH",
"293 -9 OFFCURVE",
"371 57 OFFCURVE",
"371 147 CURVE SMOOTH",
"371 238 OFFCURVE",
"334 271 OFFCURVE",
"211 309 CURVE SMOOTH",
"155 326 OFFCURVE",
"133 351 OFFCURVE",
"133 396 CURVE SMOOTH",
"133 435 OFFCURVE",
"172 459 OFFCURVE",
"222 459 CURVE SMOOTH",
"276 459 OFFCURVE",
"308 433 OFFCURVE",
"313 433 CURVE SMOOTH",
"326 433 OFFCURVE",
"345 471 OFFCURVE",
"345 487 CURVE SMOOTH",
"345 509 OFFCURVE",
"281 530 OFFCURVE",
"213 530 CURVE SMOOTH"
);
}
);
width = 413;
},
{
anchors = (
{
name = bottom;
position = "{207, 0}";
},
{
name = top;
position = "{207, 523}";
}
);
layerId = "2C16E7AF-C861-4509-900A-75D3055B0FF7";
name = Bold;
paths = (
{
closed = 1;
nodes = (
"114 531 OFFCURVE",
"43 471 OFFCURVE",
"43 367 CURVE SMOOTH",
"43 267 OFFCURVE",
"108 236 OFFCURVE",
"157 217 CURVE SMOOTH",
"202 199 OFFCURVE",
"243 189 OFFCURVE",
"243 151 CURVE SMOOTH",
"243 124 OFFCURVE",
"223 109 OFFCURVE",
"185 109 CURVE SMOOTH",
"132 109 OFFCURVE",
"99 137 OFFCURVE",
"84 137 CURVE SMOOTH",
"64 137 OFFCURVE",
"31 86 OFFCURVE",
"31 60 CURVE SMOOTH",
"31 17 OFFCURVE",
"122 -8 OFFCURVE",
"197 -8 CURVE SMOOTH",
"322 -8 OFFCURVE",
"393 61 OFFCURVE",
"393 163 CURVE SMOOTH",
"393 242 OFFCURVE",
"351 279 OFFCURVE",
"306 301 CURVE SMOOTH",
"253 326 OFFCURVE",
"193 336 OFFCURVE",
"193 380 CURVE SMOOTH",
"193 405 OFFCURVE",
"213 415 OFFCURVE",
"246 415 CURVE SMOOTH",
"293 415 OFFCURVE",
"321 394 OFFCURVE",
"332 394 CURVE SMOOTH",
"351 394 OFFCURVE",
"375 451 OFFCURVE",
"375 473 CURVE SMOOTH",
"375 515 OFFCURVE",
"283 531 OFFCURVE",
"225 531 CURVE SMOOTH"
);
}
);
width = 413;
}
);
unicode = 0073;
},
{
color = 10;
glyphname = germandbls;
lastChange = "2013-08-29 18:05:17 +0000";
layers = (
{
layerId = UUID0;
name = Regular;
paths = (
{
closed = 1;
nodes = (
"168 706 OFFCURVE",
"90 630 OFFCURVE",
"90 521 CURVE SMOOTH",
"90 20 LINE SMOOTH",
"90 6 OFFCURVE",
"102 -2 OFFCURVE",
"130 -2 CURVE SMOOTH",
"134 -2 LINE SMOOTH",
"162 -2 OFFCURVE",
"174 6 OFFCURVE",
"174 20 CURVE SMOOTH",
"174 521 LINE SMOOTH",
"174 591 OFFCURVE",
"217 634 OFFCURVE",
"285 634 CURVE SMOOTH",
"338 634 OFFCURVE",
"396 614 OFFCURVE",
"396 528 CURVE SMOOTH",
"396 463 OFFCURVE",
"338 412 OFFCURVE",
"277 412 CURVE SMOOTH",
"267 412 LINE SMOOTH",
"253 412 OFFCURVE",
"247 403 OFFCURVE",
"247 382 CURVE SMOOTH",
"247 370 LINE SMOOTH",
"247 349 OFFCURVE",
"253 340 OFFCURVE",
"267 340 CURVE SMOOTH",
"300 340 LINE SMOOTH",
"370 340 OFFCURVE",
"426 290 OFFCURVE",
"426 206 CURVE SMOOTH",
"426 121 OFFCURVE",
"370 72 OFFCURVE",
"300 72 CURVE SMOOTH",
"267 72 LINE SMOOTH",
"253 72 OFFCURVE",
"247 63 OFFCURVE",
"247 42 CURVE SMOOTH",
"247 30 LINE SMOOTH",
"247 9 OFFCURVE",
"253 0 OFFCURVE",
"267 0 CURVE SMOOTH",
"299 0 LINE SMOOTH",
"418 0 OFFCURVE",
"514 72 OFFCURVE",
"514 206 CURVE SMOOTH",
"514 292 OFFCURVE",
"468 364 OFFCURVE",
"383 384 CURVE",
"383 387 LINE",
"444 413 OFFCURVE",
"485 478 OFFCURVE",
"485 536 CURVE SMOOTH",
"485 663 OFFCURVE",
"396 706 OFFCURVE",
"287 706 CURVE SMOOTH"
);
}
);
width = 554;
},
{
layerId = "2C16E7AF-C861-4509-900A-75D3055B0FF7";
name = Bold;
paths = (
{
closed = 1;
nodes = (
"154 708 OFFCURVE",
"58 623 OFFCURVE",
"58 490 CURVE SMOOTH",
"58 30 LINE SMOOTH",
"58 9 OFFCURVE",
"76 -2 OFFCURVE",
"118 -2 CURVE SMOOTH",
"146 -2 LINE SMOOTH",
"188 -2 OFFCURVE",
"206 9 OFFCURVE",
"206 30 CURVE SMOOTH",
"206 502 LINE SMOOTH",
"206 549 OFFCURVE",
"236 583 OFFCURVE",
"285 583 CURVE SMOOTH",
"338 583 OFFCURVE",
"358 541 OFFCURVE",
"358 511 CURVE SMOOTH",
"358 465 OFFCURVE",
"326 428 OFFCURVE",
"276 428 CURVE",
"273 428 LINE",
"255 428 OFFCURVE",
"246 411 OFFCURVE",
"246 378 CURVE SMOOTH",
"246 361 LINE SMOOTH",
"246 326 OFFCURVE",
"255 311 OFFCURVE",
"276 311 CURVE",
"278 311 LINE",
"344 311 OFFCURVE",
"383 270 OFFCURVE",
"383 210 CURVE SMOOTH",
"383 154 OFFCURVE",
"346 117 OFFCURVE",
"290 117 CURVE SMOOTH",
"276 117 LINE SMOOTH",
"255 117 OFFCURVE",
"246 102 OFFCURVE",
"246 67 CURVE SMOOTH",
"246 50 LINE SMOOTH",
"246 15 OFFCURVE",
"255 0 OFFCURVE",
"276 0 CURVE SMOOTH",
"299 0 LINE SMOOTH",
"444 0 OFFCURVE",
"533 90 OFFCURVE",
"533 210 CURVE SMOOTH",
"533 296 OFFCURVE",
"498 351 OFFCURVE",
"415 383 CURVE",
"415 387 LINE",
"476 412 OFFCURVE",
"508 464 OFFCURVE",
"508 530 CURVE SMOOTH",
"508 641 OFFCURVE",
"413 708 OFFCURVE",
"287 708 CURVE SMOOTH"
);
}
);
width = 554;
}
);
unicode = 00DF;
},
{
color = 10;
glyphname = longs;
lastChange = "2013-08-29 18:05:17 +0000";
layers = (
{
layerId = "2C16E7AF-C861-4509-900A-75D3055B0FF7";
name = Bold;
paths = (
{
closed = 1;
nodes = (
"131 760 OFFCURVE",
"79 709 OFFCURVE",
"79 598 CURVE SMOOTH",
"79 523 LINE",
"61 523 LINE SMOOTH",
"40 523 OFFCURVE",
"31 508 OFFCURVE",
"31 473 CURVE SMOOTH",
"31 456 LINE SMOOTH",
"31 421 OFFCURVE",
"40 406 OFFCURVE",
"61 406 CURVE SMOOTH",
"79 406 LINE",
"79 30 LINE SMOOTH",
"79 9 OFFCURVE",
"97 -2 OFFCURVE",
"139 -2 CURVE SMOOTH",
"167 -2 LINE SMOOTH",
"209 -2 OFFCURVE",
"227 9 OFFCURVE",
"227 30 CURVE",
"227 600 LINE",
"227 630 OFFCURVE",
"237 643 OFFCURVE",
"263 643 CURVE SMOOTH",
"273 643 OFFCURVE",
"287 639 OFFCURVE",
"294 639 CURVE SMOOTH",
"314 639 OFFCURVE",
"325 703 OFFCURVE",
"325 711 CURVE SMOOTH",
"325 757 OFFCURVE",
"257 760 OFFCURVE",
"225 760 CURVE SMOOTH"
);
}
);
width = 325;
},
{
layerId = UUID0;
name = Regular;
paths = (
{
closed = 1;
nodes = (
"187 756 OFFCURVE",
"108 737 OFFCURVE",
"108 618 CURVE SMOOTH",
"108 523 LINE",
"68 523 LINE SMOOTH",
"54 523 OFFCURVE",
"48 514 OFFCURVE",
"48 493 CURVE SMOOTH",
"48 481 LINE SMOOTH",
"48 460 OFFCURVE",
"54 451 OFFCURVE",
"68 451 CURVE SMOOTH",
"108 451 LINE",
"108 20 LINE SMOOTH",
"108 6 OFFCURVE",
"120 -2 OFFCURVE",
"148 -2 CURVE SMOOTH",
"152 -2 LINE SMOOTH",
"180 -2 OFFCURVE",
"192 6 OFFCURVE",
"192 20 CURVE",
"192 610 LINE",
"192 676 OFFCURVE",
"217 684 OFFCURVE",
"246 684 CURVE SMOOTH",
"275 684 OFFCURVE",
"280 679 OFFCURVE",
"289 679 CURVE SMOOTH",
"303 679 OFFCURVE",
"310 718 OFFCURVE",
"310 726 CURVE SMOOTH",
"310 753 OFFCURVE",
"264 756 OFFCURVE",
"237 756 CURVE SMOOTH"
);
}
);
width = 325;
}
);
unicode = 017F;
},
{
color = 10;
glyphname = t;
lastChange = "2013-08-29 18:05:17 +0000";
layers = (
{
anchors = (
{
name = bottom;
position = "{216, 0}";
},
{
name = caron;
position = "{186, 752}";
},
{
name = center;
position = "{171, 292}";
}
);
layerId = UUID0;
name = Regular;
paths = (
{
closed = 1;
nodes = (
"151 650 LINE SMOOTH",
"130 650 OFFCURVE",
"120 642 OFFCURVE",
"119 628 CURVE SMOOTH",
"107 523 LINE",
"57 523 LINE SMOOTH",
"43 523 OFFCURVE",
"37 514 OFFCURVE",
"37 493 CURVE SMOOTH",
"37 481 LINE SMOOTH",
"37 460 OFFCURVE",
"43 451 OFFCURVE",
"57 451 CURVE SMOOTH",
"107 451 LINE",
"107 132 LINE SMOOTH",
"107 16 OFFCURVE",
"186 -6 OFFCURVE",
"236 -6 CURVE SMOOTH",
"263 -6 OFFCURVE",
"309 -3 OFFCURVE",
"309 24 CURVE SMOOTH",
"309 32 OFFCURVE",
"302 71 OFFCURVE",
"288 71 CURVE SMOOTH",
"279 71 OFFCURVE",
"274 66 OFFCURVE",
"245 66 CURVE SMOOTH",
"216 66 OFFCURVE",
"191 80 OFFCURVE",
"191 140 CURVE SMOOTH",
"191 451 LINE",
"275 451 LINE SMOOTH",
"289 451 OFFCURVE",
"295 460 OFFCURVE",
"295 481 CURVE SMOOTH",
"295 493 LINE SMOOTH",
"295 514 OFFCURVE",
"289 523 OFFCURVE",
"275 523 CURVE SMOOTH",
"191 523 LINE",
"191 628 LINE SMOOTH",
"191 642 OFFCURVE",
"182 650 OFFCURVE",
"161 650 CURVE SMOOTH"
);
}
);
width = 342;
},
{
anchors = (
{
name = bottom;
position = "{201, 0}";
},
{
name = caron;
position = "{210, 752}";
},
{
name = center;
position = "{169, 292}";
}
);
layerId = "2C16E7AF-C861-4509-900A-75D3055B0FF7";
name = Bold;
paths = (
{
closed = 1;
nodes = (
"144 650 LINE SMOOTH",
"111 650 OFFCURVE",
"93 639 OFFCURVE",
"90 618 CURVE SMOOTH",
"77 523 LINE",
"61 523 LINE SMOOTH",
"40 523 OFFCURVE",
"31 508 OFFCURVE",
"31 473 CURVE SMOOTH",
"31 456 LINE SMOOTH",
"31 421 OFFCURVE",
"40 406 OFFCURVE",
"61 406 CURVE SMOOTH",
"77 406 LINE",
"77 154 LINE SMOOTH",
"77 43 OFFCURVE",
"129 -8 OFFCURVE",
"223 -8 CURVE SMOOTH",
"254 -8 OFFCURVE",
"319 -5 OFFCURVE",
"319 41 CURVE SMOOTH",
"319 49 OFFCURVE",
"308 113 OFFCURVE",
"288 113 CURVE SMOOTH",
"282 113 OFFCURVE",
"270 109 OFFCURVE",
"261 109 CURVE SMOOTH",
"235 109 OFFCURVE",
"225 122 OFFCURVE",
"225 152 CURVE SMOOTH",
"225 406 LINE",
"274 406 LINE SMOOTH",
"295 406 OFFCURVE",
"304 421 OFFCURVE",
"304 456 CURVE SMOOTH",
"304 473 LINE SMOOTH",
"304 508 OFFCURVE",
"295 523 OFFCURVE",
"274 523 CURVE SMOOTH",
"225 523 LINE",
"225 618 LINE SMOOTH",
"225 639 OFFCURVE",
"210 650 OFFCURVE",
"175 650 CURVE SMOOTH"
);
}
);
width = 342;
}
);
unicode = 0074;
},
{
color = 10;
glyphname = u;
lastChange = "2013-08-29 18:05:17 +0000";
layers = (
{
anchors = (
{
name = bottom;
position = "{251, 0}";
},
{
name = horn;
position = "{427, 525}";
},
{
name = ogonek;
position = "{468, 10}";
},
{
name = top;
position = "{279, 523}";
}
);
layerId = UUID0;
name = Regular;
paths = (
{
closed = 1;
nodes = (
"427 525 LINE SMOOTH",
"399 525 OFFCURVE",
"387 517 OFFCURVE",
"387 503 CURVE SMOOTH",
"387 137 LINE",
"354 94 OFFCURVE",
"306 67 OFFCURVE",
"261 67 CURVE SMOOTH",
"196 67 OFFCURVE",
"159 103 OFFCURVE",
"159 164 CURVE SMOOTH",
"159 503 LINE SMOOTH",
"159 517 OFFCURVE",
"147 525 OFFCURVE",
"119 525 CURVE SMOOTH",
"115 525 LINE SMOOTH",
"87 525 OFFCURVE",
"75 517 OFFCURVE",
"75 503 CURVE SMOOTH",
"75 156 LINE SMOOTH",
"75 55 OFFCURVE",
"136 -6 OFFCURVE",
"238 -6 CURVE SMOOTH",
"294 -6 OFFCURVE",
"352 22 OFFCURVE",
"394 69 CURVE",
"400 41 OFFCURVE",
"405 -1 OFFCURVE",
"429 -1 CURVE SMOOTH",
"442 -1 OFFCURVE",
"483 3 OFFCURVE",
"483 22 CURVE SMOOTH",
"483 27 OFFCURVE",
"471 66 OFFCURVE",
"471 148 CURVE SMOOTH",
"471 503 LINE SMOOTH",
"471 517 OFFCURVE",
"459 525 OFFCURVE",
"431 525 CURVE SMOOTH"
);
}
);
width = 557;
},
{
anchors = (
{
name = bottom;
position = "{251, 0}";
},
{
name = horn;
position = "{407, 525}";
},
{
name = ogonek;
position = "{454, 10}";
},
{
name = top;
position = "{279, 523}";
}
);
layerId = "2C16E7AF-C861-4509-900A-75D3055B0FF7";
name = Bold;
paths = (
{
closed = 1;
nodes = (
"407 525 LINE SMOOTH",
"365 525 OFFCURVE",
"347 514 OFFCURVE",
"347 493 CURVE SMOOTH",
"347 172 LINE",
"335 149 OFFCURVE",
"308 114 OFFCURVE",
"267 114 CURVE SMOOTH",
"223 114 OFFCURVE",
"207 137 OFFCURVE",
"207 176 CURVE SMOOTH",
"207 493 LINE SMOOTH",
"207 514 OFFCURVE",
"189 525 OFFCURVE",
"147 525 CURVE SMOOTH",
"119 525 LINE SMOOTH",
"77 525 OFFCURVE",
"59 514 OFFCURVE",
"59 493 CURVE SMOOTH",
"59 154 LINE SMOOTH",
"59 43 OFFCURVE",
"106 -8 OFFCURVE",
"206 -8 CURVE SMOOTH",
"271 -8 OFFCURVE",
"326 30 OFFCURVE",
"355 68 CURVE",
"361 41 OFFCURVE",
"363 -1 OFFCURVE",
"395 -1 CURVE SMOOTH",
"420 -1 OFFCURVE",
"507 7 OFFCURVE",
"507 31 CURVE SMOOTH",
"507 52 OFFCURVE",
"495 73 OFFCURVE",
"495 176 CURVE SMOOTH",
"495 493 LINE SMOOTH",
"495 514 OFFCURVE",
"477 525 OFFCURVE",
"435 525 CURVE SMOOTH"
);
}
);
width = 557;
}
);
unicode = 0075;
},
{
color = 10;
glyphname = v;
lastChange = "2013-08-29 18:05:17 +0000";
layers = (
{
layerId = UUID0;
name = Regular;
paths = (
{
closed = 1;
nodes = (
"424 525 LINE",
"403 525 OFFCURVE",
"387 521 OFFCURVE",
"383 509 CURVE SMOOTH",
"280 188 LINE SMOOTH",
"268 150 OFFCURVE",
"258 99 OFFCURVE",
"250 65 CURVE",
"246 65 LINE",
"237 99 OFFCURVE",
"224 150 OFFCURVE",
"211 190 CURVE SMOOTH",
"109 509 LINE SMOOTH",
"105 521 OFFCURVE",
"89 525 OFFCURVE",
"69 525 CURVE SMOOTH",
"64 525 LINE SMOOTH",
"34 525 OFFCURVE",
"21 518 OFFCURVE",
"21 508 CURVE SMOOTH",
"21 504 OFFCURVE",
"23 498 OFFCURVE",
"24 495 CURVE SMOOTH",
"185 14 LINE SMOOTH",
"189 2 OFFCURVE",
"205 -2 OFFCURVE",
"225 -2 CURVE SMOOTH",
"260 -2 LINE SMOOTH",
"280 -2 OFFCURVE",
"296 2 OFFCURVE",
"300 14 CURVE SMOOTH",
"461 494 LINE SMOOTH",
"463 500 OFFCURVE",
"464 504 OFFCURVE",
"464 508 CURVE SMOOTH",
"464 519 OFFCURVE",
"453 525 OFFCURVE",
"427 525 CURVE"
);
}
);
width = 485;
},
{
layerId = "2C16E7AF-C861-4509-900A-75D3055B0FF7";
name = Bold;
paths = (
{
closed = 1;
nodes = (
"391 525 LINE SMOOTH",
"362 525 OFFCURVE",
"340 520 OFFCURVE",
"335 504 CURVE SMOOTH",
"276 319 LINE SMOOTH",
"269 296 OFFCURVE",
"257 242 OFFCURVE",
"248 198 CURVE",
"244 198 LINE",
"234 242 OFFCURVE",
"223 295 OFFCURVE",
"216 319 CURVE SMOOTH",
"157 504 LINE SMOOTH",
"152 520 OFFCURVE",
"130 525 OFFCURVE",
"101 525 CURVE SMOOTH",
"68 525 LINE SMOOTH",
"26 525 OFFCURVE",
"7 517 OFFCURVE",
"7 503 CURVE SMOOTH",
"7 498 OFFCURVE",
"9 492 OFFCURVE",
"11 485 CURVE SMOOTH",
"170 19 LINE SMOOTH",
"175 3 OFFCURVE",
"197 -2 OFFCURVE",
"226 -2 CURVE SMOOTH",
"258 -2 LINE SMOOTH",
"287 -2 OFFCURVE",
"309 3 OFFCURVE",
"314 19 CURVE SMOOTH",
"473 485 LINE SMOOTH",
"475 492 OFFCURVE",
"476 498 OFFCURVE",
"476 503 CURVE SMOOTH",
"476 517 OFFCURVE",
"458 525 OFFCURVE",
"416 525 CURVE SMOOTH"
);
}
);
width = 485;
}
);
unicode = 0076;
},
{
color = 10;
glyphname = w;
lastChange = "2013-08-29 18:05:17 +0000";
layers = (
{
anchors = (
{
name = top;
position = "{374, 523}";
}
);
layerId = UUID0;
name = Regular;
paths = (
{
closed = 1;
nodes = (
"655 525 OFFCURVE",
"637 521 OFFCURVE",
"634 509 CURVE SMOOTH",
"550 188 LINE SMOOTH",
"542 157 OFFCURVE",
"534 112 OFFCURVE",
"527 76 CURVE",
"520 112 OFFCURVE",
"517 133 OFFCURVE",
"502 190 CURVE SMOOTH",
"418 508 LINE SMOOTH",
"414 521 OFFCURVE",
"399 525 OFFCURVE",
"379 525 CURVE SMOOTH",
"372 525 LINE SMOOTH",
"352 525 OFFCURVE",
"336 521 OFFCURVE",
"333 508 CURVE SMOOTH",
"250 190 LINE SMOOTH",
"241 158 OFFCURVE",
"231 110 OFFCURVE",
"225 75 CURVE",
"217 112 OFFCURVE",
"206 165 OFFCURVE",
"200 189 CURVE SMOOTH",
"116 509 LINE SMOOTH",
"113 521 OFFCURVE",
"96 525 OFFCURVE",
"76 525 CURVE SMOOTH",
"43 525 OFFCURVE",
"30 518 OFFCURVE",
"30 508 CURVE SMOOTH",
"30 504 OFFCURVE",
"33 494 OFFCURVE",
"35 488 CURVE SMOOTH",
"167 14 LINE",
"170 2 OFFCURVE",
"187 -2 OFFCURVE",
"207 -2 CURVE SMOOTH",
"237 -2 LINE SMOOTH",
"257 -2 OFFCURVE",
"274 2 OFFCURVE",
"277 14 CURVE SMOOTH",
"359 332 LINE SMOOTH",
"365 354 OFFCURVE",
"370 383 OFFCURVE",
"374 409 CURVE",
"378 383 OFFCURVE",
"383 354 OFFCURVE",
"389 331 CURVE SMOOTH",
"469 14 LINE SMOOTH",
"472 2 OFFCURVE",
"488 -2 OFFCURVE",
"508 -2 CURVE SMOOTH",
"538 -2 LINE SMOOTH",
"558 -2 OFFCURVE",
"575 2 OFFCURVE",
"578 14 CURVE SMOOTH",
"712 494 LINE SMOOTH",
"714 500 OFFCURVE",
"715 504 OFFCURVE",
"715 508 CURVE SMOOTH",
"715 519 OFFCURVE",
"702 525 OFFCURVE",
"675 525 CURVE SMOOTH"
);
}
);
width = 747;
},
{
anchors = (
{
name = top;
position = "{374, 523}";
}
);
layerId = "2C16E7AF-C861-4509-900A-75D3055B0FF7";
name = Bold;
paths = (
{
closed = 1;
nodes = (
"626 525 OFFCURVE",
"607 518 OFFCURVE",
"603 504 CURVE SMOOTH",
"534 240 LINE",
"530 225 OFFCURVE",
"526 211 OFFCURVE",
"522 196 CURVE",
"519 210 OFFCURVE",
"515 223 OFFCURVE",
"512 237 CURVE",
"448 504 LINE SMOOTH",
"445 518 OFFCURVE",
"421 525 OFFCURVE",
"393 525 CURVE SMOOTH",
"369 525 LINE SMOOTH",
"337 525 OFFCURVE",
"317 518 OFFCURVE",
"314 504 CURVE SMOOTH",
"250 243 LINE",
"246 227 OFFCURVE",
"242 212 OFFCURVE",
"238 196 CURVE",
"234 211 OFFCURVE",
"231 225 OFFCURVE",
"227 240 CURVE",
"159 504 LINE SMOOTH",
"155 519 OFFCURVE",
"134 525 OFFCURVE",
"80 525 CURVE SMOOTH",
"37 525 OFFCURVE",
"18 515 OFFCURVE",
"18 499 CURVE SMOOTH",
"18 495 OFFCURVE",
"18 490 OFFCURVE",
"20 484 CURVE SMOOTH",
"146 19 LINE SMOOTH",
"150 5 OFFCURVE",
"168 -2 OFFCURVE",
"201 -2 CURVE SMOOTH",
"250 -2 LINE SMOOTH",
"278 -2 OFFCURVE",
"302 5 OFFCURVE",
"305 19 CURVE SMOOTH",
"362 256 LINE",
"366 271 OFFCURVE",
"369 285 OFFCURVE",
"373 300 CURVE",
"377 286 OFFCURVE",
"380 271 OFFCURVE",
"384 257 CURVE",
"445 19 LINE SMOOTH",
"449 5 OFFCURVE",
"468 -2 OFFCURVE",
"500 -2 CURVE SMOOTH",
"549 -2 LINE SMOOTH",
"577 -2 OFFCURVE",
"600 5 OFFCURVE",
"604 19 CURVE SMOOTH",
"722 484 LINE SMOOTH",
"723 490 OFFCURVE",
"724 495 OFFCURVE",
"724 499 CURVE SMOOTH",
"724 515 OFFCURVE",
"705 525 OFFCURVE",
"662 525 CURVE SMOOTH"
);
}
);
width = 747;
}
);
unicode = 0077;
},
{
color = 10;
glyphname = x;
lastChange = "2013-08-29 18:05:17 +0000";
layers = (
{
layerId = UUID0;
name = Regular;
paths = (
{
closed = 1;
nodes = (
"408 525 LINE",
"388 525 OFFCURVE",
"370 522 OFFCURVE",
"363 511 CURVE SMOOTH",
"267 367 LINE SMOOTH",
"255 349 OFFCURVE",
"250 339 OFFCURVE",
"246 332 CURVE",
"242 339 OFFCURVE",
"237 349 OFFCURVE",
"225 367 CURVE SMOOTH",
"130 510 LINE SMOOTH",
"122 522 OFFCURVE",
"108 525 OFFCURVE",
"87 525 CURVE SMOOTH",
"78 525 LINE SMOOTH",
"44 525 OFFCURVE",
"32 519 OFFCURVE",
"32 508 CURVE SMOOTH",
"32 503 OFFCURVE",
"35 497 OFFCURVE",
"40 490 CURVE SMOOTH",
"190 268 LINE",
"28 33 LINE SMOOTH",
"23 26 OFFCURVE",
"20 20 OFFCURVE",
"20 15 CURVE SMOOTH",
"20 3 OFFCURVE",
"32 -2 OFFCURVE",
"63 -2 CURVE",
"66 -2 LINE",
"86 -2 OFFCURVE",
"103 1 OFFCURVE",
"111 12 CURVE SMOOTH",
"219 172 LINE SMOOTH",
"231 190 OFFCURVE",
"236 200 OFFCURVE",
"240 207 CURVE",
"244 200 OFFCURVE",
"249 190 OFFCURVE",
"261 172 CURVE SMOOTH",
"367 13 LINE SMOOTH",
"375 1 OFFCURVE",
"389 -2 OFFCURVE",
"410 -2 CURVE SMOOTH",
"419 -2 LINE SMOOTH",
"453 -2 OFFCURVE",
"465 4 OFFCURVE",
"465 15 CURVE SMOOTH",
"465 20 OFFCURVE",
"462 26 OFFCURVE",
"457 33 CURVE SMOOTH",
"295 270 LINE",
"446 490 LINE SMOOTH",
"451 497 OFFCURVE",
"454 503 OFFCURVE",
"454 508 CURVE SMOOTH",
"454 520 OFFCURVE",
"442 525 OFFCURVE",
"412 525 CURVE"
);
}
);
width = 485;
},
{
layerId = "2C16E7AF-C861-4509-900A-75D3055B0FF7";
name = Bold;
paths = (
{
closed = 1;
nodes = (
"386 525 LINE SMOOTH",
"357 525 OFFCURVE",
"336 524 OFFCURVE",
"325 506 CURVE SMOOTH",
"263 409 LINE SMOOTH",
"257 400 OFFCURVE",
"252 392 OFFCURVE",
"246 383 CURVE",
"241 391 OFFCURVE",
"236 399 OFFCURVE",
"231 407 CURVE SMOOTH",
"170 506 LINE SMOOTH",
"159 524 OFFCURVE",
"138 525 OFFCURVE",
"109 525 CURVE SMOOTH",
"77 525 LINE SMOOTH",
"34 525 OFFCURVE",
"14 518 OFFCURVE",
"14 507 CURVE SMOOTH",
"14 500 OFFCURVE",
"18 492 OFFCURVE",
"25 481 CURVE SMOOTH",
"167 265 LINE",
"16 41 LINE SMOOTH",
"9 30 OFFCURVE",
"5 22 OFFCURVE",
"5 16 CURVE SMOOTH",
"5 5 OFFCURVE",
"25 -2 OFFCURVE",
"68 -2 CURVE SMOOTH",
"98 -2 LINE SMOOTH",
"127 -2 OFFCURVE",
"148 -1 OFFCURVE",
"159 17 CURVE SMOOTH",
"229 127 LINE SMOOTH",
"233 134 OFFCURVE",
"238 141 OFFCURVE",
"242 148 CURVE",
"246 141 OFFCURVE",
"251 134 OFFCURVE",
"255 127 CURVE SMOOTH",
"324 17 LINE SMOOTH",
"335 -1 OFFCURVE",
"356 -2 OFFCURVE",
"385 -2 CURVE SMOOTH",
"417 -2 LINE SMOOTH",
"460 -2 OFFCURVE",
"480 5 OFFCURVE",
"480 16 CURVE SMOOTH",
"480 23 OFFCURVE",
"476 31 OFFCURVE",
"469 42 CURVE SMOOTH",
"321 266 LINE",
"467 482 LINE SMOOTH",
"474 493 OFFCURVE",
"478 501 OFFCURVE",
"478 507 CURVE SMOOTH",
"478 518 OFFCURVE",
"458 525 OFFCURVE",
"415 525 CURVE SMOOTH"
);
}
);
width = 485;
}
);
unicode = 0078;
},
{
color = 10;
glyphname = y;
lastChange = "2015-02-03 01:40:28 +0000";
layers = (
{
anchors = (
{
name = bottom;
position = "{346, -61}";
},
{
name = top;
position = "{241, 523}";
}
);
layerId = UUID0;
name = Regular;
paths = (
{
closed = 1;
nodes = (
"419 525 LINE",
"398 525 OFFCURVE",
"382 521 OFFCURVE",
"378 509 CURVE SMOOTH",
"278 238 LINE SMOOTH",
"266 207 OFFCURVE",
"255 168 OFFCURVE",
"245 137 CURVE",
"243 137 LINE",
"234 169 OFFCURVE",
"223 205 OFFCURVE",
"211 238 CURVE SMOOTH",
"109 509 LINE SMOOTH",
"104 521 OFFCURVE",
"89 525 OFFCURVE",
"69 525 CURVE SMOOTH",
"61 525 LINE SMOOTH",
"31 525 OFFCURVE",
"18 518 OFFCURVE",
"18 508 CURVE SMOOTH",
"18 504 OFFCURVE",
"20 498 OFFCURVE",
"21 495 CURVE SMOOTH",
"196 28 LINE",
"112 -175 LINE",
"107 -188 OFFCURVE",
"107 -190 OFFCURVE",
"107 -192 CURVE SMOOTH",
"107 -202 OFFCURVE",
"118 -208 OFFCURVE",
"140 -208 CURVE SMOOTH",
"155 -208 LINE SMOOTH",
"179 -208 OFFCURVE",
"196 -202 OFFCURVE",
"202 -187 CURVE SMOOTH",
"459 494 LINE SMOOTH",
"461 500 OFFCURVE",
"462 504 OFFCURVE",
"462 508 CURVE SMOOTH",
"462 519 OFFCURVE",
"450 525 OFFCURVE",
"422 525 CURVE"
);
}
);
width = 481;
},
{
anchors = (
{
name = bottom;
position = "{361, -36}";
},
{
name = top;
position = "{241, 523}";
}
);
layerId = "2C16E7AF-C861-4509-900A-75D3055B0FF7";
name = Bold;
paths = (
{
closed = 1;
nodes = (
"393 525 LINE SMOOTH",
"364 525 OFFCURVE",
"342 520 OFFCURVE",
"337 504 CURVE SMOOTH",
"278 319 LINE SMOOTH",
"271 297 OFFCURVE",
"259 241 OFFCURVE",
"250 198 CURVE",
"246 198 LINE",
"237 241 OFFCURVE",
"225 296 OFFCURVE",
"218 319 CURVE SMOOTH",
"159 504 LINE SMOOTH",
"154 520 OFFCURVE",
"132 525 OFFCURVE",
"103 525 CURVE SMOOTH",
"71 525 LINE SMOOTH",
"29 525 OFFCURVE",
"10 517 OFFCURVE",
"10 503 CURVE SMOOTH",
"10 498 OFFCURVE",
"12 492 OFFCURVE",
"14 485 CURVE SMOOTH",
"179 0 LINE",
"116 -167 LINE SMOOTH",
"113 -174 OFFCURVE",
"112 -180 OFFCURVE",
"112 -185 CURVE SMOOTH",
"112 -198 OFFCURVE",
"131 -206 OFFCURVE",
"172 -206 CURVE SMOOTH",
"189 -206 LINE SMOOTH",
"218 -206 OFFCURVE",
"239 -201 OFFCURVE",
"245 -185 CURVE SMOOTH",
"474 485 LINE SMOOTH",
"476 492 OFFCURVE",
"477 498 OFFCURVE",
"477 503 CURVE SMOOTH",
"477 517 OFFCURVE",
"459 525 OFFCURVE",
"417 525 CURVE SMOOTH"
);
}
);
width = 481;
}
);
unicode = 0079;
},
{
color = 10;
glyphname = z;
lastChange = "2013-08-29 18:05:17 +0000";
layers = (
{
anchors = (
{
name = bottom;
position = "{238, 0}";
},
{
name = top;
position = "{245, 523}";
}
);
layerId = UUID0;
name = Regular;
paths = (
{
closed = 1;
nodes = (
"77 523 LINE SMOOTH",
"63 523 OFFCURVE",
"57 514 OFFCURVE",
"57 493 CURVE SMOOTH",
"57 481 LINE SMOOTH",
"57 460 OFFCURVE",
"63 451 OFFCURVE",
"77 451 CURVE SMOOTH",
"333 451 LINE",
"40 62 LINE SMOOTH",
"38 59 OFFCURVE",
"37 55 OFFCURVE",
"37 51 CURVE SMOOTH",
"37 31 OFFCURVE",
"51 0 OFFCURVE",
"59 0 CURVE",
"429 0 LINE SMOOTH",
"443 0 OFFCURVE",
"449 9 OFFCURVE",
"449 30 CURVE SMOOTH",
"449 42 LINE SMOOTH",
"449 63 OFFCURVE",
"443 72 OFFCURVE",
"429 72 CURVE SMOOTH",
"154 72 LINE",
"446 461 LINE SMOOTH",
"447 463 OFFCURVE",
"448 466 OFFCURVE",
"448 471 CURVE SMOOTH",
"448 489 OFFCURVE",
"438 523 OFFCURVE",
"428 523 CURVE SMOOTH"
);
}
);
width = 489;
},
{
anchors = (
{
name = bottom;
position = "{241, 0}";
},
{
name = top;
position = "{245, 523}";
}
);
layerId = "2C16E7AF-C861-4509-900A-75D3055B0FF7";
name = Bold;
paths = (
{
closed = 1;
nodes = (
"73 523 LINE SMOOTH",
"52 523 OFFCURVE",
"43 508 OFFCURVE",
"43 473 CURVE SMOOTH",
"43 456 LINE SMOOTH",
"43 421 OFFCURVE",
"52 406 OFFCURVE",
"73 406 CURVE SMOOTH",
"259 406 LINE",
"30 90 LINE SMOOTH",
"28 87 OFFCURVE",
"27 82 OFFCURVE",
"27 76 CURVE SMOOTH",
"27 50 OFFCURVE",
"43 0 OFFCURVE",
"56 0 CURVE",
"430 0 LINE SMOOTH",
"451 0 OFFCURVE",
"460 15 OFFCURVE",
"460 50 CURVE SMOOTH",
"460 67 LINE SMOOTH",
"460 102 OFFCURVE",
"451 117 OFFCURVE",
"430 117 CURVE SMOOTH",
"225 117 LINE",
"453 431 LINE SMOOTH",
"455 434 OFFCURVE",
"456 439 OFFCURVE",
"456 446 CURVE SMOOTH",
"456 474 OFFCURVE",
"438 523 OFFCURVE",
"427 523 CURVE SMOOTH"
);
}
);
width = 489;
}
);
unicode = 007A;
},
{
color = 10;
glyphname = y.loclGUA;
lastChange = "2015-02-03 01:38:54 +0000";
layers = (
{
anchors = (
{
name = bottom;
position = "{521, -61}";
},
{
name = top;
position = "{279, 523}";
}
);
layerId = UUID0;
name = Regular;
paths = (
{
closed = 1;
nodes = (
"427 525 LINE SMOOTH",
"399 525 OFFCURVE",
"387 517 OFFCURVE",
"387 503 CURVE SMOOTH",
"387 137 LINE",
"354 94 OFFCURVE",
"306 67 OFFCURVE",
"261 67 CURVE SMOOTH",
"196 67 OFFCURVE",
"159 103 OFFCURVE",
"159 164 CURVE SMOOTH",
"159 503 LINE SMOOTH",
"159 517 OFFCURVE",
"147 525 OFFCURVE",
"119 525 CURVE SMOOTH",
"115 525 LINE SMOOTH",
"87 525 OFFCURVE",
"75 517 OFFCURVE",
"75 503 CURVE SMOOTH",
"75 156 LINE SMOOTH",
"75 55 OFFCURVE",
"136 -6 OFFCURVE",
"238 -6 CURVE SMOOTH",
"299 -6 OFFCURVE",
"363 28 OFFCURVE",
"405 83 CURVE",
"388 104 LINE",
"388 62 LINE",
"388 -83 OFFCURVE",
"339 -140 OFFCURVE",
"252 -140 CURVE SMOOTH",
"148 -140 OFFCURVE",
"101 -86 OFFCURVE",
"89 -86 CURVE SMOOTH",
"85 -86 OFFCURVE",
"79 -90 OFFCURVE",
"79 -116 CURVE SMOOTH",
"79 -123 OFFCURVE",
"79 -131 OFFCURVE",
"80 -141 CURVE SMOOTH",
"84 -171 OFFCURVE",
"158 -212 OFFCURVE",
"260 -212 CURVE SMOOTH",
"403 -212 OFFCURVE",
"471 -140 OFFCURVE",
"471 99 CURVE SMOOTH",
"471 503 LINE SMOOTH",
"471 517 OFFCURVE",
"459 525 OFFCURVE",
"431 525 CURVE SMOOTH"
);
}
);
width = 557;
},
{
anchors = (
{
name = bottom;
position = "{531, -36}";
},
{
name = top;
position = "{279, 523}";
}
);
layerId = "2C16E7AF-C861-4509-900A-75D3055B0FF7";
name = Bold;
paths = (
{
closed = 1;
nodes = (
"407 525 LINE SMOOTH",
"365 525 OFFCURVE",
"347 514 OFFCURVE",
"347 493 CURVE SMOOTH",
"347 172 LINE",
"335 149 OFFCURVE",
"308 114 OFFCURVE",
"267 114 CURVE SMOOTH",
"223 114 OFFCURVE",
"207 137 OFFCURVE",
"207 176 CURVE SMOOTH",
"207 493 LINE SMOOTH",
"207 514 OFFCURVE",
"189 525 OFFCURVE",
"147 525 CURVE SMOOTH",
"119 525 LINE SMOOTH",
"77 525 OFFCURVE",
"59 514 OFFCURVE",
"59 493 CURVE SMOOTH",
"59 154 LINE SMOOTH",
"59 43 OFFCURVE",
"106 -8 OFFCURVE",
"206 -8 CURVE SMOOTH",
"288 -8 OFFCURVE",
"354 52 OFFCURVE",
"372 97 CURVE",
"355 135 LINE",
"355 33 LINE SMOOTH",
"355 -49 OFFCURVE",
"307 -95 OFFCURVE",
"230 -95 CURVE SMOOTH",
"152 -95 OFFCURVE",
"102 -54 OFFCURVE",
"90 -54 CURVE SMOOTH",
"83 -54 OFFCURVE",
"77 -64 OFFCURVE",
"77 -94 CURVE SMOOTH",
"77 -106 OFFCURVE",
"78 -122 OFFCURVE",
"80 -141 CURVE SMOOTH",
"84 -183 OFFCURVE",
"169 -212 OFFCURVE",
"272 -212 CURVE SMOOTH",
"428 -212 OFFCURVE",
"497 -110 OFFCURVE",
"495 93 CURVE",
"495 493 LINE SMOOTH",
"495 514 OFFCURVE",
"477 525 OFFCURVE",
"435 525 CURVE SMOOTH"
);
}
);
width = 557;
}
);
},
{
color = 10;
glyphname = g.ss01;
lastChange = "2013-08-29 18:05:17 +0000";
layers = (
{
anchors = (
{
name = top;
position = "{260, 523}";
}
);
layerId = UUID0;
name = Regular;
paths = (
{
closed = 1;
nodes = (
"116 529 OFFCURVE",
"34 421 OFFCURVE",
"34 263 CURVE SMOOTH",
"34 139 OFFCURVE",
"88 0 OFFCURVE",
"231 0 CURVE SMOOTH",
"299 0 OFFCURVE",
"361 38 OFFCURVE",
"392 140 CURVE",
"380 152 LINE",
"380 84 LINE",
"380 -77 OFFCURVE",
"336 -140 OFFCURVE",
"244 -140 CURVE SMOOTH",
"140 -140 OFFCURVE",
"93 -86 OFFCURVE",
"81 -86 CURVE SMOOTH",
"77 -86 OFFCURVE",
"71 -90 OFFCURVE",
"71 -116 CURVE SMOOTH",
"71 -123 OFFCURVE",
"71 -131 OFFCURVE",
"72 -141 CURVE SMOOTH",
"76 -171 OFFCURVE",
"150 -212 OFFCURVE",
"252 -212 CURVE SMOOTH",
"395 -212 OFFCURVE",
"463 -140 OFFCURVE",
"463 99 CURVE SMOOTH",
"464 504 LINE",
"462 517 OFFCURVE",
"456 525 OFFCURVE",
"436 525 CURVE SMOOTH",
"430 525 LINE SMOOTH",
"402 525 OFFCURVE",
"398 504 OFFCURVE",
"391 475 CURVE",
"366 496 OFFCURVE",
"317 529 OFFCURVE",
"253 529 CURVE SMOOTH"
);
},
{
closed = 1;
nodes = (
"321 456 OFFCURVE",
"360 432 OFFCURVE",
"382 417 CURVE",
"381 401 OFFCURVE",
"379 385 OFFCURVE",
"379 367 CURVE",
"379 244 LINE",
"351 110 OFFCURVE",
"287 73 OFFCURVE",
"242 73 CURVE SMOOTH",
"143 73 OFFCURVE",
"120 175 OFFCURVE",
"120 272 CURVE SMOOTH",
"120 371 OFFCURVE",
"154 456 OFFCURVE",
"269 456 CURVE SMOOTH"
);
}
);
width = 546;
},
{
anchors = (
{
name = top;
position = "{251, 523}";
}
);
layerId = "2C16E7AF-C861-4509-900A-75D3055B0FF7";
name = Bold;
paths = (
{
closed = 1;
nodes = (
"102 531 OFFCURVE",
"23 427 OFFCURVE",
"23 268 CURVE SMOOTH",
"23 162 OFFCURVE",
"61 4 OFFCURVE",
"220 4 CURVE SMOOTH",
"286 4 OFFCURVE",
"337 48 OFFCURVE",
"355 99 CURVE",
"336 130 LINE",
"336 33 LINE SMOOTH",
"337 -49 OFFCURVE",
"297 -95 OFFCURVE",
"220 -95 CURVE SMOOTH",
"142 -95 OFFCURVE",
"92 -54 OFFCURVE",
"80 -54 CURVE SMOOTH",
"73 -54 OFFCURVE",
"67 -64 OFFCURVE",
"67 -94 CURVE SMOOTH",
"67 -106 OFFCURVE",
"68 -122 OFFCURVE",
"70 -141 CURVE SMOOTH",
"74 -183 OFFCURVE",
"159 -212 OFFCURVE",
"262 -212 CURVE SMOOTH",
"418 -212 OFFCURVE",
"484 -110 OFFCURVE",
"484 93 CURVE SMOOTH",
"484 500 LINE",
"483 516 OFFCURVE",
"463 525 OFFCURVE",
"423 525 CURVE SMOOTH",
"411 525 LINE SMOOTH",
"361 524 OFFCURVE",
"358 514 OFFCURVE",
"350 479 CURVE",
"327 499 OFFCURVE",
"281 531 OFFCURVE",
"225 531 CURVE SMOOTH"
);
},
{
closed = 1;
nodes = (
"298 414 OFFCURVE",
"321 402 OFFCURVE",
"339 388 CURVE",
"338 376 OFFCURVE",
"336 353 OFFCURVE",
"336 325 CURVE",
"336 183 LINE",
"319 152 OFFCURVE",
"296 125 OFFCURVE",
"264 125 CURVE SMOOTH",
"185 125 OFFCURVE",
"172 202 OFFCURVE",
"172 269 CURVE SMOOTH",
"172 364 OFFCURVE",
"208 414 OFFCURVE",
"271 414 CURVE SMOOTH"
);
}
);
width = 546;
}
);
},
{
color = 10;
glyphname = fi;
lastChange = "2013-08-29 18:05:17 +0000";
layers = (
{
layerId = UUID0;
name = Regular;
paths = (
{
closed = 1;
nodes = (
"187 756 OFFCURVE",
"108 737 OFFCURVE",
"108 618 CURVE SMOOTH",
"108 523 LINE",
"68 523 LINE SMOOTH",
"54 523 OFFCURVE",
"48 514 OFFCURVE",
"48 493 CURVE SMOOTH",
"48 481 LINE SMOOTH",
"48 460 OFFCURVE",
"54 451 OFFCURVE",
"68 451 CURVE SMOOTH",
"108 451 LINE",
"108 20 LINE SMOOTH",
"108 6 OFFCURVE",
"120 -2 OFFCURVE",
"148 -2 CURVE SMOOTH",
"152 -2 LINE SMOOTH",
"180 -2 OFFCURVE",
"192 6 OFFCURVE",
"192 20 CURVE SMOOTH",
"192 451 LINE",
"279 451 LINE SMOOTH",
"293 451 OFFCURVE",
"299 460 OFFCURVE",
"299 481 CURVE SMOOTH",
"299 493 LINE SMOOTH",
"299 514 OFFCURVE",
"293 523 OFFCURVE",
"279 523 CURVE SMOOTH",
"192 523 LINE",
"192 610 LINE SMOOTH",
"192 676 OFFCURVE",
"217 684 OFFCURVE",
"246 684 CURVE SMOOTH",
"275 684 OFFCURVE",
"280 679 OFFCURVE",
"289 679 CURVE SMOOTH",
"303 679 OFFCURVE",
"310 718 OFFCURVE",
"310 726 CURVE SMOOTH",
"310 753 OFFCURVE",
"264 756 OFFCURVE",
"237 756 CURVE SMOOTH"
);
},
{
closed = 1;
nodes = (
"429 525 LINE SMOOTH",
"401 525 OFFCURVE",
"389 517 OFFCURVE",
"389 503 CURVE SMOOTH",
"389 20 LINE SMOOTH",
"389 6 OFFCURVE",
"401 -2 OFFCURVE",
"429 -2 CURVE SMOOTH",
"433 -2 LINE SMOOTH",
"461 -2 OFFCURVE",
"473 6 OFFCURVE",
"473 20 CURVE SMOOTH",
"473 503 LINE SMOOTH",
"473 517 OFFCURVE",
"461 525 OFFCURVE",
"433 525 CURVE SMOOTH"
);
},
{
closed = 1;
nodes = (
"425 752 LINE SMOOTH",
"397 752 OFFCURVE",
"385 744 OFFCURVE",
"385 730 CURVE SMOOTH",
"385 671 LINE SMOOTH",
"385 657 OFFCURVE",
"397 649 OFFCURVE",
"425 649 CURVE",
"437 649 LINE SMOOTH",
"465 649 OFFCURVE",
"477 657 OFFCURVE",
"477 671 CURVE SMOOTH",
"477 730 LINE SMOOTH",
"477 744 OFFCURVE",
"465 752 OFFCURVE",
"437 752 CURVE SMOOTH"
);
}
);
width = 563;
},
{
layerId = "2C16E7AF-C861-4509-900A-75D3055B0FF7";
name = Bold;
paths = (
{
closed = 1;
nodes = (
"117 760 OFFCURVE",
"65 709 OFFCURVE",
"65 598 CURVE SMOOTH",
"65 523 LINE",
"47 523 LINE SMOOTH",
"26 523 OFFCURVE",
"17 508 OFFCURVE",
"17 473 CURVE SMOOTH",
"17 456 LINE SMOOTH",
"17 421 OFFCURVE",
"26 406 OFFCURVE",
"47 406 CURVE SMOOTH",
"65 406 LINE",
"65 30 LINE SMOOTH",
"65 9 OFFCURVE",
"83 -2 OFFCURVE",
"125 -2 CURVE SMOOTH",
"153 -2 LINE SMOOTH",
"195 -2 OFFCURVE",
"213 9 OFFCURVE",
"213 30 CURVE SMOOTH",
"213 406 LINE",
"263 406 LINE SMOOTH",
"284 406 OFFCURVE",
"293 421 OFFCURVE",
"293 456 CURVE SMOOTH",
"293 473 LINE SMOOTH",
"293 508 OFFCURVE",
"284 523 OFFCURVE",
"263 523 CURVE SMOOTH",
"213 523 LINE",
"213 600 LINE SMOOTH",
"213 630 OFFCURVE",
"223 643 OFFCURVE",
"249 643 CURVE SMOOTH",
"259 643 OFFCURVE",
"273 639 OFFCURVE",
"280 639 CURVE SMOOTH",
"300 639 OFFCURVE",
"311 703 OFFCURVE",
"311 711 CURVE SMOOTH",
"311 757 OFFCURVE",
"243 760 OFFCURVE",
"211 760 CURVE SMOOTH"
);
},
{
closed = 1;
nodes = (
"417 525 LINE SMOOTH",
"375 525 OFFCURVE",
"357 514 OFFCURVE",
"357 493 CURVE SMOOTH",
"357 30 LINE SMOOTH",
"357 9 OFFCURVE",
"375 -2 OFFCURVE",
"417 -2 CURVE SMOOTH",
"445 -2 LINE SMOOTH",
"487 -2 OFFCURVE",
"505 9 OFFCURVE",
"505 30 CURVE SMOOTH",
"505 493 LINE SMOOTH",
"505 514 OFFCURVE",
"487 525 OFFCURVE",
"445 525 CURVE SMOOTH"
);
},
{
closed = 1;
nodes = (
"417 754 LINE SMOOTH",
"375 754 OFFCURVE",
"357 743 OFFCURVE",
"357 722 CURVE SMOOTH",
"357 641 LINE SMOOTH",
"357 620 OFFCURVE",
"375 609 OFFCURVE",
"417 609 CURVE",
"445 609 LINE SMOOTH",
"487 609 OFFCURVE",
"505 620 OFFCURVE",
"505 641 CURVE SMOOTH",
"505 722 LINE SMOOTH",
"505 743 OFFCURVE",
"487 754 OFFCURVE",
"445 754 CURVE SMOOTH"
);
}
);
width = 563;
}
);
unicode = FB01;
},
{
color = 10;
glyphname = fl;
lastChange = "2013-08-29 18:05:17 +0000";
layers = (
{
layerId = UUID0;
name = Regular;
paths = (
{
closed = 1;
nodes = (
"187 756 OFFCURVE",
"108 737 OFFCURVE",
"108 618 CURVE SMOOTH",
"108 523 LINE",
"68 523 LINE SMOOTH",
"54 523 OFFCURVE",
"48 514 OFFCURVE",
"48 493 CURVE SMOOTH",
"48 481 LINE SMOOTH",
"48 460 OFFCURVE",
"54 451 OFFCURVE",
"68 451 CURVE SMOOTH",
"108 451 LINE",
"108 20 LINE SMOOTH",
"108 6 OFFCURVE",
"120 -2 OFFCURVE",
"148 -2 CURVE SMOOTH",
"152 -2 LINE SMOOTH",
"180 -2 OFFCURVE",
"192 6 OFFCURVE",
"192 20 CURVE SMOOTH",
"192 451 LINE",
"279 451 LINE SMOOTH",
"293 451 OFFCURVE",
"299 460 OFFCURVE",
"299 481 CURVE SMOOTH",
"299 493 LINE SMOOTH",
"299 514 OFFCURVE",
"293 523 OFFCURVE",
"279 523 CURVE SMOOTH",
"192 523 LINE",
"192 610 LINE SMOOTH",
"192 676 OFFCURVE",
"217 684 OFFCURVE",
"246 684 CURVE SMOOTH",
"275 684 OFFCURVE",
"280 679 OFFCURVE",
"289 679 CURVE SMOOTH",
"303 679 OFFCURVE",
"310 718 OFFCURVE",
"310 726 CURVE SMOOTH",
"310 753 OFFCURVE",
"264 756 OFFCURVE",
"237 756 CURVE SMOOTH"
);
},
{
closed = 1;
nodes = (
"420 752 LINE SMOOTH",
"392 752 OFFCURVE",
"380 744 OFFCURVE",
"380 730 CURVE SMOOTH",
"380 132 LINE SMOOTH",
"380 16 OFFCURVE",
"459 -6 OFFCURVE",
"509 -6 CURVE SMOOTH",
"536 -6 OFFCURVE",
"582 -3 OFFCURVE",
"582 24 CURVE SMOOTH",
"582 32 OFFCURVE",
"575 71 OFFCURVE",
"561 71 CURVE SMOOTH",
"552 71 OFFCURVE",
"547 66 OFFCURVE",
"518 66 CURVE SMOOTH",
"489 66 OFFCURVE",
"464 80 OFFCURVE",
"464 140 CURVE SMOOTH",
"464 730 LINE SMOOTH",
"464 744 OFFCURVE",
"452 752 OFFCURVE",
"424 752 CURVE SMOOTH"
);
}
);
width = 591;
},
{
layerId = "2C16E7AF-C861-4509-900A-75D3055B0FF7";
name = Bold;
paths = (
{
closed = 1;
nodes = (
"117 760 OFFCURVE",
"65 709 OFFCURVE",
"65 598 CURVE SMOOTH",
"65 523 LINE",
"47 523 LINE SMOOTH",
"26 523 OFFCURVE",
"17 508 OFFCURVE",
"17 473 CURVE SMOOTH",
"17 456 LINE SMOOTH",
"17 421 OFFCURVE",
"26 406 OFFCURVE",
"47 406 CURVE SMOOTH",
"65 406 LINE",
"65 30 LINE SMOOTH",
"65 9 OFFCURVE",
"83 -2 OFFCURVE",
"125 -2 CURVE SMOOTH",
"153 -2 LINE SMOOTH",
"195 -2 OFFCURVE",
"213 9 OFFCURVE",
"213 30 CURVE SMOOTH",
"213 406 LINE",
"263 406 LINE SMOOTH",
"284 406 OFFCURVE",
"293 421 OFFCURVE",
"293 456 CURVE SMOOTH",
"293 473 LINE SMOOTH",
"293 508 OFFCURVE",
"284 523 OFFCURVE",
"263 523 CURVE SMOOTH",
"213 523 LINE",
"213 600 LINE SMOOTH",
"213 630 OFFCURVE",
"223 643 OFFCURVE",
"249 643 CURVE SMOOTH",
"259 643 OFFCURVE",
"273 639 OFFCURVE",
"280 639 CURVE SMOOTH",
"300 639 OFFCURVE",
"311 703 OFFCURVE",
"311 711 CURVE SMOOTH",
"311 757 OFFCURVE",
"243 760 OFFCURVE",
"211 760 CURVE SMOOTH"
);
},
{
closed = 1;
nodes = (
"417 754 LINE SMOOTH",
"375 754 OFFCURVE",
"357 743 OFFCURVE",
"357 722 CURVE SMOOTH",
"357 154 LINE SMOOTH",
"357 43 OFFCURVE",
"409 -8 OFFCURVE",
"503 -8 CURVE SMOOTH",
"534 -8 OFFCURVE",
"599 -5 OFFCURVE",
"599 41 CURVE SMOOTH",
"599 49 OFFCURVE",
"588 113 OFFCURVE",
"568 113 CURVE SMOOTH",
"562 113 OFFCURVE",
"550 109 OFFCURVE",
"541 109 CURVE SMOOTH",
"515 109 OFFCURVE",
"505 122 OFFCURVE",
"505 152 CURVE SMOOTH",
"505 722 LINE SMOOTH",
"505 743 OFFCURVE",
"487 754 OFFCURVE",
"445 754 CURVE SMOOTH"
);
}
);
width = 591;
}
);
unicode = FB02;
},
{
color = 10;
glyphname = ordfeminine;
lastChange = "2013-08-29 18:05:17 +0000";
layers = (
{
layerId = UUID0;
name = Regular;
paths = (
{
closed = 1;
nodes = (
"104 706 OFFCURVE",
"60 687 OFFCURVE",
"60 674 CURVE SMOOTH",
"60 668 OFFCURVE",
"71 650 OFFCURVE",
"78 650 CURVE SMOOTH",
"83 650 OFFCURVE",
"110 670 OFFCURVE",
"155 670 CURVE SMOOTH",
"196 670 OFFCURVE",
"210 651 OFFCURVE",
"210 629 CURVE SMOOTH",
"210 605 LINE",
"133 604 OFFCURVE",
"45 599 OFFCURVE",
"45 515 CURVE SMOOTH",
"45 465 OFFCURVE",
"82 441 OFFCURVE",
"129 441 CURVE SMOOTH",
"167 441 OFFCURVE",
"194 458 OFFCURVE",
"213 479 CURVE",
"215 465 OFFCURVE",
"218 444 OFFCURVE",
"230 444 CURVE SMOOTH",
"236 444 OFFCURVE",
"257 446 OFFCURVE",
"257 455 CURVE SMOOTH",
"257 458 OFFCURVE",
"251 477 OFFCURVE",
"251 517 CURVE SMOOTH",
"251 628 LINE SMOOTH",
"251 677 OFFCURVE",
"214 706 OFFCURVE",
"153 706 CURVE SMOOTH"
);
},
{
closed = 1;
nodes = (
"210 511 LINE",
"190 493 OFFCURVE",
"168 478 OFFCURVE",
"131 478 CURVE SMOOTH",
"104 478 OFFCURVE",
"90 491 OFFCURVE",
"90 518 CURVE SMOOTH",
"90 570 OFFCURVE",
"158 570 OFFCURVE",
"210 570 CURVE"
);
}
);
width = 319;
},
{
layerId = "2C16E7AF-C861-4509-900A-75D3055B0FF7";
name = Bold;
paths = (
{
closed = 1;
nodes = (
"96 708 OFFCURVE",
"57 690 OFFCURVE",
"57 674 CURVE SMOOTH",
"57 663 OFFCURVE",
"72 634 OFFCURVE",
"82 634 CURVE SMOOTH",
"88 634 OFFCURVE",
"109 649 OFFCURVE",
"146 649 CURVE SMOOTH",
"173 649 OFFCURVE",
"185 641 OFFCURVE",
"185 621 CURVE SMOOTH",
"185 605 LINE",
"59 605 OFFCURVE",
"42 553 OFFCURVE",
"42 512 CURVE SMOOTH",
"42 471 OFFCURVE",
"62 440 OFFCURVE",
"115 440 CURVE SMOOTH",
"161 440 OFFCURVE",
"186 471 OFFCURVE",
"189 477 CURVE",
"192 464 OFFCURVE",
"193 443 OFFCURVE",
"208 443 CURVE SMOOTH",
"221 443 OFFCURVE",
"264 447 OFFCURVE",
"264 460 CURVE SMOOTH",
"264 469 OFFCURVE",
"258 480 OFFCURVE",
"258 531 CURVE SMOOTH",
"258 625 LINE SMOOTH",
"258 673 OFFCURVE",
"230 708 OFFCURVE",
"152 708 CURVE SMOOTH"
);
},
{
closed = 1;
nodes = (
"185 529 LINE",
"177 511 OFFCURVE",
"159 498 OFFCURVE",
"140 498 CURVE SMOOTH",
"123 498 OFFCURVE",
"115 508 OFFCURVE",
"115 520 CURVE SMOOTH",
"115 544 OFFCURVE",
"138 556 OFFCURVE",
"185 556 CURVE"
);
}
);
width = 319;
}
);
unicode = 00AA;
},
{
color = 10;
glyphname = ordmasculine;
lastChange = "2013-08-29 18:05:17 +0000";
layers = (
{
layerId = UUID0;
name = Regular;
paths = (
{
closed = 1;
nodes = (
"96 706 OFFCURVE",
"55 658 OFFCURVE",
"55 572 CURVE SMOOTH",
"55 487 OFFCURVE",
"95 441 OFFCURVE",
"170 441 CURVE SMOOTH",
"243 441 OFFCURVE",
"282 487 OFFCURVE",
"282 572 CURVE SMOOTH",
"282 659 OFFCURVE",
"242 706 OFFCURVE",
"170 706 CURVE SMOOTH"
);
},
{
closed = 1;
nodes = (
"217 670 OFFCURVE",
"239 639 OFFCURVE",
"239 573 CURVE SMOOTH",
"239 508 OFFCURVE",
"217 477 OFFCURVE",
"168 477 CURVE SMOOTH",
"120 477 OFFCURVE",
"98 508 OFFCURVE",
"98 573 CURVE SMOOTH",
"98 640 OFFCURVE",
"120 670 OFFCURVE",
"168 670 CURVE SMOOTH"
);
}
);
width = 337;
},
{
layerId = "2C16E7AF-C861-4509-900A-75D3055B0FF7";
name = Bold;
paths = (
{
closed = 1;
nodes = (
"89 708 OFFCURVE",
"47 661 OFFCURVE",
"47 575 CURVE SMOOTH",
"47 488 OFFCURVE",
"89 441 OFFCURVE",
"168 441 CURVE SMOOTH",
"247 441 OFFCURVE",
"288 488 OFFCURVE",
"288 575 CURVE SMOOTH",
"288 661 OFFCURVE",
"247 708 OFFCURVE",
"168 708 CURVE SMOOTH"
);
},
{
closed = 1;
nodes = (
"200 650 OFFCURVE",
"213 624 OFFCURVE",
"213 575 CURVE SMOOTH",
"213 525 OFFCURVE",
"200 499 OFFCURVE",
"168 499 CURVE SMOOTH",
"136 499 OFFCURVE",
"122 525 OFFCURVE",
"122 575 CURVE SMOOTH",
"122 624 OFFCURVE",
"136 650 OFFCURVE",
"168 650 CURVE SMOOTH"
);
}
);
width = 337;
}
);
unicode = 00BA;
},
{
color = 10;
glyphname = Delta;
lastChange = "2013-08-29 18:05:17 +0000";
layers = (
{
layerId = UUID0;
name = Regular;
paths = (
{
closed = 1;
nodes = (
"341 710 LINE SMOOTH",
"324 710 OFFCURVE",
"313 703 OFFCURVE",
"306 687 CURVE SMOOTH",
"42 67 LINE SMOOTH",
"36 53 OFFCURVE",
"34 44 OFFCURVE",
"34 30 CURVE",
"34 28 LINE",
"35 10 OFFCURVE",
"46 0 OFFCURVE",
"64 0 CURVE SMOOTH",
"643 0 LINE SMOOTH",
"663 0 OFFCURVE",
"673 11 OFFCURVE",
"673 30 CURVE",
"673 33 LINE",
"673 45 OFFCURVE",
"670 55 OFFCURVE",
"665 67 CURVE SMOOTH",
"402 687 LINE SMOOTH",
"395 703 OFFCURVE",
"384 710 OFFCURVE",
"367 710 CURVE SMOOTH"
);
},
{
closed = 1;
nodes = (
"587 68 LINE",
"116 68 LINE",
"350 619 LINE",
"355 619 LINE"
);
}
);
width = 708;
},
{
layerId = "2C16E7AF-C861-4509-900A-75D3055B0FF7";
name = Bold;
paths = (
{
closed = 1;
nodes = (
"322 710 LINE SMOOTH",
"302 710 OFFCURVE",
"289 702 OFFCURVE",
"281 683 CURVE SMOOTH",
"38 130 LINE SMOOTH",
"31 115 OFFCURVE",
"29 103 OFFCURVE",
"29 86 CURVE SMOOTH",
"29 35 LINE SMOOTH",
"29 12 OFFCURVE",
"41 0 OFFCURVE",
"64 0 CURVE SMOOTH",
"641 0 LINE SMOOTH",
"664 0 OFFCURVE",
"676 12 OFFCURVE",
"676 35 CURVE SMOOTH",
"676 86 LINE SMOOTH",
"676 103 OFFCURVE",
"674 115 OFFCURVE",
"667 130 CURVE SMOOTH",
"424 683 LINE SMOOTH",
"416 702 OFFCURVE",
"403 710 OFFCURVE",
"383 710 CURVE SMOOTH"
);
},
{
closed = 1;
nodes = (
"523 130 LINE",
"181 130 LINE",
"347 513 LINE",
"357 513 LINE"
);
}
);
width = 708;
}
);
unicode = 0394;
},
{
color = 10;
glyphname = Omega;
lastChange = "2013-08-29 18:05:17 +0000";
layers = (
{
anchors = (
{
name = topleft;
position = "{20, 700}";
}
);
layerId = UUID0;
name = Regular;
paths = (
{
closed = 1;
nodes = (
"165 706 OFFCURVE",
"57 586 OFFCURVE",
"57 352 CURVE SMOOTH",
"57 222 OFFCURVE",
"91 126 OFFCURVE",
"158 64 CURVE",
"136 65 OFFCURVE",
"83 68 OFFCURVE",
"61 68 CURVE SMOOTH",
"47 68 OFFCURVE",
"41 59 OFFCURVE",
"41 38 CURVE SMOOTH",
"41 30 LINE SMOOTH",
"41 9 OFFCURVE",
"47 0 OFFCURVE",
"61 0 CURVE SMOOTH",
"298 0 LINE SMOOTH",
"312 0 OFFCURVE",
"318 9 OFFCURVE",
"318 30 CURVE SMOOTH",
"318 34 LINE SMOOTH",
"318 44 OFFCURVE",
"318 50 OFFCURVE",
"311 52 CURVE SMOOTH",
"201 80 OFFCURVE",
"148 175 OFFCURVE",
"148 352 CURVE SMOOTH",
"148 536 OFFCURVE",
"224 630 OFFCURVE",
"365 630 CURVE SMOOTH",
"506 630 OFFCURVE",
"583 536 OFFCURVE",
"583 352 CURVE SMOOTH",
"583 175 OFFCURVE",
"529 80 OFFCURVE",
"419 52 CURVE SMOOTH",
"412 50 OFFCURVE",
"412 44 OFFCURVE",
"412 34 CURVE SMOOTH",
"412 30 LINE SMOOTH",
"412 9 OFFCURVE",
"418 0 OFFCURVE",
"432 0 CURVE SMOOTH",
"669 0 LINE SMOOTH",
"683 0 OFFCURVE",
"689 9 OFFCURVE",
"689 30 CURVE SMOOTH",
"689 38 LINE SMOOTH",
"689 59 OFFCURVE",
"683 68 OFFCURVE",
"669 68 CURVE SMOOTH",
"647 68 OFFCURVE",
"594 65 OFFCURVE",
"572 64 CURVE",
"640 126 OFFCURVE",
"674 222 OFFCURVE",
"674 352 CURVE SMOOTH",
"674 586 OFFCURVE",
"566 706 OFFCURVE",
"365 706 CURVE SMOOTH"
);
}
);
width = 731;
},
{
anchors = (
{
name = topleft;
position = "{20, 700}";
}
);
layerId = "2C16E7AF-C861-4509-900A-75D3055B0FF7";
name = Bold;
paths = (
{
closed = 1;
nodes = (
"160 708 OFFCURVE",
"45 585 OFFCURVE",
"45 360 CURVE SMOOTH",
"45 262 OFFCURVE",
"75 176 OFFCURVE",
"138 113 CURVE",
"138 113 OFFCURVE",
"89 131 OFFCURVE",
"56 131 CURVE SMOOTH",
"35 131 OFFCURVE",
"26 116 OFFCURVE",
"26 81 CURVE SMOOTH",
"26 50 LINE SMOOTH",
"26 15 OFFCURVE",
"35 0 OFFCURVE",
"56 0 CURVE",
"303 0 LINE SMOOTH",
"324 0 OFFCURVE",
"333 15 OFFCURVE",
"333 50 CURVE SMOOTH",
"333 76 LINE SMOOTH",
"333 97 OFFCURVE",
"331 106 OFFCURVE",
"319 110 CURVE SMOOTH",
"246 133 OFFCURVE",
"203 209 OFFCURVE",
"203 350 CURVE SMOOTH",
"203 497 OFFCURVE",
"259 576 OFFCURVE",
"366 576 CURVE SMOOTH",
"473 576 OFFCURVE",
"529 497 OFFCURVE",
"529 350 CURVE SMOOTH",
"529 209 OFFCURVE",
"486 133 OFFCURVE",
"413 110 CURVE SMOOTH",
"401 106 OFFCURVE",
"399 97 OFFCURVE",
"399 76 CURVE SMOOTH",
"399 50 LINE SMOOTH",
"399 15 OFFCURVE",
"408 0 OFFCURVE",
"429 0 CURVE SMOOTH",
"676 0 LINE SMOOTH",
"697 0 OFFCURVE",
"706 15 OFFCURVE",
"706 50 CURVE SMOOTH",
"706 81 LINE SMOOTH",
"706 116 OFFCURVE",
"697 131 OFFCURVE",
"676 131 CURVE SMOOTH",
"643 131 OFFCURVE",
"594 113 OFFCURVE",
"594 113 CURVE",
"657 176 OFFCURVE",
"687 262 OFFCURVE",
"687 360 CURVE SMOOTH",
"687 585 OFFCURVE",
"572 708 OFFCURVE",
"366 708 CURVE SMOOTH"
);
}
);
width = 731;
}
);
unicode = 03A9;
},
{
color = 10;
glyphname = mu;
lastChange = "2013-08-29 18:05:17 +0000";
layers = (
{
layerId = UUID0;
name = Regular;
paths = (
{
closed = 1;
nodes = (
"437 525 LINE SMOOTH",
"409 525 OFFCURVE",
"397 517 OFFCURVE",
"397 503 CURVE SMOOTH",
"397 137 LINE",
"364 94 OFFCURVE",
"316 67 OFFCURVE",
"271 67 CURVE SMOOTH",
"206 67 OFFCURVE",
"169 103 OFFCURVE",
"169 164 CURVE SMOOTH",
"169 503 LINE SMOOTH",
"169 517 OFFCURVE",
"157 525 OFFCURVE",
"129 525 CURVE SMOOTH",
"125 525 LINE SMOOTH",
"97 525 OFFCURVE",
"85 517 OFFCURVE",
"85 503 CURVE SMOOTH",
"85 -186 LINE SMOOTH",
"85 -200 OFFCURVE",
"97 -208 OFFCURVE",
"125 -208 CURVE SMOOTH",
"129 -208 LINE SMOOTH",
"157 -208 OFFCURVE",
"169 -200 OFFCURVE",
"169 -186 CURVE SMOOTH",
"169 47 LINE",
"150 18 LINE",
"174 4 OFFCURVE",
"209 -6 OFFCURVE",
"248 -6 CURVE SMOOTH",
"304 -6 OFFCURVE",
"362 22 OFFCURVE",
"404 69 CURVE",
"410 41 OFFCURVE",
"415 -1 OFFCURVE",
"439 -1 CURVE SMOOTH",
"452 -1 OFFCURVE",
"493 3 OFFCURVE",
"493 22 CURVE SMOOTH",
"493 27 OFFCURVE",
"481 66 OFFCURVE",
"481 148 CURVE SMOOTH",
"481 503 LINE SMOOTH",
"481 517 OFFCURVE",
"469 525 OFFCURVE",
"441 525 CURVE SMOOTH"
);
}
);
width = 566;
},
{
layerId = "2C16E7AF-C861-4509-900A-75D3055B0FF7";
name = Bold;
paths = (
{
closed = 1;
nodes = (
"401 525 LINE SMOOTH",
"359 525 OFFCURVE",
"341 514 OFFCURVE",
"341 493 CURVE SMOOTH",
"341 172 LINE",
"329 149 OFFCURVE",
"302 114 OFFCURVE",
"261 114 CURVE SMOOTH",
"217 114 OFFCURVE",
"201 137 OFFCURVE",
"201 176 CURVE SMOOTH",
"201 493 LINE SMOOTH",
"201 514 OFFCURVE",
"183 525 OFFCURVE",
"141 525 CURVE SMOOTH",
"113 525 LINE SMOOTH",
"71 525 OFFCURVE",
"53 514 OFFCURVE",
"53 493 CURVE SMOOTH",
"53 -174 LINE SMOOTH",
"53 -195 OFFCURVE",
"71 -206 OFFCURVE",
"113 -206 CURVE SMOOTH",
"141 -206 LINE SMOOTH",
"183 -206 OFFCURVE",
"201 -195 OFFCURVE",
"201 -174 CURVE SMOOTH",
"201 59 LINE",
"150 -1 LINE",
"167 -6 OFFCURVE",
"183 -8 OFFCURVE",
"199 -8 CURVE SMOOTH",
"264 -8 OFFCURVE",
"320 29 OFFCURVE",
"349 68 CURVE",
"355 41 OFFCURVE",
"357 -1 OFFCURVE",
"389 -1 CURVE SMOOTH",
"414 -1 OFFCURVE",
"501 7 OFFCURVE",
"501 31 CURVE SMOOTH",
"501 52 OFFCURVE",
"489 73 OFFCURVE",
"489 176 CURVE SMOOTH",
"489 493 LINE SMOOTH",
"489 514 OFFCURVE",
"471 525 OFFCURVE",
"429 525 CURVE SMOOTH"
);
}
);
width = 566;
}
);
unicode = 03BC;
},
{
color = 10;
glyphname = pi;
lastChange = "2013-08-29 18:05:17 +0000";
layers = (
{
layerId = UUID0;
name = Regular;
paths = (
{
closed = 1;
nodes = (
"162 523 LINE SMOOTH",
"75 523 OFFCURVE",
"14 513 OFFCURVE",
"14 479 CURVE SMOOTH",
"14 456 OFFCURVE",
"18 442 OFFCURVE",
"34 442 CURVE SMOOTH",
"52 442 OFFCURVE",
"62 451 OFFCURVE",
"140 451 CURVE",
"134 320 OFFCURVE",
"105 140 OFFCURVE",
"68 28 CURVE SMOOTH",
"67 25 OFFCURVE",
"66 22 OFFCURVE",
"66 19 CURVE SMOOTH",
"66 7 OFFCURVE",
"76 -2 OFFCURVE",
"94 -2 CURVE SMOOTH",
"117 -2 LINE SMOOTH",
"134 -2 OFFCURVE",
"145 7 OFFCURVE",
"151 23 CURVE SMOOTH",
"187 126 OFFCURVE",
"218 324 OFFCURVE",
"224 451 CURVE",
"419 451 LINE",
"419 146 LINE SMOOTH",
"419 40 OFFCURVE",
"422 -2 OFFCURVE",
"462 -2 CURVE SMOOTH",
"486 -2 LINE SMOOTH",
"504 -2 OFFCURVE",
"512 8 OFFCURVE",
"512 23 CURVE SMOOTH",
"512 48 OFFCURVE",
"503 86 OFFCURVE",
"503 154 CURVE SMOOTH",
"503 451 LINE",
"558 451 LINE SMOOTH",
"576 451 OFFCURVE",
"587 455 OFFCURVE",
"589 473 CURVE SMOOTH",
"592 499 OFFCURVE",
"592 502 OFFCURVE",
"592 504 CURVE SMOOTH",
"592 519 OFFCURVE",
"583 523 OFFCURVE",
"568 523 CURVE SMOOTH"
);
}
);
width = 616;
},
{
layerId = "2C16E7AF-C861-4509-900A-75D3055B0FF7";
name = Bold;
paths = (
{
closed = 1;
nodes = (
"162 523 LINE SMOOTH",
"80 523 OFFCURVE",
"5 514 OFFCURVE",
"5 473 CURVE SMOOTH",
"5 470 OFFCURVE",
"6 394 OFFCURVE",
"41 394 CURVE SMOOTH",
"50 394 OFFCURVE",
"73 406 OFFCURVE",
"130 406 CURVE",
"124 284 OFFCURVE",
"94 129 OFFCURVE",
"60 31 CURVE SMOOTH",
"59 27 OFFCURVE",
"58 24 OFFCURVE",
"58 21 CURVE SMOOTH",
"58 8 OFFCURVE",
"82 -2 OFFCURVE",
"121 -2 CURVE SMOOTH",
"134 -2 LINE SMOOTH",
"169 -2 OFFCURVE",
"196 7 OFFCURVE",
"204 27 CURVE SMOOTH",
"239 113 OFFCURVE",
"269 282 OFFCURVE",
"275 406 CURVE",
"368 406 LINE",
"368 119 LINE SMOOTH",
"368 74 OFFCURVE",
"373 -2 OFFCURVE",
"434 -2 CURVE SMOOTH",
"461 -2 LINE SMOOTH",
"503 -2 OFFCURVE",
"522 10 OFFCURVE",
"522 28 CURVE SMOOTH",
"522 33 OFFCURVE",
"513 70 OFFCURVE",
"513 154 CURVE SMOOTH",
"513 406 LINE",
"560 406 LINE SMOOTH",
"583 406 OFFCURVE",
"595 417 OFFCURVE",
"597 439 CURVE SMOOTH",
"601 489 OFFCURVE",
"601 490 OFFCURVE",
"601 492 CURVE SMOOTH",
"601 512 OFFCURVE",
"589 523 OFFCURVE",
"567 523 CURVE SMOOTH"
);
}
);
width = 616;
}
);
unicode = 03C0;
},
{
color = 10;
glyphname = zero;
lastChange = "2013-08-29 18:05:17 +0000";
layers = (
{
layerId = UUID0;
name = Regular;
paths = (
{
closed = 1;
nodes = (
"146 706 OFFCURVE",
"39 599 OFFCURVE",
"39 350 CURVE SMOOTH",
"39 101 OFFCURVE",
"146 -6 OFFCURVE",
"266 -6 CURVE SMOOTH",
"387 -6 OFFCURVE",
"495 101 OFFCURVE",
"495 350 CURVE SMOOTH",
"495 599 OFFCURVE",
"387 706 OFFCURVE",
"266 706 CURVE SMOOTH"
);
},
{
closed = 1;
nodes = (
"338 634 OFFCURVE",
"410 559 OFFCURVE",
"410 350 CURVE SMOOTH",
"410 141 OFFCURVE",
"338 66 OFFCURVE",
"266 66 CURVE SMOOTH",
"194 66 OFFCURVE",
"124 141 OFFCURVE",
"124 350 CURVE SMOOTH",
"124 559 OFFCURVE",
"194 634 OFFCURVE",
"266 634 CURVE SMOOTH"
);
}
);
width = 535;
},
{
layerId = "2C16E7AF-C861-4509-900A-75D3055B0FF7";
name = Bold;
paths = (
{
closed = 1;
nodes = (
"119 708 OFFCURVE",
"30 575 OFFCURVE",
"30 350 CURVE SMOOTH",
"30 125 OFFCURVE",
"119 -8 OFFCURVE",
"267 -8 CURVE SMOOTH",
"415 -8 OFFCURVE",
"504 125 OFFCURVE",
"504 350 CURVE SMOOTH",
"504 575 OFFCURVE",
"415 708 OFFCURVE",
"267 708 CURVE SMOOTH"
);
},
{
closed = 1;
nodes = (
"323 591 OFFCURVE",
"354 509 OFFCURVE",
"354 350 CURVE SMOOTH",
"354 191 OFFCURVE",
"323 109 OFFCURVE",
"267 109 CURVE SMOOTH",
"211 109 OFFCURVE",
"180 191 OFFCURVE",
"180 350 CURVE SMOOTH",
"180 509 OFFCURVE",
"211 591 OFFCURVE",
"267 591 CURVE SMOOTH"
);
}
);
width = 535;
}
);
unicode = 0030;
},
{
color = 10;
glyphname = one;
lastChange = "2013-08-29 18:05:17 +0000";
layers = (
{
layerId = UUID0;
name = Regular;
paths = (
{
closed = 1;
nodes = (
"58 651 LINE SMOOTH",
"46 648 OFFCURVE",
"40 643 OFFCURVE",
"40 632 CURVE SMOOTH",
"40 614 OFFCURVE",
"46 581 OFFCURVE",
"60 581 CURVE",
"237 611 LINE",
"237 72 LINE",
"63 72 LINE SMOOTH",
"49 72 OFFCURVE",
"43 63 OFFCURVE",
"43 42 CURVE SMOOTH",
"43 30 LINE SMOOTH",
"43 9 OFFCURVE",
"49 0 OFFCURVE",
"63 0 CURVE SMOOTH",
"469 0 LINE SMOOTH",
"483 0 OFFCURVE",
"489 9 OFFCURVE",
"489 30 CURVE SMOOTH",
"489 42 LINE SMOOTH",
"489 63 OFFCURVE",
"483 72 OFFCURVE",
"469 72 CURVE SMOOTH",
"321 72 LINE",
"321 681 LINE SMOOTH",
"321 693 OFFCURVE",
"305 702 OFFCURVE",
"290 702 CURVE"
);
}
);
width = 535;
},
{
layerId = "2C16E7AF-C861-4509-900A-75D3055B0FF7";
name = Bold;
paths = (
{
closed = 1;
nodes = (
"63 658 LINE SMOOTH",
"46 655 OFFCURVE",
"37 645 OFFCURVE",
"37 630 CURVE SMOOTH",
"37 602 OFFCURVE",
"43 546 OFFCURVE",
"69 546 CURVE",
"205 566 LINE",
"205 117 LINE",
"72 117 LINE SMOOTH",
"51 117 OFFCURVE",
"42 102 OFFCURVE",
"42 67 CURVE SMOOTH",
"42 50 LINE SMOOTH",
"42 15 OFFCURVE",
"51 0 OFFCURVE",
"72 0 CURVE SMOOTH",
"460 0 LINE SMOOTH",
"481 0 OFFCURVE",
"490 15 OFFCURVE",
"490 50 CURVE SMOOTH",
"490 67 LINE SMOOTH",
"490 102 OFFCURVE",
"481 117 OFFCURVE",
"460 117 CURVE SMOOTH",
"353 117 LINE",
"353 680 LINE SMOOTH",
"353 692 OFFCURVE",
"328 704 OFFCURVE",
"312 704 CURVE"
);
}
);
width = 535;
}
);
unicode = 0031;
},
